<svg id="Capa_1" data-name="Capa 1" xmlns="http://www.w3.org/2000/svg" xmlns:xlink="http://www.w3.org/1999/xlink" viewBox="0 0 500 500"><defs><style>.cls-1{fill:url(#Degradado_sin_nombre_51);}.cls-2{fill:#ffd150;}.cls-3{fill:#ef6b55;}.cls-4{fill:#174656;}.cls-5{fill:#fff085;}.cls-6{fill:#d14b39;}.cls-7{fill:#2c5972;}.cls-8{fill:#fff;}.cls-9{fill:#49d3ea;}.cls-10{fill:#9cf6ff;}.cls-11{fill:#00649b;}.cls-12{fill:#e6e7e8;}.cls-13{fill:#a7a9ac;}.cls-14{fill:#0075af;}.cls-15{fill:#bcbec0;}.cls-16{fill:#10303f;}.cls-17{fill:#d1ecfb;}.cls-18{fill:#d9461f;}</style><linearGradient id="Degradado_sin_nombre_51" x1="105.18" y1="439.77" x2="419.59" y2="125.37" gradientUnits="userSpaceOnUse"><stop offset="0" stop-color="#00b300"/><stop offset="0.13" stop-color="#29cd2b"/><stop offset="0.29" stop-color="#53e857"/><stop offset="0.41" stop-color="#6df973"/><stop offset="0.49" stop-color="#77ff7d"/><stop offset="0.64" stop-color="#77ff87"/><stop offset="0.9" stop-color="#77ffa1"/><stop offset="1" stop-color="#77ffac"/></linearGradient></defs><title>12</title><path class="cls-1" d="M478.26,308.51c0,127.24-85,143.55-214.21,143.55s-253.7-44-253.7-171.19S183.55,93.64,312.76,93.64,478.26,181.28,478.26,308.51Z"/><rect class="cls-2" x="106.46" y="85.27" width="225.95" height="252.91"/><rect class="cls-3" x="106.46" y="239.11" width="225.95" height="99.07"/><rect class="cls-4" x="102.19" y="325.26" width="234.47" height="12.92"/><polygon class="cls-5" points="151.53 47.94 156.72 58.45 168.31 60.13 159.92 68.31 161.9 79.86 151.53 74.41 141.16 79.86 143.14 68.31 134.75 60.13 146.35 58.45 151.53 47.94"/><polygon class="cls-5" points="185.48 47.94 190.67 58.45 202.26 60.13 193.87 68.31 195.85 79.86 185.48 74.41 175.11 79.86 177.09 68.31 168.7 60.13 180.3 58.45 185.48 47.94"/><polygon class="cls-5" points="219.43 47.94 224.61 58.45 236.21 60.13 227.82 68.31 229.8 79.86 219.43 74.41 209.06 79.86 211.04 68.31 202.65 60.13 214.24 58.45 219.43 47.94"/><polygon class="cls-5" points="253.38 47.94 258.56 58.45 270.16 60.13 261.77 68.31 263.75 79.86 253.38 74.41 243.01 79.86 244.99 68.31 236.6 60.13 248.19 58.45 253.38 47.94"/><polygon class="cls-5" points="287.32 47.94 292.51 58.45 304.1 60.13 295.71 68.31 297.69 79.86 287.32 74.41 276.95 79.86 278.94 68.31 270.55 60.13 282.14 58.45 287.32 47.94"/><rect class="cls-6" x="106.46" y="237.98" width="225.95" height="12.11"/><rect class="cls-7" x="99.95" y="234.74" width="239.7" height="9.97"/><rect class="cls-7" x="99.95" y="80.29" width="239.7" height="9.97"/><rect class="cls-8" x="188.34" y="255.57" width="62.18" height="82.61"/><rect class="cls-9" x="194.33" y="261.72" width="50.2" height="70.81"/><rect class="cls-8" x="216.33" y="259.02" width="6.2" height="76.2"/><rect class="cls-8" x="183.88" y="255.57" width="71.11" height="5.89"/><circle class="cls-8" cx="212.2" cy="300.18" r="2.9"/><circle class="cls-8" cx="226.87" cy="300.18" r="2.9"/><rect class="cls-8" x="122.2" y="171.24" width="52.14" height="52.93"/><rect class="cls-9" x="128.19" y="177.39" width="40.16" height="40.69"/><polygon class="cls-10" points="131.96 214.27 131.96 181.21 164.58 181.21 131.96 214.27"/><rect class="cls-8" x="122.2" y="258.44" width="52.14" height="52.93"/><rect class="cls-9" x="128.19" y="264.59" width="40.16" height="40.69"/><polygon class="cls-10" points="131.96 301.46 131.96 268.41 164.58 268.41 131.96 301.46"/><rect class="cls-8" x="265.02" y="258.44" width="52.14" height="52.93"/><rect class="cls-9" x="271.01" y="264.59" width="40.16" height="40.69"/><polygon class="cls-10" points="274.78 301.46 274.78 268.41 307.4 268.41 274.78 301.46"/><rect class="cls-8" x="193.36" y="171.24" width="52.14" height="52.93"/><rect class="cls-9" x="199.35" y="177.39" width="40.16" height="40.69"/><polygon class="cls-10" points="203.12 214.27 203.12 181.21 235.74 181.21 203.12 214.27"/><rect class="cls-8" x="265.02" y="171.24" width="52.14" height="52.93"/><rect class="cls-9" x="271.01" y="177.39" width="40.16" height="40.69"/><polygon class="cls-10" points="274.78 214.27 274.78 181.21 307.4 181.21 274.78 214.27"/><rect class="cls-8" x="265.02" y="99.91" width="52.14" height="52.93"/><rect class="cls-9" x="271.01" y="106.06" width="40.16" height="40.69"/><polygon class="cls-10" points="274.78 142.93 274.78 109.88 307.4 109.88 274.78 142.93"/><rect class="cls-8" x="193.36" y="99.91" width="52.14" height="52.93"/><rect class="cls-9" x="199.35" y="106.06" width="40.16" height="40.69"/><polygon class="cls-10" points="203.12 142.93 203.12 109.88 235.74 109.88 203.12 142.93"/><rect class="cls-8" x="122.2" y="99.91" width="52.14" height="52.93"/><rect class="cls-9" x="128.19" y="106.06" width="40.16" height="40.69"/><polygon class="cls-10" points="131.96 142.93 131.96 109.88 164.58 109.88 131.96 142.93"/><path class="cls-11" d="M425.79,271.57a7.66,7.66,0,0,0-7.67-7.66H296.19a7.67,7.67,0,0,0-7.67,7.67v29.69H425.79Z"/><path class="cls-12" d="M288.52,301.26v29.69a7.66,7.66,0,0,0,7.67,7.66H418.13a7.67,7.67,0,0,0,7.67-7.67V301.26Z"/><path class="cls-11" d="M489.65,271.57a7.66,7.66,0,0,0-7.67-7.66H433.42a7.66,7.66,0,0,0-7.67,7.66v29.69h63.9Z"/><path class="cls-12" d="M425.76,301.26v29.69a7.67,7.67,0,0,0,7.67,7.67H482a7.67,7.67,0,0,0,7.67-7.67V301.25Z"/><path class="cls-7" d="M426.5,329.74H425V326h1.48Zm0-7.4H425v-3.7h1.48Zm0-7.4H425v-3.7h1.48Zm0-7.4H425v-3.7h1.48Z"/><path class="cls-8" d="M426.5,298.5H425v-3.7h1.48Zm0-7.4H425v-3.7h1.48Zm0-7.4H425V280h1.48Zm0-7.4H425v-3.7h1.48Z"/><path class="cls-12" d="M336.72,281.27A9.59,9.59,0,0,0,332,280l-8.35,0-7.2-11.09a1.88,1.88,0,0,0-1.46-.85l-2.71-.17,4.95,12.65-9,1-1.92-3.12a1.37,1.37,0,0,0-1.16-.65h-2.12l1.87,4.44-.6.12a.63.63,0,0,0,0,1.24l.6.12-1.9,4.43h2.12a1.37,1.37,0,0,0,1.17-.65l1.94-3.11,9,1-5,12.62,2.71-.16a1.88,1.88,0,0,0,1.46-.84l7.28-11,8.35,0a9.59,9.59,0,0,0,4.7-1.22A2,2,0,0,0,336.72,281.27Z"/><path class="cls-12" d="M474,281.26a9.59,9.59,0,0,0-4.7-1.25L461,280l-7.2-11.09a1.88,1.88,0,0,0-1.46-.85l-2.71-.17,4.95,12.65-9,1-1.92-3.12a1.37,1.37,0,0,0-1.16-.65h-2.12l1.87,4.44-.6.12a.63.63,0,0,0,0,1.24l.6.12-1.9,4.43h2.12a1.37,1.37,0,0,0,1.17-.65l1.94-3.11,9,1-5,12.62,2.71-.16a1.88,1.88,0,0,0,1.46-.84l7.28-11,8.35,0a9.59,9.59,0,0,0,4.7-1.22A2,2,0,0,0,474,281.26Z"/><path class="cls-12" d="M410.18,285.65H348.34a2.74,2.74,0,0,1-2.74-2.74h0a2.74,2.74,0,0,1,2.74-2.74h61.85a2.74,2.74,0,0,1,2.74,2.74h0A2.74,2.74,0,0,1,410.18,285.65Z"/><path class="cls-13" d="M410.18,317.45H348.34a2.74,2.74,0,0,1-2.74-2.74h0a2.74,2.74,0,0,1,2.74-2.74h61.85a2.74,2.74,0,0,1,2.74,2.74h0A2.74,2.74,0,0,1,410.18,317.45Z"/><path class="cls-13" d="M410.19,327H348.34a2.74,2.74,0,0,1-2.74-2.74h0a2.74,2.74,0,0,1,2.74-2.74h61.85a2.74,2.74,0,0,1,2.74,2.74h0A2.74,2.74,0,0,1,410.19,327Z"/><path class="cls-13" d="M332.6,317.46H305.77a2.74,2.74,0,0,1-2.74-2.74h0a2.74,2.74,0,0,1,2.74-2.74H332.6a2.74,2.74,0,0,1,2.74,2.74h0A2.74,2.74,0,0,1,332.6,317.46Z"/><path class="cls-13" d="M332.6,327H305.77a2.74,2.74,0,0,1-2.74-2.74h0a2.74,2.74,0,0,1,2.74-2.74H332.6a2.74,2.74,0,0,1,2.74,2.74h0A2.74,2.74,0,0,1,332.6,327Z"/><path class="cls-13" d="M471.12,317.45H444.29a2.74,2.74,0,0,1-2.74-2.74h0a2.74,2.74,0,0,1,2.74-2.74h26.83a2.74,2.74,0,0,1,2.74,2.74h0A2.74,2.74,0,0,1,471.12,317.45Z"/><path class="cls-13" d="M471.12,327H444.29a2.74,2.74,0,0,1-2.74-2.74h0a2.74,2.74,0,0,1,2.74-2.74h26.83a2.74,2.74,0,0,1,2.74,2.74h0A2.74,2.74,0,0,1,471.12,327Z"/><path class="cls-14" d="M411.23,296.4a7.66,7.66,0,0,0-7.67-7.66H281.62a7.67,7.67,0,0,0-7.67,7.67V326.1H411.23Z"/><path class="cls-8" d="M274,326.1v29.69a7.66,7.66,0,0,0,7.67,7.66H403.56a7.67,7.67,0,0,0,7.67-7.67V326.09Z"/><path class="cls-14" d="M475.08,296.4a7.66,7.66,0,0,0-7.67-7.66H418.86a7.66,7.66,0,0,0-7.67,7.66v29.69h63.9Z"/><path class="cls-8" d="M411.19,326.09v29.69a7.67,7.67,0,0,0,7.67,7.67h48.56a7.67,7.67,0,0,0,7.67-7.67V326.09Z"/><path class="cls-7" d="M411.93,354.57h-1.48v-3.7h1.48Zm0-7.4h-1.48v-3.7h1.48Zm0-7.4h-1.48v-3.7h1.48Zm0-7.4h-1.48v-3.7h1.48Z"/><path class="cls-8" d="M411.93,323.33h-1.48v-3.7h1.48Zm0-7.4h-1.48v-3.7h1.48Zm0-7.4h-1.48v-3.7h1.48Zm0-7.4h-1.48v-3.7h1.48Z"/><path class="cls-8" d="M322.15,306.1a9.59,9.59,0,0,0-4.7-1.25l-8.35,0-7.2-11.09a1.88,1.88,0,0,0-1.46-.85l-2.71-.17,4.95,12.65-9,1-1.92-3.12a1.37,1.37,0,0,0-1.16-.65H288.5l1.87,4.44-.6.12a.63.63,0,0,0,0,1.24l.6.12-1.9,4.43h2.12a1.37,1.37,0,0,0,1.17-.65l1.94-3.11,9,1-5,12.62,2.71-.16a1.88,1.88,0,0,0,1.46-.84l7.28-11,8.35,0a9.59,9.59,0,0,0,4.7-1.22A2,2,0,0,0,322.15,306.1Z"/><path class="cls-8" d="M459.48,306.09a9.59,9.59,0,0,0-4.7-1.25l-8.35,0-7.2-11.09a1.88,1.88,0,0,0-1.46-.85l-2.71-.17L440,305.35l-9,1-1.92-3.12a1.37,1.37,0,0,0-1.16-.65h-2.12L427.7,307l-.6.12a.63.63,0,0,0,0,1.24l.6.12-1.9,4.43h2.12a1.37,1.37,0,0,0,1.17-.65l1.94-3.11,9,1-5,12.62,2.71-.16a1.88,1.88,0,0,0,1.46-.84l7.28-11,8.35,0a9.59,9.59,0,0,0,4.7-1.22A2,2,0,0,0,459.48,306.09Z"/><path class="cls-8" d="M395.62,310.48H333.77a2.74,2.74,0,0,1-2.74-2.74h0a2.74,2.74,0,0,1,2.74-2.74h61.85a2.74,2.74,0,0,1,2.74,2.74h0A2.74,2.74,0,0,1,395.62,310.48Z"/><path class="cls-15" d="M395.62,342.29H333.77a2.74,2.74,0,0,1-2.74-2.74h0a2.74,2.74,0,0,1,2.74-2.74h61.85a2.74,2.74,0,0,1,2.74,2.74h0A2.74,2.74,0,0,1,395.62,342.29Z"/><path class="cls-15" d="M395.62,351.8H333.77a2.74,2.74,0,0,1-2.74-2.74h0a2.74,2.74,0,0,1,2.74-2.74h61.85a2.74,2.74,0,0,1,2.74,2.74h0A2.74,2.74,0,0,1,395.62,351.8Z"/><path class="cls-15" d="M318,342.29H291.2a2.74,2.74,0,0,1-2.74-2.74h0a2.74,2.74,0,0,1,2.74-2.74H318a2.74,2.74,0,0,1,2.74,2.74h0A2.74,2.74,0,0,1,318,342.29Z"/><path class="cls-15" d="M318,351.8H291.21a2.74,2.74,0,0,1-2.74-2.74h0a2.74,2.74,0,0,1,2.74-2.74H318a2.74,2.74,0,0,1,2.74,2.74h0A2.74,2.74,0,0,1,318,351.8Z"/><path class="cls-15" d="M456.55,342.28H429.72a2.74,2.74,0,0,1-2.74-2.74h0a2.74,2.74,0,0,1,2.74-2.74h26.83a2.74,2.74,0,0,1,2.74,2.74h0A2.74,2.74,0,0,1,456.55,342.28Z"/><path class="cls-15" d="M456.55,351.79H429.72a2.74,2.74,0,0,1-2.74-2.74h0a2.74,2.74,0,0,1,2.74-2.74h26.83a2.74,2.74,0,0,1,2.74,2.74h0A2.74,2.74,0,0,1,456.55,351.79Z"/><path class="cls-2" d="M189.6,335.35h14.22l-2.63-12.23a2.85,2.85,0,0,0-2.78-2.25H195a2.85,2.85,0,0,0-2.78,2.25Z"/><rect class="cls-16" x="89.24" y="388.13" width="263.35" height="28.05"/><path class="cls-5" d="M60,390.47l2.09-18a9.3,9.3,0,0,1,8.83-8.06l23.82-1L128,338.48a16.91,16.91,0,0,1,10.15-3.39h92.42a16.91,16.91,0,0,1,8.83,2.49l48.89,29.93s40.16,5,62,10.84c10.86,2.88,19.06,11.71,19.06,22.95v12.36a7.21,7.21,0,0,1-7.21,7.21H337.77a23.37,23.37,0,1,0-45.55,0H146.49a23.37,23.37,0,1,0-45.55,0H62.56a7.21,7.21,0,0,1-7.21-7.21V400.87a8.35,8.35,0,0,1,1.1-4.14Z"/><circle class="cls-7" cx="314.99" cy="415.6" r="19.19"/><circle class="cls-7" cx="123.72" cy="415.6" r="19.19"/><circle class="cls-17" cx="314.99" cy="415.6" r="10.53"/><circle class="cls-17" cx="123.72" cy="415.6" r="10.53"/><path class="cls-2" d="M362.13,420.86H337.77a23.26,23.26,0,0,0-8.07-23.37H369a22.44,22.44,0,0,1,.33,3.81v12.36A7.21,7.21,0,0,1,362.13,420.86Z"/><path class="cls-2" d="M100.34,415.6a23.42,23.42,0,0,0,.6,5.26H62.56a7.21,7.21,0,0,1-7.21-7.21V400.87a8.33,8.33,0,0,1,.73-3.38H109A23.32,23.32,0,0,0,100.34,415.6Z"/><path class="cls-2" d="M138.42,397.48H300.23a23.35,23.35,0,0,0-8,23.37H146.49a23.26,23.26,0,0,0-8.07-23.37Z"/><path class="cls-9" d="M118.65,370.6H262.52a2.81,2.81,0,0,0,2.81-2.81v-3.33a2.81,2.81,0,0,0-1-2.18l-29.78-18a10.22,10.22,0,0,0-5.29-1.48H142.76a10.22,10.22,0,0,0-6.06,2l-20.93,15.4a4.09,4.09,0,0,0-1.21,2.9v3.43A4.09,4.09,0,0,0,118.65,370.6Z"/><rect class="cls-7" x="262.55" y="360.83" width="7.95" height="13.28" rx="3.51" ry="3.51"/><rect class="cls-5" x="193.16" y="338.27" width="7.11" height="39.7"/><rect class="cls-5" x="136.42" y="338.27" width="7.11" height="39.7"/><path class="cls-7" d="M202.54,374.11h11.77a1.93,1.93,0,0,1,0,3.86H202.54a1.93,1.93,0,1,1,0-3.86Z"/><path class="cls-7" d="M145.52,374.11h11.77a1.93,1.93,0,0,1,0,3.86H145.52a1.93,1.93,0,0,1,0-3.86Z"/><path class="cls-18" d="M70.93,373.66v9.09a3.06,3.06,0,0,1-3.05,3.05H60.57l1.54-13.3a9.29,9.29,0,0,1,.46-1.89h5.31A3.06,3.06,0,0,1,70.93,373.66Z"/><path class="cls-8" d="M355.06,393.39a3.06,3.06,0,0,1-3.05-3.05v-4.42a3.06,3.06,0,0,1,3.05-3.05h4.72a23.63,23.63,0,0,1,8.12,10.52Z"/><rect class="cls-16" x="244.3" y="397.48" width="8.1" height="8.1"/><rect class="cls-7" x="236.2" y="389.38" width="8.1" height="8.1"/><rect class="cls-16" x="228.1" y="397.48" width="8.1" height="8.1"/><rect class="cls-7" x="219.99" y="389.38" width="8.1" height="8.1"/><rect class="cls-16" x="211.89" y="397.48" width="8.1" height="8.1"/><rect class="cls-7" x="203.79" y="389.38" width="8.1" height="8.1"/><rect class="cls-16" x="195.69" y="397.48" width="8.1" height="8.1"/><rect class="cls-7" x="187.58" y="389.38" width="8.1" height="8.1"/><rect class="cls-16" x="179.48" y="397.48" width="8.1" height="8.1"/></svg>