<svg id="Capa_1" data-name="Capa 1" xmlns="http://www.w3.org/2000/svg" xmlns:xlink="http://www.w3.org/1999/xlink" viewBox="0 0 500 500"><defs><style>.cls-1{fill:url(#Degradado_sin_nombre_51);}.cls-2{fill:#fff;}.cls-3{fill:#e25033;}.cls-4{opacity:0.3;}.cls-5{fill:#222;}.cls-6{fill:#e02f12;}.cls-7{opacity:0.6;}.cls-8{fill:#b3b3b3;}.cls-9{opacity:0.2;}.cls-10{opacity:0.7;}.cls-11{fill:#e2392b;}.cls-12{fill:#aa0c04;}.cls-13{fill:#7c0e0e;}.cls-14{fill:#111;}.cls-15{fill:#e54228;}.cls-16{fill:#ce1705;}.cls-17{opacity:0.5;}.cls-18{fill:#0c0c0c;}</style><linearGradient id="Degradado_sin_nombre_51" x1="-1790.19" y1="207.18" x2="-1407.54" y2="362.02" gradientTransform="translate(1909.49)" gradientUnits="userSpaceOnUse"><stop offset="0" stop-color="#00b300"/><stop offset="0.13" stop-color="#29cd2b"/><stop offset="0.29" stop-color="#53e857"/><stop offset="0.41" stop-color="#6df973"/><stop offset="0.49" stop-color="#77ff7d"/><stop offset="0.64" stop-color="#77ff87"/><stop offset="0.9" stop-color="#77ffa1"/><stop offset="1" stop-color="#77ffac"/></linearGradient></defs><title>6</title><path class="cls-1" d="M455.63,302.25C412.48,426.5,330.18,435.12,263.21,435.12c-125.27,0-274-24.32-262.6-147.15C11,176.23,137.56,64.88,262.83,64.88S496.1,185.72,455.63,302.25Z"/><rect class="cls-2" x="72.66" y="134.59" width="302.91" height="249.43"/><rect class="cls-3" x="72.66" y="118.92" width="302.91" height="44.05"/><g class="cls-4"><rect class="cls-5" x="72.66" y="159.22" width="302.91" height="8.72"/></g><rect class="cls-6" x="72.66" y="156.93" width="302.91" height="8.43"/><g class="cls-7"><ellipse class="cls-5" cx="101.14" cy="127.97" rx="7.03" ry="6.48"/></g><rect class="cls-8" x="95.35" y="105.54" width="11.59" height="26.24" rx="5.62" ry="5.62"/><g class="cls-7"><ellipse class="cls-5" cx="136.28" cy="128.11" rx="7.03" ry="6.48"/></g><rect class="cls-8" x="130.48" y="105.67" width="11.59" height="26.24" rx="5.62" ry="5.62"/><g class="cls-7"><ellipse class="cls-5" cx="171.53" cy="128.11" rx="7.03" ry="6.48"/></g><rect class="cls-8" x="165.74" y="105.67" width="11.59" height="26.24" rx="5.62" ry="5.62"/><g class="cls-7"><ellipse class="cls-5" cx="206.55" cy="127.97" rx="7.03" ry="6.48"/></g><rect class="cls-8" x="200.76" y="105.54" width="11.59" height="26.24" rx="5.62" ry="5.62"/><g class="cls-7"><ellipse class="cls-5" cx="241.69" cy="128.11" rx="7.03" ry="6.48"/></g><rect class="cls-8" x="235.89" y="105.67" width="11.59" height="26.24" rx="5.62" ry="5.62"/><g class="cls-7"><ellipse class="cls-5" cx="276.94" cy="128.11" rx="7.03" ry="6.48"/></g><rect class="cls-8" x="271.15" y="105.67" width="11.59" height="26.24" rx="5.62" ry="5.62"/><g class="cls-7"><ellipse class="cls-5" cx="311.94" cy="128.11" rx="7.03" ry="6.48"/></g><rect class="cls-8" x="306.15" y="105.67" width="11.59" height="26.24" rx="5.62" ry="5.62"/><g class="cls-7"><ellipse class="cls-5" cx="347.08" cy="128.24" rx="7.03" ry="6.48"/></g><rect class="cls-8" x="341.28" y="105.81" width="11.59" height="26.24" rx="5.62" ry="5.62"/><g class="cls-9"><rect class="cls-5" x="128.48" y="191.15" width="24.23" height="24.23" rx="4.68" ry="4.68"/></g><g class="cls-9"><rect class="cls-5" x="170.24" y="191.15" width="24.23" height="24.23" rx="4.68" ry="4.68"/></g><g class="cls-9"><rect class="cls-5" x="212" y="191.15" width="24.23" height="24.23" rx="4.68" ry="4.68"/></g><g class="cls-9"><rect class="cls-5" x="253.76" y="191.15" width="24.23" height="24.23" rx="4.68" ry="4.68"/></g><g class="cls-4"><rect class="cls-5" x="295.52" y="191.15" width="24.23" height="24.23" rx="4.68" ry="4.68"/></g><g class="cls-10"><rect class="cls-11" x="337.28" y="191.15" width="24.23" height="24.23" rx="4.68" ry="4.68"/></g><g class="cls-9"><rect class="cls-5" x="86.72" y="227.09" width="24.23" height="24.23" rx="4.68" ry="4.68"/></g><g class="cls-9"><rect class="cls-5" x="128.48" y="227.09" width="24.23" height="24.23" rx="4.68" ry="4.68"/></g><g class="cls-9"><rect class="cls-5" x="170.24" y="227.09" width="24.23" height="24.23" rx="4.68" ry="4.68"/></g><g class="cls-9"><rect class="cls-5" x="212" y="227.09" width="24.23" height="24.23" rx="4.68" ry="4.68"/></g><g class="cls-9"><rect class="cls-5" x="253.76" y="227.09" width="24.23" height="24.23" rx="4.68" ry="4.68"/></g><g class="cls-4"><rect class="cls-5" x="295.52" y="227.09" width="24.23" height="24.23" rx="4.68" ry="4.68"/></g><g class="cls-10"><rect class="cls-11" x="337.28" y="227.09" width="24.23" height="24.23" rx="4.68" ry="4.68"/></g><g class="cls-9"><rect class="cls-5" x="86.72" y="263.03" width="24.23" height="24.23" rx="4.68" ry="4.68"/></g><g class="cls-9"><rect class="cls-5" x="128.48" y="263.03" width="24.23" height="24.23" rx="4.68" ry="4.68"/></g><g class="cls-9"><rect class="cls-5" x="170.24" y="263.03" width="24.23" height="24.23" rx="4.68" ry="4.68"/></g><g class="cls-9"><rect class="cls-5" x="212" y="263.03" width="24.23" height="24.23" rx="4.68" ry="4.68"/></g><g class="cls-9"><rect class="cls-5" x="253.76" y="263.03" width="24.23" height="24.23" rx="4.68" ry="4.68"/></g><g class="cls-4"><rect class="cls-5" x="295.52" y="263.03" width="24.23" height="24.23" rx="4.68" ry="4.68"/></g><g class="cls-10"><rect class="cls-11" x="337.28" y="263.03" width="24.23" height="24.23" rx="4.68" ry="4.68"/></g><g class="cls-9"><rect class="cls-5" x="86.72" y="298.97" width="24.23" height="24.23" rx="4.68" ry="4.68"/></g><g class="cls-9"><rect class="cls-5" x="128.48" y="298.97" width="24.23" height="24.23" rx="4.68" ry="4.68"/></g><g class="cls-9"><rect class="cls-5" x="170.24" y="298.97" width="24.23" height="24.23" rx="4.68" ry="4.68"/></g><g class="cls-9"><rect class="cls-5" x="212" y="298.97" width="24.23" height="24.23" rx="4.68" ry="4.68"/></g><g class="cls-9"><rect class="cls-5" x="253.76" y="298.97" width="24.23" height="24.23" rx="4.68" ry="4.68"/></g><g class="cls-4"><rect class="cls-5" x="295.52" y="298.97" width="24.23" height="24.23" rx="4.68" ry="4.68"/></g><g class="cls-10"><rect class="cls-11" x="337.28" y="298.97" width="24.23" height="24.23" rx="4.68" ry="4.68"/></g><g class="cls-9"><rect class="cls-5" x="86.72" y="334.91" width="24.23" height="24.23" rx="4.68" ry="4.68"/></g><g class="cls-9"><rect class="cls-5" x="128.48" y="334.91" width="24.23" height="24.23" rx="4.68" ry="4.68"/></g><g class="cls-9"><rect class="cls-5" x="170.25" y="334.91" width="24.23" height="24.23" rx="4.68" ry="4.68"/></g><g class="cls-9"><rect class="cls-5" x="212.01" y="334.91" width="24.23" height="24.23" rx="4.68" ry="4.68"/></g><path class="cls-6" d="M224.3,327.66a16.36,16.36,0,1,1,15.38-10.73,1.17,1.17,0,0,1-2.2-.81,14,14,0,1,0-4.56,6.24,1.17,1.17,0,1,1,1.44,1.85,16.26,16.26,0,0,1-5.61,2.83A16.44,16.44,0,0,1,224.3,327.66Z"/><polygon class="cls-12" points="472.23 200.55 483.03 208.04 467.28 215.64 456.48 208.15 472.23 200.55"/><path class="cls-13" d="M252.15,292.54c-1,.54-3.53,1.48-4.2.14s1.66-2.75,2.72-3.2l5.32-2.57a1.77,1.77,0,1,1,1.48,3.07Z"/><path class="cls-6" d="M308.52,281.25a148.07,148.07,0,0,1-54,10.61L252.67,288a148.07,148.07,0,0,1,41.91-35.69q2.69-1.56,5.4-3l14.24,29.5Q311.42,280.11,308.52,281.25Z"/><g class="cls-4"><path class="cls-14" d="M308.52,281.25q-1.75.7-3.54,1.37a16.15,16.15,0,0,1-13.67-28.33q1.63-1,3.27-1.92t3-1.69a19.93,19.93,0,0,1,2.66-.75L314,278.34a19.92,19.92,0,0,1-2.24,1.61Q310.14,280.61,308.52,281.25Z"/></g><path class="cls-15" d="M314.46,280.74a12.62,12.62,0,0,1-1.25.52,18.21,18.21,0,0,1-15.77-32.67,12.59,12.59,0,0,1,1.18-.65l171.13-82.6.52-.24.42-.22c7.38-3.56,17.19.75,21.57,9.81s1.64,19.43-5.73,23l-.43.19-.51.26Z"/><g class="cls-4"><path class="cls-2" d="M384.72,217.13a4,4,0,0,1-2.14,5.24l-48.11,23.22a3.81,3.81,0,1,1-3.29-6.82l48.11-23.22A4,4,0,0,1,384.72,217.13Z"/></g><g class="cls-4"><path class="cls-2" d="M311.82,252.31a4,4,0,0,1,2.14-5.24l4.67-2.25a3.81,3.81,0,1,1,3.29,6.82l-4.67,2.25A4,4,0,0,1,311.82,252.31Z"/></g><path class="cls-6" d="M487,210.07c1.58-.63,5.78-2.84,5-5.68a4.34,4.34,0,0,0-.84-1.73c-1.77-2.34-6.12-.43-7.59.42l-74.94,36.17c-1.58.63-5.78,2.84-5,5.68a4.35,4.35,0,0,0,.84,1.73c1.77,2.34,6.12.43,7.59-.42Z"/><path class="cls-6" d="M419,230.34c-7.38,3.56-17.19-.75-21.57-9.81s-1.64-19.43,5.73-23l.43-.19.51-.26,18-8.69,32.6-15.74,18-8.69.52-.24.42-.22c7.38-3.56,17.19.75,21.57,9.81s1.64,19.43-5.73,23l-.43.19-.51.26-18,8.69-32.6,15.74-18,8.69-.52.24Z"/><ellipse class="cls-16" cx="483.98" cy="178.75" rx="12.51" ry="18.21" transform="translate(-29.59 228.15) rotate(-25.76)"/><g class="cls-17"><ellipse class="cls-18" cx="483.98" cy="178.75" rx="8.74" ry="12.73" transform="translate(-29.59 228.15) rotate(-25.76)"/></g><path class="cls-12" d="M484.85,164.2l-4.65,2.24h0l0,0c-4.35,2.1-5.39,8.93-2.34,15.26s9.06,9.76,13.4,7.66l0,0h0l4.65-2.24-1.09-2.26a16.56,16.56,0,0,0-8.88-18.4Z"/><ellipse class="cls-15" cx="490.38" cy="175.66" rx="8.74" ry="12.73" transform="translate(-27.61 230.62) rotate(-25.76)"/></svg>