<svg xmlns="http://www.w3.org/2000/svg" xmlns:xlink="http://www.w3.org/1999/xlink" viewBox="0 0 500 500"><defs><style>.cls-1{isolation:isolate;}.cls-2{fill:url(#Degradado_sin_nombre_51);}.cls-3{fill:#17a1a3;}.cls-4{fill:#fcc995;}.cls-5{fill:#fff;}.cls-6{fill:#32a8b7;}.cls-7{fill:#525864;}.cls-8{fill:#414d64;}.cls-9{fill:#595959;}.cls-10{fill:#919191;}.cls-11,.cls-12{fill:#f78c63;}.cls-12{opacity:0.3;}.cls-13{fill:#3a211a;}.cls-14{fill:#4a454c;}.cls-15{fill:#5eb5ac;}.cls-16{fill:#b2ccce;}.cls-17{fill:#97aeaf;}.cls-18{fill:#8c8c8c;}.cls-19{fill:#868686;}.cls-20{fill:#a4ac3d;}.cls-21{fill:#777;}.cls-22{fill:#6f6f6f;}.cls-23,.cls-26{opacity:0.2;}.cls-23,.cls-26,.cls-55{mix-blend-mode:multiply;}.cls-24{fill:#8e8e8e;}.cls-25{fill:#645f66;}.cls-26{fill:#b1b1b2;}.cls-27{fill:#86c142;}.cls-28{fill:#df9651;}.cls-29{fill:#f2b279;}.cls-30{fill:#d1493d;}.cls-31{fill:#4c8c9b;}.cls-32{fill:#ffd1a4;}.cls-33{fill:#d8b577;}.cls-34{fill:#f8938b;}.cls-35{fill:#f4f4f4;}.cls-36{fill:#81c9c3;}.cls-37{fill:#92d6ce;}.cls-38{fill:#69aaaf;}.cls-39{fill:#65a8ae;}.cls-40{fill:#f7c761;}.cls-41{fill:#69646b;}.cls-42{fill:#de5943;}.cls-43{fill:#b78f5e;}.cls-44{fill:#f9a18a;}.cls-45{fill:#878787;}.cls-46{fill:#939393;}.cls-47{fill:#a0a0a0;}.cls-48{fill:#998682;}.cls-49{fill:#594947;}.cls-50{fill:#cca576;}.cls-51{fill:#666;}.cls-52{fill:#ccc;}.cls-53{fill:#c73424;}.cls-54,.cls-55{fill:#b2b2b2;}.cls-55{opacity:0.5;}.cls-56{fill:#ffd061;}.cls-57{fill:#3f3f3f;}.cls-58{fill:#fff8e7;}.cls-59{fill:#aa4f0c;}.cls-60{fill:#ffa561;}.cls-61{fill:#1c1717;}</style><linearGradient id="Degradado_sin_nombre_51" x1="-6508.02" y1="214.39" x2="-6132.59" y2="366.31" gradientTransform="matrix(-1, 0, 0, 1, -6148.93, 0)" gradientUnits="userSpaceOnUse"><stop offset="0" stop-color="#00b300"/><stop offset="0.13" stop-color="#29cd2b"/><stop offset="0.29" stop-color="#53e857"/><stop offset="0.41" stop-color="#6df973"/><stop offset="0.49" stop-color="#77ff7d"/><stop offset="0.64" stop-color="#77ff87"/><stop offset="0.9" stop-color="#77ffa1"/><stop offset="1" stop-color="#77ffac"/></linearGradient></defs><title>8</title><g class="cls-1"><g id="Capa_1" data-name="Capa 1"><path class="cls-2" d="M36.85,297.6c0,107.39,82.13,121.15,207,121.15s290.37-47.59,230.08-144.6C417.24,182.94,455.6,85,231.22,85,106.37,85,36.85,190.21,36.85,297.6Z"/><path class="cls-3" d="M142.15,194.9s-37,34.45-43.63,40.8C81.93,251.6,72.15,261.39,60.28,274a22.08,22.08,0,0,1,8.42-1.69,17.31,17.31,0,0,1,6.41,1.48c9.57-10,19-19.23,33.68-33.26,6.45-6.18,43.14-41.56,43.14-41.56Z"/><path class="cls-4" d="M232.41,279.06l-2.57-1.15a2,2,0,0,0,2.61-1,2,2,0,0,0-1-2.63L219.55,269l6.11-1.33a2.11,2.11,0,1,0-.91-4.12s-10.12,2.29-10.59,2.44a5.86,5.86,0,0,0-1.27.66c-.24-.07-.77.37-1.4,1.07-9.81-8.36-17.36-14.27-31.33-18.56-1.67-14.82-8.32-16.36-10.69-26.18-2.52-10.43-5.76-21-22.58-22.22L134.07,196v-9.82c-2.26.54-13.27.84-15.67.84s-13.33-.3-15.57-.83V196l-11.48,3.3c-11.56.12-19.05,7.09-25.33,14.19-3.76,4.25-6.48,3-13.58,8.11-3.07-7.29-13.28-21.78-20.23-30.29.1-.15.8-.76.78-.84a5.67,5.67,0,0,0,.76-1.22c.18-.45,3.19-10.38,3.19-10.38a2.11,2.11,0,1,0-4-1.22l-1.77,6-4.44-12.24a2,2,0,0,0-2.55-1.19A2,2,0,0,0,23,172.75l-1-2.64a2,2,0,1,0-3.71,1.35L19,173.3a2,2,0,0,0-3.7,1.4l1.27,3.61a1.65,1.65,0,0,0-2.15-1,1.63,1.63,0,0,0-1,2.12l4.53,12.37a4.6,4.6,0,0,0,2.37,2.62c2.73,16.74,3,39.49,25.77,51.39,23.1-3.14,35.29-7.85,40.73-14.65.34,5.66,1.16,13.12,3.19,17.67,3.59,8.08,3.64,28.13,2.55,33.06-6.91,5.73-4.91,31.58-4.21,37.34S95.76,354,95.76,354A70.5,70.5,0,0,0,94,371.3c.4,8.42,8.44,30.89,8.44,34.09s-3.72,7.52-1.36,8.92c3.26,1.77,15.39,1.17,16.42-.11,2.09-2.57-3-7.29-3-11.34s4.27-31.31,4-35.46-4.14-13.08-4.14-13.08l4.29-33.76,13.39,30.56s-1.83,8.8-1.21,15.85c.53,6,12.91,27.11,16.41,35.43-1.51,4.1-4.44,13.55,6.34,11.4,7.62-1.52,15.4,2.19,21.32,1.66a11.12,11.12,0,0,0,6.46-3.29c1.52-1.61.87-3.94-2.25-3.78-5.1.29-12.3-2.45-15.77-4.77-4.57-3-4.95-7.23-5.45-10-2.31-12.63-6.81-38.94-5-43.12.37-6.4-9.83-62.47-9.83-62.47,0-3.17.63-31.87,3.93-38.89a35.29,35.29,0,0,0,2.67-9.78c4.5,13.92,10.8,15.22,14.47,24.78,11.67,9.76,20.9,11.88,43.68,14.6a4.68,4.68,0,0,0,2.55,2.77l12,5.42a1.67,1.67,0,0,0,1.36-3.06l3.51,1.54a2,2,0,0,0,1.66-3.6l1.8.82a2,2,0,1,0,1.62-3.61Z"/><path class="cls-5" d="M99.23,414.37h20.43c3.28,2.89-2.55,4.24-10.21,4.24S96,417.26,99.23,414.37Z"/><path class="cls-6" d="M119.66,414.37c2.09-3.79-.82-12.85-10.16-12.85s-12.36,9.06-10.27,12.85c0,0,2.3.85,9.82.85S119.66,414.37,119.66,414.37Z"/><path class="cls-7" d="M102,410.72c0,.58,3.32,0,7.42,0s7.44.58,7.44,0-3.33-1.82-7.44-1.82S102,410.15,102,410.72Z"/><path class="cls-5" d="M112.49,405a.63.63,0,1,0,.64-.62A.63.63,0,0,0,112.49,405Z"/><path class="cls-5" d="M105.12,405a.64.64,0,0,0,.65.65.63.63,0,1,0-.65-.65Z"/><path class="cls-5" d="M112.49,403.11a.63.63,0,1,0,1.27,0,.63.63,0,1,0-1.27,0Z"/><path class="cls-5" d="M105.12,403.11a.64.64,0,0,0,.65.63.63.63,0,0,0,.62-.63.63.63,0,0,0-.62-.63A.64.64,0,0,0,105.12,403.11Z"/><path class="cls-5" d="M112.49,406.81a.63.63,0,1,0,1.27,0,.63.63,0,1,0-1.27,0Z"/><path class="cls-5" d="M105.12,406.81a.64.64,0,0,0,.65.63.63.63,0,0,0,.62-.63.63.63,0,0,0-.62-.63A.64.64,0,0,0,105.12,406.81Z"/><path class="cls-5" d="M112.49,408.65a.63.63,0,1,0,.64-.62A.63.63,0,0,0,112.49,408.65Z"/><path class="cls-5" d="M105.12,408.65a.64.64,0,0,0,.65.65.63.63,0,1,0-.65-.65Z"/><path class="cls-7" d="M105.76,409a.31.31,0,0,1-.29-.23.3.3,0,0,1,.22-.37l6.23-1.56-6.27-1.56a.31.31,0,0,1-.23-.29.3.3,0,0,1,.23-.29l7.43-1.83a.31.31,0,0,1,.37.22.3.3,0,0,1-.22.37L107,404.94l6.25,1.55a.31.31,0,0,1,.23.29.29.29,0,0,1-.23.29l-7.41,1.86Z"/><path class="cls-7" d="M113.13,409h-.07l-7.41-1.86a.29.29,0,0,1-.23-.29.31.31,0,0,1,.23-.29l6.26-1.55-6.24-1.54a.3.3,0,0,1-.22-.37.31.31,0,0,1,.37-.22l7.43,1.83a.3.3,0,0,1,.23.29.31.31,0,0,1-.23.29L107,406.79l6.23,1.56a.3.3,0,0,1,.22.37A.31.31,0,0,1,113.13,409Z"/><path class="cls-5" d="M144,411.92l.23.06c.48.17,1,.33,1.59.48,15.43,4.38,36.12,2.13,39.14.08,2.71,2.77-2,5.29-7.73,5.56-3.47.16-8.14-.17-13-.31-5.32-.13-9.67.59-13.08.31-4.87-.38-7.61-2-7.83-3.44C143.15,413.51,143.93,412.56,144,411.92Z"/><path class="cls-6" d="M144,411.91c-.82-4-.23-8.67,2.66-11.87,1.93-1.83,2.23,4.35,7.14,4.63,5.33.32,3.81-5.34,7.3-4,1.4.54,2.82,2.18,9.31,4.94,2.79,1.18,4.89,1.8,9.85,1.49s6.16,1.57,4.72,5.46C181.85,414.68,159.58,417,144,411.91Z"/><path class="cls-7" d="M144.61,403.39c2.37.66,4.32,3.24,4.71,6.53a9.1,9.1,0,0,1-.21,3.35,51.48,51.48,0,0,1-5.09-1.36A15.29,15.29,0,0,1,144.61,403.39Z"/><path class="cls-7" d="M170.53,408a4.74,4.74,0,0,0,2.35-1.46,20,20,0,0,0,7.39.57h1.22c.4,1.41-.71,3.45-6.39,3.73C168.66,411.13,168.54,408.67,170.53,408Z"/><path class="cls-5" d="M167.8,408.45a.7.7,0,1,0,.73-.68A.71.71,0,0,0,167.8,408.45Z"/><path class="cls-5" d="M164.63,406.79a.7.7,0,0,0,.69.72.69.69,0,0,0,.71-.67.7.7,0,0,0-1.4,0Z"/><path class="cls-5" d="M161.55,405.05a.71.71,0,0,0,.69.72.71.71,0,0,0,0-1.41A.72.72,0,0,0,161.55,405.05Z"/><path class="cls-5" d="M158.42,403.31a.72.72,0,0,0,.69.73.73.73,0,0,0,.73-.68.71.71,0,0,0-1.42,0Z"/><path class="cls-7" d="M159.06,402.93l3.47-2a.36.36,0,0,1,.38,0,.37.37,0,0,1,.18.35l-.31,2.94,2.83-1.61a.42.42,0,0,1,.4,0,.4.4,0,0,1,.17.35l-.3,2.94,2.82-1.6a.36.36,0,0,1,.4,0,.38.38,0,0,1,.16.35l-.38,3.68a.38.38,0,0,1-.39.34h0a.37.37,0,0,1-.33-.41l.31-2.94L165.6,407h-.09a.33.33,0,0,1-.1,0h0a.39.39,0,0,1-.13-.07.24.24,0,0,1-.11-.1h0a.28.28,0,0,1,0-.13s0-.06,0-.1l.32-2.95-2.83,1.61s-.06,0-.09,0-.07,0-.12,0h0a.34.34,0,0,1-.13-.07.32.32,0,0,1-.11-.09l0,0s0-.06,0-.11,0-.07,0-.11l.3-2.94-2.82,1.61a.38.38,0,0,1-.51-.15A.37.37,0,0,1,159.06,402.93Z"/><path class="cls-8" d="M154.75,346.65c-.22-9.47-4.89-33.35-7.4-47.88-.94-5.44-2-11.49-3.51-11.38-36.52,2.73-47.14-9.22-51.31-9.22-5.8.21-9.67,37.54.49,75.65-3.1,19.75,2.54,51.94,2.54,51.94s8.88,2.15,23.19,0c.84-2.56,3.9-37.84-.89-52.23a139.61,139.61,0,0,1,2.4-24.66s7.59,16.69,9.8,21.76c-3.09,19.64,11,56.13,11,56.13a90,90,0,0,0,23.85-5.33C160.28,386.41,155,356.15,154.75,346.65Z"/><path class="cls-9" d="M180.15,249.13c-1.67-14.82-7.53-19.48-9.28-25.89-2.82-10.36-7.17-21.29-24-22.51l-9-3.3c-.14,6.67-8.73,12.07-19.31,12.07S99.26,204,99.26,197.25c0-.07,0-.15,0-.22l-7.93,2.28c-11.56.12-18.87,6.4-25.62,13-4.56,4.49-5.92,3.49-13,8.54C50,214.43,41.36,203,34.65,194.39l-13.58,5.23c2.24,16,4.53,35.49,25,46.21,23.1-3.14,35.29-7.85,40.73-14.65.34,5.66,1.16,13.12,3.19,17.67,3,6.84-2.48,32.74-3.06,41.63,4.4.67,24.6,4.1,59.46,1.65.06-5.66-2.44-36.25.7-42.94a35.29,35.29,0,0,0,2.67-9.78c4.5,13.92,12.57,21.73,14.47,24.78,10.82,9.06,19.57,11.53,39,14L208,264.77C199.76,257.93,192.43,252.89,180.15,249.13Z"/><path class="cls-10" d="M137.9,197.42c-.14,6.67-8.73,12.07-19.31,12.07S99.26,204,99.26,197.25c0-.07,0-.15,0-.22l-3,.88.6,3c2.13,6.18,9.63,10.74,19.09,11.48v28.27h5.58V212.35c9-.78,16.21-5.08,18.59-10.9l.82-2.92Z"/><path class="cls-7" d="M120.41,217.14a1.69,1.69,0,1,1-1.69-1.68A1.69,1.69,0,0,1,120.41,217.14Z"/><path class="cls-7" d="M120.41,225.76a1.69,1.69,0,1,1-1.69-1.68A1.69,1.69,0,0,1,120.41,225.76Z"/><path class="cls-7" d="M120.41,234.38a1.69,1.69,0,1,1-1.69-1.69A1.7,1.7,0,0,1,120.41,234.38Z"/><ellipse class="cls-11" cx="82.16" cy="168.4" rx="7.52" ry="10.03" transform="translate(-93.24 102.48) rotate(-43.39)"/><ellipse class="cls-11" cx="155.28" cy="168.4" rx="10.03" ry="7.52" transform="translate(-73.77 165.52) rotate(-46.6)"/><path class="cls-4" d="M85,171.07c-2.8-8.36-1.64-18.9,2.64-25,7.13-10.09,23.26-15.27,35.22-15.32,8.89,0,24.17,8.69,28.56,17.36,18.27,36-42.09,52.87-62.29,30.28A21,21,0,0,1,85,171.07Z"/><circle class="cls-12" cx="103.13" cy="170.11" r="8.09"/><path class="cls-13" d="M124.83,174.77c-4.28,2.23-11.91,2.85-13.21-3.15-.34-1.58-2.76-.91-2.42.67,1.66,7.72,11.2,7.62,16.89,4.65C127.53,176.18,126.26,174,124.83,174.77Z"/><ellipse class="cls-13" cx="108.75" cy="157.97" rx="2.49" ry="5.29"/><ellipse class="cls-13" cx="132.72" cy="157.97" rx="2.49" ry="5.29"/><circle class="cls-12" cx="137.69" cy="170.11" r="8.09"/><ellipse class="cls-11" cx="120.42" cy="165.66" rx="6.11" ry="3.05"/><circle class="cls-11" cx="114.62" cy="165.66" r="2.49"/><circle class="cls-11" cx="126.53" cy="165.66" r="2.49"/><path class="cls-14" d="M155,155c-1,4.08-2.26,6.06-3.84,10.14-1.24,2.91-5.25,7.32-10.84,11-1.47-2.68-6.91-10.16-20.55-6.24-13.56-3.9-19,3.5-20.51,6.21-5.57-3.71-9.58-8.1-10.8-11-1.61-4.08-2.86-6.06-3.87-10.14-.19.67-1.74,9.07-1.09,12.18,1,4.07,7.81,27.92,36.32,27.92s34-27.63,35-31.69A33.55,33.55,0,0,0,155,155Zm-44,17.54c2.68-.6,6.06-.84,8.31-1.75,2.24.91,5.64,1.16,8.31,1.75,4,.9,4.85,2.29,6,3.94a35.68,35.68,0,0,1-11.49,3.27h-5.58A35.39,35.39,0,0,1,105,176.48C106.12,174.83,107,173.47,111,172.57Z"/><path class="cls-14" d="M151.11,125.63c-5-7.56-10.53-7.82-10.32-13-5.16-.62-13.77.62-18.09,2.89a9.31,9.31,0,0,0,.38-4.34c-3.66.26-12.74,2.19-17,6a25.39,25.39,0,0,0,0-3.5C99.94,115.58,94,118.49,93,125c-3.79-.61-8.26,1-9.94,2.9a35.9,35.9,0,0,0,4.56.13,13.73,13.73,0,0,0-3.3,5.09c-4.49,13.46-2.89,27.43,1.13,31.68,1.56-7.09,4.74-17.54,16-22.12,15.49-3.43,24.78,4,34.32,3.44-1.16-1.29-2.57-3.95-4.52-5,13.8,1.9,19.51,14.53,21.71,23.24C155.35,158.38,159.51,138.23,151.11,125.63Z"/><path class="cls-15" d="M102.43,319.17c.51-4.55,1-18.05-3.09-25.1-4.41-7.63-16.72-16.11-21-18.65a19.93,19.93,0,0,0-9.67-3.08c-20.86,0-28.75,27.21-29.77,32A20.93,20.93,0,0,0,43,322.3c5,6.44,20.14,16.38,26.05,18.65a17.5,17.5,0,0,0,6.22,1H77C88,341.92,100.94,332.51,102.43,319.17Z"/><path class="cls-3" d="M85.78,288.67a.77.77,0,0,1-.54-.22,92,92,0,0,0-15.72-12.19,24.39,24.39,0,0,0-4-1.94.77.77,0,0,1-.46-1,.78.78,0,0,1,1-.45,24,24,0,0,1,4.28,2.06,93.47,93.47,0,0,1,16,12.41.77.77,0,0,1-.55,1.32Z"/><path class="cls-3" d="M77.39,340.18c-8.7-3.34-30.57-17.66-38.66-27.38A21.22,21.22,0,0,0,43,322.3c5,6.44,20.14,16.38,26.05,18.65a17.5,17.5,0,0,0,6.22,1H77a21.74,21.74,0,0,0,4.88-.6A20.53,20.53,0,0,1,77.39,340.18Z"/><path class="cls-3" d="M95.47,291.21c27.82-31.36,51.82-81.08,56.47-92.22l-9.79-4.08c-4.68,11.23-30.77,63.93-58.88,93.78-16.64,2.82-23.65,26.56-24.54,30.74-2.88,13.85,6.4,22.2,17.15,22.18h1.69c10.75,0,23.32-9.17,24.79-22.18C102.75,315.86,104.53,298.14,95.47,291.21Z"/><path class="cls-16" d="M365.28,279.31c-.49-4.12-.23-22.5.34-40.08a52.59,52.59,0,0,0-6.14.55,8.33,8.33,0,0,0-6.31,6.06c-1.63,3,0,27.8,2.1,31.07a10.59,10.59,0,0,0,7.28,6.35,37.66,37.66,0,0,0,3.89.39A15.28,15.28,0,0,1,365.28,279.31Z"/><path class="cls-17" d="M365.28,279.31c-.49-4.11-.23-22.45.34-40a6.76,6.76,0,0,0-.72,0l-1.15.06a5.41,5.41,0,0,0-1.44.32c-1,.48-2,2.94-2.29,5.94-1,3,.74,28.24,2.26,31.54.78,3.34,2.23,5.78,3.22,6.25a4.26,4.26,0,0,0,.9.22A15.47,15.47,0,0,1,365.28,279.31Z"/><path class="cls-18" d="M359.85,255.72a.53.53,0,0,1-.54-.52,95.12,95.12,0,0,1,.18-9.67c.27-2.71,1.18-5.73,2.58-6.38a.54.54,0,0,1,.73.26.55.55,0,0,1-.27.73c-.73.33-1.67,2.48-2,5.49a94.35,94.35,0,0,0-.17,9.53.56.56,0,0,1-.54.56Z"/><path class="cls-19" d="M365.28,279.31c-.24-1.93-.3-7-.24-13.69-4.31,0-8.64,0-13-.06a69.52,69.52,0,0,0,2.53,12.81,11.27,11.27,0,0,0,7.62,6.61,42.36,42.36,0,0,0,5.11.5A15.8,15.8,0,0,1,365.28,279.31Z"/><path class="cls-18" d="M360.88,255.27a.42.42,0,0,1-.44.43l-1.1,0a.45.45,0,0,1-.46-.43c0-.35,0-.71,0-1a.45.45,0,0,1,.44-.44l1.12,0a.45.45,0,0,1,.45.41Z"/><path class="cls-18" d="M361.23,261.17a.39.39,0,0,1-.4.43h-1.1a.5.5,0,0,1-.49-.43c-.12-1.52-.22-3-.3-4.58a.45.45,0,0,1,.44-.44h1.1a.46.46,0,0,1,.47.43C361,258.1,361.12,259.64,361.23,261.17Z"/><path class="cls-20" d="M360.76,257.21a.33.33,0,0,1-.34.34h-.86a.35.35,0,0,1-.37-.33c0-.17,0-.34,0-.51a.33.33,0,0,1,.34-.34h.86a.37.37,0,0,1,.37.33C360.75,256.87,360.75,257,360.76,257.21Z"/><path class="cls-21" d="M359.08,258.88c0,.77.1,1.52.16,2.29a.5.5,0,0,0,.49.43h1.1a.39.39,0,0,0,.4-.43c0-.78-.11-1.54-.16-2.3Z"/><path class="cls-18" d="M359.68,256.79a.37.37,0,0,1-.37-.33l0-.83a.32.32,0,0,1,.33-.34h.55a.35.35,0,0,1,.37.33c0,.28,0,.56,0,.84a.32.32,0,0,1-.33.33Z"/><path class="cls-22" d="M365.08,262.1l-13.43,0c.13,1.15.27,2.29.44,3.44l13,.07C365.05,264.49,365.06,263.32,365.08,262.1Z"/><path class="cls-16" d="M439.17,245.84a8.3,8.3,0,0,0-6.29-6.06,55.26,55.26,0,0,0-6.11-.55c.52,17.52.68,35.84.15,40.08a16.17,16.17,0,0,1-1.17,4.35,40.16,40.16,0,0,0,4.06-.4,10.59,10.59,0,0,0,7.28-6.35C439.16,273.64,440.81,248.81,439.17,245.84Z"/><path class="cls-17" d="M432.31,245.58c-.29-3-1.26-5.46-2.27-5.94a5.52,5.52,0,0,0-1.45-.32l-1.15-.06-.67,0c.52,17.5.68,35.77.15,40a16.32,16.32,0,0,1-1.15,4.31,4.62,4.62,0,0,0,1.07-.24c1-.48,2.45-2.91,3.23-6.25C431.59,273.82,433.36,248.58,432.31,245.58Z"/><path class="cls-18" d="M432.51,255.72h0a.56.56,0,0,1-.54-.56c.12-4.67-.07-8.5-.17-9.53-.32-3-1.24-5.16-2-5.49a.56.56,0,0,1-.27-.73.54.54,0,0,1,.72-.26c1.43.65,2.34,3.67,2.6,6.38a95.52,95.52,0,0,1,.18,9.67A.54.54,0,0,1,432.51,255.72Z"/><path class="cls-19" d="M427.27,265.62c0,6.62-.08,11.7-.34,13.69a16.85,16.85,0,0,1-2.07,6.19,47,47,0,0,0,5.28-.52,11.32,11.32,0,0,0,7.62-6.61,71.8,71.8,0,0,0,2.53-12.81C435.93,265.6,431.59,265.61,427.27,265.62Z"/><path class="cls-18" d="M431.46,255.27a.43.43,0,0,0,.44.43l1.12,0a.45.45,0,0,0,.45-.43c0-.35,0-.71,0-1a.43.43,0,0,0-.43-.44l-1.12,0a.45.45,0,0,0-.45.41C431.5,254.56,431.48,254.92,431.46,255.27Z"/><path class="cls-18" d="M433,256.15h-1.11a.47.47,0,0,0-.48.43c-.06,1.54-.16,3.07-.28,4.61a.4.4,0,0,0,.4.43h1.1a.47.47,0,0,0,.48-.43c.13-1.52.24-3,.3-4.58A.42.42,0,0,0,433,256.15Zm.17,1.07a.35.35,0,0,1-.37.33h-.88a.34.34,0,0,1-.33-.34c0-.17,0-.34,0-.52a.36.36,0,0,1,.37-.33h.87a.32.32,0,0,1,.33.34C433.19,256.88,433.18,257.05,433.17,257.22Z"/><path class="cls-21" d="M433.29,258.88c-.06.77-.11,1.52-.18,2.29a.47.47,0,0,1-.48.43h-1.1a.4.4,0,0,1-.4-.43c.06-.78.11-1.54.16-2.3Z"/><path class="cls-18" d="M432.66,256.79a.36.36,0,0,0,.38-.33l0-.83a.32.32,0,0,0-.34-.34h-.54a.37.37,0,0,0-.38.33c0,.28,0,.56,0,.84a.32.32,0,0,0,.33.33Z"/><path class="cls-22" d="M427.24,262.1c0,1.22,0,2.39,0,3.53l13-.07c.15-1.15.3-2.29.43-3.44Z"/><path class="cls-14" d="M426.92,279.31a17.11,17.11,0,0,1-14.34,14.61c-6.62.87-26.36.87-33,0-6.8-1-13.43-6.73-14.35-14.61s.85-67.6,2.34-74.64,6.76-12.82,13.54-13.83c6.61-.87,23.26-.87,29.85,0,6.79,1,11.71,6.4,13.55,13.83S428,271.21,426.92,279.31Z"/><g class="cls-23"><path class="cls-24" d="M365,265.62v.82c0-.27,0-.54,0-.82Z"/></g><path class="cls-25" d="M374.3,284.77c-.65-9,.62-77.58,1.66-85.66a30.5,30.5,0,0,1,1.83-7.33,17.56,17.56,0,0,0-10.17,12.88c-1.49,7-3.28,66.78-2.34,74.64A17.07,17.07,0,0,0,376.23,293,26.44,26.44,0,0,1,374.3,284.77Z"/><path class="cls-25" d="M424.57,204.66c-1.52-6.14-5.16-10.89-10.21-12.92a34.67,34.67,0,0,1,1.9,7.36c1.32,8.52,2.39,76.36,1.65,85.66A26.82,26.82,0,0,1,416,293a17,17,0,0,0,10.93-13.71C428,271.21,426.46,212.09,424.57,204.66Z"/><path class="cls-16" d="M418.46,215.73c-.82,6.36-13.36-1.48-22.61-1.48s-21.92,7.67-22.64,1.48.15-19.48,1.3-25,3.69-9.53,9-10.34a147.67,147.67,0,0,1,24.57,0c5.34.8,7.58,4.5,9,10.34S419.28,209.36,418.46,215.73Z"/><path class="cls-17" d="M374.52,190.71c-1.16,5.55-2,18.82-1.3,25,.26,2.27,2.15,2.67,4.85,2.28a169.53,169.53,0,0,1,4.27-37.38C377.84,181.82,375.56,185.59,374.52,190.71Z"/><path class="cls-17" d="M417.16,190.71c-1.32-5.33-3.32-8.86-7.71-10a169.91,169.91,0,0,1,4.27,37.44c2.63.37,4.46-.08,4.75-2.38C419.28,209.36,418.65,196.55,417.16,190.71Z"/><path class="cls-26" d="M426.92,272.9a17.12,17.12,0,0,1-14.34,14.6c-6.62.87-26.36.87-33,0-6.8-1-13.43-6.73-14.35-14.6-.15-1.15-.22-3.42-.26-6.45,0,6.25,0,11,.26,12.86.91,7.89,7.55,13.59,14.35,14.61,6.59.87,26.34.87,33,0a17.11,17.11,0,0,0,14.34-14.61c.28-2.14.38-8,.33-15.43C427.22,268.18,427.12,271.41,426.92,272.9Z"/><path class="cls-4" d="M372.56,201.12c-11.94-6.63-19.11,10.64-24.87,23-3.44,7.4-9.28,11.24-13.94,24.82-15.3,2-25.26,10.59-36.31,16.2A8.1,8.1,0,0,0,294.9,263c-.4-.19-9.4-3.06-9.4-3.06a1.92,1.92,0,0,0-2.41,1.23,2,2,0,0,0,1.26,2.43l5.43,1.68-11.2,3.86a1.8,1.8,0,0,0-1.13,2.29,1.83,1.83,0,0,0,2.29,1.12l-2.42.83a1.81,1.81,0,0,0-1.12,2.29,1.77,1.77,0,0,0,2.3,1.1l1.69-.58a1.8,1.8,0,0,0,1.22,3.39l3.3-1.1a1.49,1.49,0,0,0-.95,1.93,1.51,1.51,0,0,0,1.93.95L297,277.44a4.34,4.34,0,0,0,2.87-3.36c0-.15,0-.27.06-.39,17-4.47,37.4-9.08,41.29-11.75,5.77-8.15,12.37-13.3,20.94-25.85C370.42,223.95,384.87,208,372.56,201.12Z"/><path class="cls-27" d="M361.1,241.34c1.09-1.55,2.18-3.18,3.33-5,7.86-12.4,20.49-29.59,7.95-36-12.15-6.24-20.77,10.17-26.11,22.73a35.07,35.07,0,0,1-3.63,5.75C348.11,237,361.1,241.34,361.1,241.34Z"/><path class="cls-28" d="M331.25,125.75c-2.86-11.13-11.63-21-34.87-20.94-30.66,0-35.17,23.69-34.61,40v.12c1.68,23-7.76,21.1-3,44.64,3.11,15.16,0,22.59-6.79,29.72,8.7,6.14,30.75,7.41,44.75,7.09,14,.32,37.26-1.89,46-8-1.29-18.26-4.55-13.94-7.79-27.24-3.1-12.69,7.08-15.76,0-34.66C328.46,139.06,334.52,138.43,331.25,125.75Z"/><path class="cls-29" d="M236.84,221.26c5.17,15.61,11.05,32.57,20.92,37,2.92,1.33,3.78-1.32,4.3-2.25,6.26-11.59,7.95-30.35,9-39.89.33,0,.65-.06.93-.11a3.61,3.61,0,0,0,2.56-2.62l2.4-9.57a1.24,1.24,0,0,0-.91-1.51,1.25,1.25,0,0,0-1.52.91l.66-2.78a1.48,1.48,0,0,0-2.86-.76l.36-1.44a1.48,1.48,0,1,0-2.87-.71l-.5,2a1.54,1.54,0,0,0-1.09-1.8,1.5,1.5,0,0,0-1.8,1.11L264,208.38l-1.79-4.31a1.61,1.61,0,0,0-2.08-.85,1.58,1.58,0,0,0-.82,2.07s3,7.15,3.19,7.47a5.21,5.21,0,0,0,2.3,2.3c-2.63,8.31-6,15-9,25.23-8.36-14.92-4.78-21.21-11.5-30.88a11.07,11.07,0,0,0-5.58-4.51Z"/><path class="cls-30" d="M236.84,221.26c1.57,4.73,3.2,9.57,5,14.16l9.56-5.14c-2.73-8.36-2.05-13.69-7-20.87a11.07,11.07,0,0,0-5.58-4.51Z"/><path class="cls-31" d="M331.25,274.52c-4.35-9-37.14-75.72-47.84-75.72v2.27c6.48,0,30.19,42.15,45.39,73.6A5.18,5.18,0,0,1,331.25,274.52Z"/><path class="cls-32" d="M309.52,258.09l4.77-21.79a6.05,6.05,0,0,0,1-.36c5.55-2.77,6.75-9.45,2.73-15.44,0,0-.22-.23-.22-.23l3.45-15.71-18.78-4.64v-9.38a19.16,19.16,0,0,1-5.6,1,20.62,20.62,0,0,1-5.82-1v9.38l-18.87,4.64,3.43,15.63a2.2,2.2,0,0,1-.27.32c-4,6-2.82,12.68,2.72,15.44a5.69,5.69,0,0,0,1.09.39l4.77,21.77S272.65,268.67,270.15,289a397.13,397.13,0,0,0-3.34,54.12,15,15,0,0,0,.63,7.52c1.09,3.73,13.37,41.2,13.62,47.16s2.4,9.18,1,11.73c-2,3.56-1.56,4.22-.6,5.14.88.55,2,.67,4.39,0,1.27-.37,4.33-3.06,4.85-5.55.94-4.67-1.66-6.17-.07-14.15.68-3.44-1.05-5.84-4-5.84-3.83,0,.76-23.15-.37-34.29s-8-11.43-8-11.43,14.44-28.14,17.49-50l2.5.1.13,0,2.35,53.82a67.41,67.41,0,0,0-1.89,9.86c-.41,4.58,1.23,40.87-.18,48-.56,2.83-6.28,7.9-3.88,9.47h10.87c1.83-1.8-.66-3.69-.32-7.23,1-10.21,11.76-37.53,10.36-48a21.85,21.85,0,0,0-6-12.49s14.94-37,14.5-57.85S309.52,258.09,309.52,258.09Z"/><path class="cls-33" d="M302.49,193.89v-3.38a19.15,19.15,0,0,1-5.6,1,20.63,20.63,0,0,1-5.82-1v3.38a21,21,0,0,0,5.82,1A20.38,20.38,0,0,0,302.49,193.89Z"/><path class="cls-5" d="M294.4,414.69H307c2,2.29-1.57,4.06-6.31,4.06S292.38,417,294.4,414.69Z"/><path class="cls-34" d="M307,414.69c1.29-3-.51-10.2-6.28-10.2s-7.63,7.19-6.34,10.2c0,0,1.42,1.37,6.06,1.37S307,414.69,307,414.69Z"/><path class="cls-6" d="M296.13,411.79c0,.46,2,0,4.58,0s4.59.46,4.59,0-2.06-1.44-4.59-1.44S296.13,411.33,296.13,411.79Z"/><path class="cls-5" d="M302.71,407.21a.51.51,0,1,0,.51-.5A.51.51,0,0,0,302.71,407.21Z"/><path class="cls-5" d="M297.7,407.21a.5.5,0,1,0,.51-.5A.5.5,0,0,0,297.7,407.21Z"/><path class="cls-5" d="M302.71,405.74a.51.51,0,1,0,1,0,.51.51,0,0,0-1,0Z"/><path class="cls-5" d="M297.7,405.74a.5.5,0,1,0,1,0,.5.5,0,0,0-1,0Z"/><path class="cls-5" d="M302.71,408.68a.51.51,0,1,0,.51-.5A.51.51,0,0,0,302.71,408.68Z"/><path class="cls-5" d="M297.7,408.68a.5.5,0,1,0,.51-.5A.5.5,0,0,0,297.7,408.68Z"/><path class="cls-5" d="M302.71,410.15a.51.51,0,1,0,.51-.5A.52.52,0,0,0,302.71,410.15Z"/><path class="cls-5" d="M297.7,410.15a.5.5,0,1,0,1,0,.5.5,0,0,0-1,0Z"/><polygon class="cls-5" points="303.14 410.36 297.42 408.64 302.4 407.13 298.15 405.96 298.27 405.52 304.04 407.11 299.01 408.64 303.29 409.94 303.14 410.36 303.14 410.36"/><polygon class="cls-5" points="298.27 410.36 298.15 409.94 302.44 408.64 297.39 407.11 303.16 405.52 303.28 405.96 299.03 407.13 304 408.64 298.27 410.36 298.27 410.36"/><path class="cls-5" d="M281.16,399.7a41,41,0,0,0,1.32,8.76c-2.13,2.72-2.9,4.91-2.85,6.5a3.12,3.12,0,0,0,.57,1.89c5.68,2.68,9.74-2,11.16-6.08,1.58-4.49.1-9,1-16.17.34-2.74-.46-4.86-2.26-5.53-.56-.21-2.31-.43-2.92.22s.11,3.58-.11,5.79C286.46,400.67,281.13,399.22,281.16,399.7Z"/><path class="cls-34" d="M280.2,399a40.5,40.5,0,0,0,1.31,8.78c-3.16,4-2.61,6.42-1.66,7.35,5.69,2.67,9.08-2,10.5-6,1.58-4.49.39-8,.48-15.18a8,8,0,0,0-.73-4.08c-.72-.93-1.89-1.28-3.94-1.28-.86,0,.13,3.58-.1,5.79C285.5,400,280.18,398.5,280.2,399Z"/><path class="cls-6" d="M282.6,407.08a7.66,7.66,0,0,1-1.27-.08c.06.26.11.49.18.74a11.83,11.83,0,0,0-2.11,3.73l1,.34c1.83.48,5.18-.23,6.38-4.16S284.35,407.08,282.6,407.08Z"/><path class="cls-6" d="M290.1,389.84c-.63-.8-1.63-1.16-3.23-1.24h0a4.49,4.49,0,0,0,3.55,2A4.06,4.06,0,0,0,290.1,389.84Z"/><path class="cls-5" d="M280.25,400.06a.5.5,0,0,1-.43.56.49.49,0,0,1-.57-.43.5.5,0,0,1,.43-.55A.49.49,0,0,1,280.25,400.06Z"/><path class="cls-5" d="M285.19,399.35a.5.5,0,1,1-.55-.41A.48.48,0,0,1,285.19,399.35Z"/><path class="cls-5" d="M280.54,402.16a.5.5,0,0,1-1,.13.5.5,0,0,1,1-.13Z"/><path class="cls-5" d="M285.5,401.44a.5.5,0,0,1-.43.57.49.49,0,0,1-.57-.43.5.5,0,0,1,1-.15Z"/><path class="cls-5" d="M280.84,404.25a.5.5,0,1,1-.56-.41A.49.49,0,0,1,280.84,404.25Z"/><path class="cls-5" d="M285.8,403.54a.51.51,0,0,1-.43.57.5.5,0,1,1,.43-.57Z"/><polygon class="cls-5" points="280.47 404.53 280.24 404.14 284.42 401.6 279.69 400.36 279.81 399.92 285.58 401.43 280.47 404.53 280.47 404.53"/><polygon class="cls-5" points="285.24 403.83 279.46 402.32 284.57 399.24 284.81 399.63 280.63 402.16 285.36 403.4 285.24 403.83 285.24 403.83"/><path class="cls-5" d="M281.14,406.34a.5.5,0,0,1-.43.57.49.49,0,0,1-.57-.43.5.5,0,0,1,1-.15Z"/><path class="cls-5" d="M286.1,405.63a.5.5,0,0,1-.43.57.49.49,0,0,1-.57-.43.48.48,0,0,1,.43-.56A.5.5,0,0,1,286.1,405.63Z"/><polygon class="cls-5" points="280.77 406.62 280.53 406.23 285.18 403.43 285.42 403.82 280.77 406.62 280.77 406.62"/><polygon class="cls-5" points="285.55 405.93 280.29 404.55 280.41 404.11 285.67 405.49 285.55 405.93 285.55 405.93"/><path class="cls-35" d="M321.73,274.15c-2.89.38-14.43,2.19-25.27,2.19a153.56,153.56,0,0,1-23.23-2.12c-5.61,13.47-12.58,62-9.6,73.46S267,380.07,267,380.07s18.57,8.84,59.85.12C329.95,365.87,333.33,292,321.73,274.15Z"/><path class="cls-32" d="M345.6,245.63c-5.11-4.66-9.53-9.9-15.07-15.32A210.9,210.9,0,0,1,315.47,214c-5-6.2,2.43-13.7,9.3-7.31,5.53,5.14,9.36,13.33,15.35,19,8.42,8,14.29,14.54,14.29,14.54l6.74,1.4c11.92,2.07,22.28,9.09,31.85,13a7.2,7.2,0,0,1,2.18-2.95c.3-.22,7.29-3.67,7.29-3.67a1.57,1.57,0,0,1,2.12.7,1.61,1.61,0,0,1-.72,2.13l-4.22,2.07,9.63,1.74a1.48,1.48,0,0,1,1.21,1.72,1.52,1.52,0,0,1-1.72,1.21l2.07.38a1.47,1.47,0,0,1,1.21,1.72,1.48,1.48,0,0,1-1.73,1.19l-1.46-.27a1.48,1.48,0,0,1-.57,2.91l-2.83-.48a1.26,1.26,0,0,1-.43,2.48l-9.74-1.79a3.64,3.64,0,0,1-2.78-2.4,8.5,8.5,0,0,1-.17-.95c-10.28-2-35.28-9.14-40.46-11h0C348.87,249.46,347.55,247.43,345.6,245.63Z"/><path class="cls-32" d="M275.1,204.35c-2.44-.55-6.33.91-7.5,5.51-4.61,18.12-8.78,31.31-13.77,42.51-13.63,1.37-24.9,10-35.38,14.75a6,6,0,0,0-2.47-2.78c-.32-.17-7.4-3.39-7.4-3.39a1.6,1.6,0,0,0-2.09.77,1.62,1.62,0,0,0,.79,2.11l4.28,1.9-9.52,2.1a1.48,1.48,0,0,0-1.15,1.77,1.51,1.51,0,0,0,1.76,1.13l-2.05.44a1.49,1.49,0,0,0-1.13,1.78,1.47,1.47,0,0,0,1.77,1.12l1.44-.33a1.52,1.52,0,0,0-1.1,1.76,1.49,1.49,0,0,0,1.78,1.13l2.8-.59a1.25,1.25,0,0,0-.95,1.5,1.23,1.23,0,0,0,1.48,1l9.63-2.16a3.58,3.58,0,0,0,2.68-2.49,8.2,8.2,0,0,0,.19-1,375.07,375.07,0,0,0,40.52-12.72c2.54-1,2.77-3.49,3.88-5.9,5.58-12.19,9.81-24.77,15.14-43.91A4.83,4.83,0,0,0,275.1,204.35Z"/><path class="cls-36" d="M280.53,261.57c3.73,2.22,10.68,5.19,15.93,5.19,5.47,0,12.61-3.12,16.44-5.45,5.38-1.86,5.73-27.79,6.57-29.51,1.56-3.22,1.17-7.42-1.45-11.32,0,0-.22-.23-.22-.23-3.08-2.69,1.32-14.68,1.65-16.14l-10.15-2.52c-.73,7.29-6,13-12.34,13s-11.67-5.72-12.37-13.07L274.31,204c.32,1.46,4.32,13.46,1.29,16.17a2.2,2.2,0,0,1-.27.32c-2.95,4.38-3.09,9.12-.79,12.45C275.37,234.15,275.35,260,280.53,261.57Z"/><path class="cls-37" d="M300.85,263.26a3.59,3.59,0,1,1-3.59-3.6A3.59,3.59,0,0,1,300.85,263.26Z"/><path class="cls-37" d="M298.62,263.17c-2.25,1-2.4,9.74,1.76,21.57C302.62,278.83,307.73,259,298.62,263.17Z"/><path class="cls-37" d="M296.85,261.81c2.69.49.16,13.63-1.24,19.22s-2.14,10-1.51,12.07C287.11,287.94,287.1,260,296.85,261.81Z"/><polygon class="cls-37" points="291.55 222.88 278.94 222.88 278.94 235.18 285.25 238.8 291.55 235.18 291.55 222.88"/><polygon class="cls-37" points="315.48 222.88 302.86 222.88 302.86 235.18 309.17 238.8 315.48 235.18 315.48 222.88"/><circle class="cls-38" cx="296.67" cy="220.34" r="1.75"/><path class="cls-38" d="M298.43,231.54a1.75,1.75,0,1,1-1.76-1.77A1.75,1.75,0,0,1,298.43,231.54Z"/><path class="cls-38" d="M298.43,242.73a1.75,1.75,0,1,1-1.76-1.74A1.75,1.75,0,0,1,298.43,242.73Z"/><circle class="cls-38" cx="296.67" cy="253.93" r="1.75"/><path class="cls-31" d="M312.46,280.13a4.77,4.77,0,0,1,.74-.26l.7-.21c-7.3-13.12-34.35-74.66-30.48-78.59V198.8a2.19,2.19,0,0,0-2,1.15c-4.46,7.72,25.48,71.32,30.37,80.62A3.15,3.15,0,0,1,312.46,280.13Z"/><path class="cls-31" d="M313.2,279.87a4.77,4.77,0,0,0-.74.26c-5.68,2.49-2.84,22.6-.7,27.3,1.21,2.64,2.68,3.21,5.55,3.23a10.88,10.88,0,0,0,3.44-.62c2.61-.88,17.58-6,18.53-6.23,2.88-.76,5.39-3.17,5-5.75-1-7.68-5.92-18-10.21-22a4.93,4.93,0,0,0-5.29-1.41C328.6,274.72,315.19,279.37,313.2,279.87Z"/><path class="cls-36" d="M317.31,310.66c-2.86,0-4.34-.59-5.55-3.23-2.15-4.71-5-24.82.7-27.3,2.3-1,3.61.19,4.95,1.91,3.11,4,7.67,16.28,7.52,22.5C324.84,308.46,320.17,310.68,317.31,310.66Z"/><path class="cls-31" d="M313.2,279.87a4.77,4.77,0,0,0-.74.26,4.08,4.08,0,0,1,.79-.28Z"/><path class="cls-39" d="M334.09,276.08a4.93,4.93,0,0,0-5.29-1.41c-.21,0-13.29,4.59-15.52,5.18,1.8-.41,2.95.7,4.12,2.19,3.11,4,8.23,16.6,16.13,14.15S338.38,280.09,334.09,276.08Z"/><path class="cls-40" d="M334.18,291.29a1.66,1.66,0,1,1-1.66-1.66A1.67,1.67,0,0,1,334.18,291.29Z"/><path class="cls-41" d="M180,338.17c2.27-.6,5.39-1.35,5.71.69.24,1.51-2.29,2.89-13.4,6.18-8.08,2.39-8.78,2.71-9.67,1-.56-1.11,1.45-2.86,6.46-4.21C174.56,340.31,178.29,338.63,180,338.17Z"/><path class="cls-29" d="M242.61,288.12l-23.75,5.25c1.91,22.12,14.42,45.84,14.42,45.84l.78,1.84c-12.1-9.47-27.38,1.83-45.75,3.22-2.69.19-3.22-1.78-4.07-3.45-1.15-2.29-3.85-2.22-6.08-.57-3.85,2.83-7.84,2.6-10.24,3-2.64.5-4.49,2.78-4.58,3.79-.16,1.94,2.35,0,8.26,1.21,7.9,1.63,11,2.06,16.77,1.61,6.27-.48,41.4,1.38,50.2,1.74l0,.1a6.26,6.26,0,0,0,6.77-3.55C245.83,346.86,247.48,314.25,242.61,288.12Z"/><path class="cls-41" d="M172.14,342.09a1,1,0,0,0-1.15-.82c-.48.12-.88.41-.69,1.22.84,3.58-.07,5.33-1.08,5.51h0c-.29,0-.31-.13-.31-.13-.21,0-.76-.1-1.15-.1a1.62,1.62,0,0,0,1.54,1.33C171.47,349,173.15,346.36,172.14,342.09Z"/><path class="cls-14" d="M254,163.93c.21-18.75-6.41-42.93-38.49-42.93-30.56,0-44.84,28.19-51.11,45.43-5.39,14.83-2.65,32.26-8.78,43.34,11.26-2.68,11.95-17.09,17.67-21.17-10.52,17.24-7,25.63-19.7,30.62,18.49,4.33,28.78-7.3,31.58-11.21-2.16,4.62-6,12.52-18.06,18.28,8.92,2.75,16.23,2.17,26.1-5,8.25-6,12-14.7,15.64-19.48l.15,0c-2.3,4-2.87,11.13-9.93,17.77,6.08-.62,17.1-3.28,24.69-13.86-2.56,7.85-4,9-6.75,12.09C226.71,216.28,253.69,195,254,163.93Z"/><path class="cls-41" d="M193.32,398.6c-.2-2.34.32-5.17,3.88-5.62s5,2.24,6.67,13.72c.93,6.41,2.44,10.71-2,11.29-1.69.21-7-2.11-7.17-7.48A105.75,105.75,0,0,0,193.32,398.6Z"/><path class="cls-4" d="M236.84,221.26l-4.4,37.26s4.77,7.09,6.3,14.65c3.29,4,4.27,9.78,3.87,14.94l-24.84,5.48-4.37.06c1.09,22.84-3.82,48.62-3.82,48.62s.32,3.63.43,7.5c.08,2.95-4.16,30.95-6.16,43.91a38.77,38.77,0,0,0-.27,4.58c.49,5.86-.8,8.53-.17,11.35,1,4.45,1.56,7.56-.94,7.47-2.69-.08-6.31-3.08-6.67-5.57s.14-3.78-.29-7.17c-.17-1.38-.82-3.46-1-5.14-.32-3.75.21-5,3.12-5.34,3.78-.54-3.3-29.64-3.08-36.94a26.78,26.78,0,0,1,3.8-12.76s-9-45-9.21-55.13c-1.55-5.07.15-11,3.72-15.86,2.66-6.73,15.72-14.65,15.72-14.65L191.4,205.26l18.69-4.62v-8.5a20.69,20.69,0,0,0,5.72,1,19.44,19.44,0,0,0,5.64-1v8.53l17.32,4.25h0Z"/><path class="cls-42" d="M195,216.36l13.62,42.16s-13.05,7.92-15.72,14.65c-9.57,10.53-5.55,51.52-10.31,58.32,40.94,8.29,67.47,0,67.47,0,1.09-20.94-3.06-48.66-9.61-58.7a141.81,141.81,0,0,0-8-14.27l2.5-21.17h.63c9.83-4.83,5-14.18,1.35-16.81l1.85-15.65-11-2.72c-.82,5.64-6,10-12.32,10s-11.4-4.28-12.3-9.82l-3.63.89Z"/><path class="cls-43" d="M221.45,192.11a19.44,19.44,0,0,1-5.64,1,20.69,20.69,0,0,1-5.72-1V195a21.17,21.17,0,0,0,5.72,1,19.87,19.87,0,0,0,5.64-1Z"/><ellipse class="cls-44" cx="179.94" cy="174.76" rx="7.3" ry="9.73" transform="translate(-70.87 171.4) rotate(-43.39)"/><ellipse class="cls-44" cx="250.86" cy="174.76" rx="9.73" ry="7.3" transform="translate(-48.48 236.96) rotate(-46.6)"/><path class="cls-4" d="M182.72,177.35c-2.71-8.1-1.59-18.32,2.56-24.2,6.91-9.78,22.55-14.81,34.15-14.86,8.62,0,23.44,8.43,27.7,16.84,17.72,34.95-40.81,51.27-60.41,29.36A20.34,20.34,0,0,1,182.72,177.35Z"/><circle class="cls-12" cx="198.15" cy="175.79" r="8.09"/><path class="cls-13" d="M216.52,179.85c-4.28,2.23-11.91,2.85-13.21-3.15-.34-1.58-2.76-.91-2.42.67,1.66,7.72,11.2,7.62,16.89,4.65C219.22,181.26,217.95,179.1,216.52,179.85Z"/><ellipse class="cls-13" cx="203.77" cy="163.65" rx="2.49" ry="5.29"/><ellipse class="cls-13" cx="227.74" cy="163.65" rx="2.49" ry="5.29"/><circle class="cls-12" cx="232.71" cy="175.79" r="8.09"/><path class="cls-13" d="M229.27,164.38c2.3,1.25,4.43-.73,4.43-.73a9.24,9.24,0,0,1-5-1.58"/><path class="cls-13" d="M202.45,164.38c-2.3,1.25-4.43-.73-4.43-.73a9.24,9.24,0,0,0,5-1.58"/><ellipse class="cls-11" cx="215.11" cy="171.36" rx="5.96" ry="2.49"/><path class="cls-14" d="M187.71,147.46l-3,14s15.38-5,16.14-12.36c0,0,9.8,4.62,8.57,10,0,0,8.07-7.2,6.41-10.86,0,0,8.27,2.5,7,6.74,0,0,13.85-.5,9.83-12.71C232.71,142.31,211.73,125.35,187.71,147.46Z"/><path class="cls-4" d="M201,206.94c-7.69-19.84-14.36-31-21.6-43.38-1.43-2.46-2.4-5.42-4-7.9-5.44-8.54-12.37-16.94-20.82-28.22a4.34,4.34,0,0,0,.91-2.38c0-.39-.24-8.71-.24-8.71a1.7,1.7,0,0,0-1.74-1.65,1.72,1.72,0,0,0-1.64,1.76l.19,5-6.52-8.17a1.59,1.59,0,0,0-2.24-.27,1.62,1.62,0,0,0-.26,2.23l-1.4-1.75a1.59,1.59,0,1,0-2.48,2l1,1.24a1.58,1.58,0,0,0-2.46,2l1.89,2.43a1.35,1.35,0,0,0-1.89-.22,1.33,1.33,0,0,0-.21,1.88l6.63,8.25a3.83,3.83,0,0,0,3.66,1.4c.18,0,.4-.15.6-.22,6.59,9.34,10.15,20.82,14.77,27.77,2.87,4.3,6.26,5.64,8.69,9.91,6.49,11.42,9.52,21.76,16.41,40.56,1.23,3.35,5.2,7.49,9.94,5.3C200.62,214.68,201.92,209.44,201,206.94Z"/><path class="cls-42" d="M188.25,210.5c1.23,3.35,5.2,7.49,9.94,5.3,2.44-1.12,3.73-6.36,2.77-8.86-3.28-8.46-6.38-15.32-9.4-21.39h0l-10.36,5.34C183.22,196.44,185.41,202.74,188.25,210.5Z"/><path class="cls-41" d="M203.88,410.86l.46-.06c-.25-2-2.69-2.75-5.63-2.44l-.19,0c-2.65.34-3.5,1.37-3.36,2.88l.63,0c-.07-.72,1.16-1.38,3.06-1.59C201.51,409.34,203.78,410.06,203.88,410.86Z"/><path class="cls-4" d="M362.34,200.47a26,26,0,0,1,10.92-3.32c5.84-2,12-3.89,12-3.89v-7.69a27.55,27.55,0,0,0,19,0v7.65l8.57,2.86c4.88-3.74,11.91-4.3,20-9.14,4.45-2.66,5.06-4.11,8.28-6.37a27.87,27.87,0,0,0,10.84-15.07c3.19-11.1,10.29-20.85,14.48-29.59a8,8,0,0,1-2.35-2.3c-.23-.38-4-9-4-9a1.93,1.93,0,0,1,1-2.52,2,2,0,0,1,2.53,1l2.24,5.22,2.67-11.51a1.81,1.81,0,0,1,2.17-1.37,1.85,1.85,0,0,1,1.34,2.16l.57-2.47a1.79,1.79,0,1,1,3.5.8l-.41,1.74a1.8,1.8,0,0,1,3.49.86l-.76,3.39a1.51,1.51,0,1,1,2.95.68l-2.74,11.63a4.35,4.35,0,0,1-3.06,3.19c-.13,0-.27,0-.39.1-1.77,11.13-4,24.65-6.05,34a32.4,32.4,0,0,1-8,15.37c-8.28,8.81-10.83,16.53-22.75,22.11-8.23,3.84-12.46,9.69-14.12,14.66-.16,3.08-.77,10.26-3.08,15.66-1.35,3.13-2.37,35.84-2.37,35.84h0a26.75,26.75,0,0,1,2.72,24.48c2.39,15.29-3,30.61-3.5,44.08a51.32,51.32,0,0,0,1,10.47l.23.35a54.67,54.67,0,0,1,4.5,15.42,14.28,14.28,0,0,1,.22,2c.27,8.67-7,32.45-6.69,35.64s3.56,8.67-2.45,8.64c-2.24,0-9.68.08-16.49.08-2,0-2.38-2.24-.49-3.34a23,23,0,0,0,3.82-2.29c2.55-2.17,5.5-6.76,5.35-8.61-.34-4-3.58-32.13-3.68-33h0c-.15-4.14.94-14.13.94-14.13H404s-1.66-7-.93-10.16a102.16,102.16,0,0,1-5.18-41.24h-4.12c-.16,15.79-5.9,27.72-7.45,40.18a52.2,52.2,0,0,0,0,10.73l.07.1a50.91,50.91,0,0,1,3.13,15.78,11.58,11.58,0,0,1,0,1.6c-.4,8.42-9.67,32.45-9.67,35.64s2.84,8.67-3.17,8.64c-2.23,0-9.68.08-16.49.08-1.95,0-2.19-2.24-.21-3.34a25.45,25.45,0,0,0,4-2.29c2.72-2.17,6.06-6.76,6.06-8.61,0-4-1.06-28.71-.85-33l-.11,0c.22-4.14,2.18-14.13,2.18-14.13s-1-7,0-10.16a100.74,100.74,0,0,1-1.54-41.25l1.43-28.36s-1-32.25-2.9-36.31a29.93,29.93,0,0,1-1.73-4.9Z"/><path class="cls-45" d="M366.49,409.34a17.16,17.16,0,0,0-3.3-.12,40.78,40.78,0,0,0,5.2-5.11c2.84-3.06,7.53-1.84,6.51,1.62a15.22,15.22,0,0,1-3.91,5.8A8.34,8.34,0,0,0,366.49,409.34Z"/><path class="cls-46" d="M367.19,409.52c-.23-.06-.45-.13-.69-.18a16.74,16.74,0,0,0-4.42,0,23.51,23.51,0,0,0,5.22-4.75c.84-1.08,3.44-.21,3,.82A25,25,0,0,1,367.19,409.52Z"/><path class="cls-46" d="M368.43,409.9a39.32,39.32,0,0,1,4.57-5c1.21-1.08,9.26-1.19,9.58-.6.44.79,2.11,7.89-.4,12.08h-9.59v-.34C372.59,412.45,370.73,410.77,368.43,409.9Z"/><path class="cls-47" d="M355.95,416.42v-.34c0-4.62,2.95-6.12,6.07-6.74a17.11,17.11,0,0,1,4.47,0c3.13.62,6.09,2.12,6.09,6.74v.34Z"/><rect class="cls-48" x="355.24" y="416.42" width="27.69" height="1.58"/><path class="cls-45" d="M403.91,409.34a17.41,17.41,0,0,0-3.33-.12,35.72,35.72,0,0,0,4.8-5.11c2.62-3.06,7.4-1.84,6.64,1.62a13.84,13.84,0,0,1-3.46,5.8A9.09,9.09,0,0,0,403.91,409.34Z"/><path class="cls-46" d="M404.62,409.52c-.23-.06-.46-.13-.71-.18a16.75,16.75,0,0,0-4.42,0,20.49,20.49,0,0,0,4.83-4.75c.76-1.08,3.42-.21,3,.82A20.83,20.83,0,0,1,404.62,409.52Z"/><path class="cls-46" d="M405.89,409.9a35.14,35.14,0,0,1,4.18-5c1.12-1.08,9.18-1.19,9.54-.6.49.79,2.72,7.89.54,12.08h-9.59l0-.34A6.57,6.57,0,0,0,405.89,409.9Z"/><path class="cls-47" d="M393.92,416.42l0-.34c-.35-4.62,2.49-6.12,5.56-6.74a17.12,17.12,0,0,1,4.47,0c3.17.62,6.25,2.12,6.62,6.74l0,.34Z"/><polygon class="cls-48" points="420.9 416.42 421.02 418.01 393.33 418.01 393.21 416.42 420.9 416.42"/><path class="cls-49" d="M418.73,275.16s4.82,4.68,5.08,14.75a304,304,0,0,1-3.69,54.75s-7.25,1.43-19.6,0c-5.33-23-4.52-39.25-4.52-39.25h-1s-3.14,26.5-7.06,39.24c-1.48,0-6,2.07-19,0-4.47-29.83,2.22-69.5,2.22-69.5Z"/><path class="cls-49" d="M412,321.58V333a2.7,2.7,0,0,0,2.71,2.71h5.7a2.7,2.7,0,0,0,2.69-2.71V321.58Z"/><rect class="cls-49" x="411.08" y="315.52" width="13.04" height="6.06"/><path class="cls-49" d="M378.07,321.58V333a2.69,2.69,0,0,1-2.71,2.71h-5.7A2.7,2.7,0,0,1,367,333V321.58Z"/><rect class="cls-49" x="365.99" y="315.52" width="13.04" height="6.06"/><rect class="cls-49" x="392.36" y="275.16" width="5.71" height="30.23"/><path class="cls-49" d="M423.82,289.91c-.27-10.07-5.08-14.75-5.08-14.75h-5.09c0,5.24-.06,15.31,0,16-.23,8,3.16,12.32,10.2,13.08C423.91,299.65,424,294.86,423.82,289.91Z"/><path class="cls-49" d="M368,304.21c6.9-.82,10.84-5.08,10.6-13,0-.69,0-10.76,0-16h-7.37S369.08,287.83,368,304.21Z"/><path class="cls-27" d="M362.34,200.47a26,26,0,0,1,10.92-3.32c2.61-.89,5.24-1.74,7.4-2.44.81,5.69,6.94,10.14,14.47,10.14s13.43-4.28,14.43-9.81l3.23,1.08c4.88-3.74,19.36-10.11,19.59-10.25,0,0,4.61,1.94,8.62,8.6a22.08,22.08,0,0,1,3.27,12.37c-5.12,4.83-17,7.4-20.08,16.81-.16,3.08-.77,10.26-3.08,15.66-1.35,3.13,3.44,40.38.65,41.89,0,0-26.64,6.19-51.33.07a29.38,29.38,0,0,1,.79-6.13s-1-32.25-2.9-36.31a29.93,29.93,0,0,1-1.73-4.9Z"/><path class="cls-17" d="M425.67,261.74a10.47,10.47,0,0,0-1.84-7.11c-15.22-24-3-51.13-1.49-57.42.67-2.68-2.68-3.89-5.45-4s-5.61.08-6.27,2.75c-2.16,8.64-10.12,47,10.34,69.94C422.8,268,425.25,266.2,425.67,261.74Z"/><path class="cls-17" d="M366.08,261.74a10.53,10.53,0,0,1,1.83-7.11c15.25-24,3.06-51.13,1.49-57.42-.66-2.68,2.69-3.89,5.45-4s5.62.08,6.28,2.75c2.16,8.64,10.12,47-10.34,69.94C369,268,366.49,266.2,366.08,261.74Z"/><path class="cls-50" d="M404.22,188.52v-2.91a27.55,27.55,0,0,1-19,0v2.92a27.63,27.63,0,0,0,19,0Z"/><path class="cls-51" d="M394.64,227.05h0a.76.76,0,0,1-.7-.44c-.35-.78-1-1.88-1.74-3.26-3.36-6-9.63-17.16-9.63-29.94a.76.76,0,1,1,1.51,0c0,12.38,6.14,23.32,9.45,29.19.41.76.79,1.41,1.11,2,.3-.59.68-1.24,1.1-2,3.3-5.88,9.45-16.81,9.45-29.19a.76.76,0,1,1,1.51,0c0,12.79-6.27,23.94-9.63,29.94-.78,1.39-1.39,2.48-1.74,3.26A.75.75,0,0,1,394.64,227.05Z"/><path class="cls-52" d="M376.66,223.36a1,1,0,0,0,1,1h1.39v-2h-1.39A1,1,0,0,0,376.66,223.36Zm1.68,0a.66.66,0,0,1-1.32,0,.66.66,0,0,1,1.32,0Zm33.24-1h-1.39v2h1.39a1,1,0,1,0,0-2Zm0,1.68a.66.66,0,1,1,0-1.32.66.66,0,1,1,0,1.32Z"/><rect class="cls-53" x="381.93" y="218.28" width="1.62" height="0.66"/><rect class="cls-52" x="380.89" y="218.94" width="3.72" height="1.34"/><path class="cls-54" d="M391.84,220.28v-1.79a.29.29,0,0,0-.29-.29h-5.29a.29.29,0,0,0-.29.29v1.79Z"/><path class="cls-18" d="M389.76,220.28h.39v-1.86h-.39Zm-.69,0h.39v-1.86h-.39Zm1.38,0h.39v-1.86h-.39Zm.71-1.86v1.86h.38v-1.86Zm-3.47,1.86h.39v-1.86h-.39Zm-1.39,0h.39v-1.86h-.39Zm2.08,0h.39v-1.86h-.39Zm-1.39,0h.39v-1.86H387Z"/><path class="cls-55" d="M387.25,218.19h-1a.29.29,0,0,0-.29.29v1.79h1.28Z"/><path class="cls-56" d="M410.19,240a.76.76,0,0,1-.77.77H379.84a.76.76,0,0,1-.77-.77v-19a.77.77,0,0,1,.77-.78h29.58a.77.77,0,0,1,.77.78Z"/><rect class="cls-51" x="378.63" y="225.55" width="32" height="14.02"/><rect class="cls-54" x="395.45" y="221.24" width="7.42" height="3.56"/><rect class="cls-18" x="402.88" y="221.24" width="4.58" height="3.56"/><path class="cls-54" d="M403.81,235.84a7.36,7.36,0,0,1-1.38,1.51l.84.85a1,1,0,0,0,1.45-1.45Zm.66,2.11a.65.65,0,0,1-.93,0,.65.65,0,0,1,0-.94.65.65,0,0,1,.93,0A.67.67,0,0,1,404.47,238Z"/><circle class="cls-57" cx="397.77" cy="231.71" r="7.33"/><path class="cls-58" d="M404.63,231.71a6.86,6.86,0,1,1-6.86-6.86A6.86,6.86,0,0,1,404.63,231.71Z"/><ellipse class="cls-56" cx="397.77" cy="231.71" rx="5.54" ry="5.53"/><path class="cls-51" d="M402.22,231.71a4.44,4.44,0,1,1-4.45-4.45A4.45,4.45,0,0,1,402.22,231.71Z"/><path class="cls-18" d="M400,231.71a2.27,2.27,0,1,1-2.28-2.28A2.28,2.28,0,0,1,400,231.71Z"/><path class="cls-51" d="M392.83,223.35a1.3,1.3,0,1,1-1.3-1.3A1.31,1.31,0,0,1,392.83,223.35Z"/><path class="cls-27" d="M361.05,138h62.63s-.85-33.18-31.31-33.35S361.05,138,361.05,138Z"/><ellipse class="cls-11" cx="359.12" cy="165.92" rx="7.52" ry="10.03" transform="translate(-15.82 292.08) rotate(-43.39)"/><ellipse class="cls-11" cx="432.24" cy="165.92" rx="10.03" ry="7.52" transform="translate(14.71 365.98) rotate(-46.6)"/><path class="cls-4" d="M362,168.59c-2.8-8.36-1.64-18.9,2.64-25,7.13-10.09,23.26-15.27,35.22-15.32,8.89,0,24.17,8.69,28.56,17.36,18.27,36-42.09,52.87-62.29,30.28A21,21,0,0,1,362,168.59Z"/><circle class="cls-12" cx="378.85" cy="169.7" r="8.09"/><path class="cls-59" d="M360.23,164s-14.77-28.15,29.82-55.46c0,0,6.13-6.13,7.8-11.15,0,0,32.61,15.61,33.72,59.64,0,0-2-21.18-34.84-19C356.66,140.76,360.23,164,360.23,164Z"/><polygon class="cls-11" points="395.63 151.98 390.61 168.7 404.55 168.15 395.63 151.98"/><path class="cls-13" d="M397.22,173.75c-4.28,2.23-11.91,2.85-13.21-3.15-.34-1.58-2.76-.91-2.42.67,1.66,7.72,11.2,7.62,16.89,4.65C399.92,175.17,398.65,173,397.22,173.75Z"/><ellipse class="cls-13" cx="384.48" cy="157.56" rx="2.49" ry="5.29"/><ellipse class="cls-13" cx="408.45" cy="157.56" rx="2.49" ry="5.29"/><circle class="cls-12" cx="413.41" cy="169.7" r="8.09"/><ellipse class="cls-60" cx="261.21" cy="171.42" rx="7.3" ry="9.73" transform="translate(-46.36 226.31) rotate(-43.39)"/><ellipse class="cls-60" cx="332.12" cy="171.42" rx="9.73" ry="7.3" transform="translate(-20.62 294.96) rotate(-46.6)"/><path class="cls-32" d="M264,174c-2.71-8.1-1.59-18.32,2.56-24.2C273.46,140,289.1,135,300.7,135c8.62,0,23.44,8.43,27.7,16.84,17.72,34.95-40.81,51.27-60.41,29.36A20.34,20.34,0,0,1,264,174Z"/><path class="cls-28" d="M298.66,131.61s-11.31,29.2-37.46,27.45c0,0,5.74-17.67,7.69-18.57S298.66,131.61,298.66,131.61Z"/><circle class="cls-12" cx="279.42" cy="172.45" r="8.09"/><path class="cls-11" d="M296.19,154.74l-3.39,16.66L303,171l-3.35-2.82c-2-1.41-1.78-3.59-2.19-6Z"/><path class="cls-13" d="M297.78,176.51c-4.28,2.23-11.91,2.85-13.21-3.15-.34-1.58-2.76-.91-2.42.67,1.66,7.72,11.2,7.62,16.89,4.65C300.48,177.92,299.21,175.76,297.78,176.51Z"/><ellipse class="cls-13" cx="285.04" cy="160.31" rx="2.49" ry="5.29"/><ellipse class="cls-13" cx="309.01" cy="160.31" rx="2.49" ry="5.29"/><circle class="cls-12" cx="313.97" cy="172.45" r="8.09"/><path class="cls-13" d="M310.53,161c2.3,1.25,4.43-.73,4.43-.73a9.24,9.24,0,0,1-5-1.58"/><path class="cls-13" d="M283.72,161c-2.3,1.25-4.43-.73-4.43-.73a9.24,9.24,0,0,0,5-1.58"/><path class="cls-61" d="M150.34,151c-1-.29-14.3-4.08-23.63-1.27a5.27,5.27,0,0,0-2.37,1.4,6.78,6.78,0,0,1-7.85,0,5.09,5.09,0,0,0-2.35-1.4c-9.34-2.82-22.66,1-23.63,1.27s0,4.33.71,4.33,1.29,0,1.38,1.62c.29,5.16,2.24,11.13,12.18,11.13,8.36,0,11.56-3.23,12.64-8.37.26-1.18.84-4.39,3-4.39s2.77,3.24,3,4.49c1.1,5.09,4.29,8.28,12.64,8.28,9.93,0,11.87-6,12.15-11.13.1-1.66.68-1.62,1.39-1.62S151.29,151.29,150.34,151Zm-45.61,15c-8.09,0-9.76-4.34-9.76-10.84,0-.63.16-2.77,2.06-3.16,0,0,0,0,.09,0a31.08,31.08,0,0,1,8.23-1,32.66,32.66,0,0,1,8.53,1.06l.06,0c1.54.34,1.55,2.94,1.55,3.06C115.21,162.48,113.54,166,104.73,166Zm31.39,0c-8.81,0-10.5-3.53-10.76-10.89,0-.12,0-2.72,1.56-3.06l.06,0A32.61,32.61,0,0,1,135.5,151a31.44,31.44,0,0,1,8.24,1l.07,0c1.91.39,2,2.52,2,3.16C145.87,161.68,144.22,166,136.11,166Z"/></g></g></svg>