<svg id="Capa_1" data-name="Capa 1" xmlns="http://www.w3.org/2000/svg" xmlns:xlink="http://www.w3.org/1999/xlink" viewBox="0 0 500 500"><defs><style>.cls-1{fill:url(#Degradado_sin_nombre_51);}.cls-2{fill:#fff;}.cls-3{fill:#33e7c5;}.cls-4{opacity:0.3;}.cls-5{fill:#373737;}.cls-6{fill:#19e5b2;}.cls-7{opacity:0.6;}.cls-8{fill:#bfbfbf;}.cls-9{opacity:0.2;}.cls-10{opacity:0.7;}.cls-11{fill:#2be799;}.cls-12{fill:#14b868;}.cls-13{fill:#1af06c;}.cls-14{fill:#111;}.cls-15{fill:#28e9b6;}.cls-16{fill:#18d68d;}.cls-17{opacity:0.5;}.cls-18{fill:#0c0c0c;}</style><linearGradient id="Degradado_sin_nombre_51" x1="-1734.83" y1="293.13" x2="-1374.27" y2="199.4" gradientTransform="translate(1894.15)" gradientUnits="userSpaceOnUse"><stop offset="0" stop-color="#00b300"/><stop offset="0.13" stop-color="#29cd2b"/><stop offset="0.29" stop-color="#53e857"/><stop offset="0.41" stop-color="#6df973"/><stop offset="0.49" stop-color="#77ff7d"/><stop offset="0.64" stop-color="#77ff87"/><stop offset="0.9" stop-color="#77ffa1"/><stop offset="1" stop-color="#77ffac"/></linearGradient></defs><title>5</title><path class="cls-1" d="M492.2,297.16C453.26,409.29,379,417.07,318.55,417.07c-113.06,0-247.27-21.95-237-132.8C90.92,183.43,205.15,82.93,318.2,82.93S528.72,192,492.2,297.16Z"/><rect class="cls-2" x="146.58" y="145.84" width="273.37" height="225.11"/><rect class="cls-3" x="146.58" y="131.7" width="273.37" height="39.75"/><g class="cls-4"><rect class="cls-5" x="146.58" y="168.07" width="273.37" height="7.87"/></g><rect class="cls-6" x="146.58" y="166.01" width="273.37" height="7.61"/><g class="cls-7"><ellipse class="cls-5" cx="172.29" cy="139.87" rx="6.34" ry="5.85"/></g><rect class="cls-8" x="167.05" y="119.63" width="10.46" height="23.68" rx="5.07" ry="5.07"/><g class="cls-7"><ellipse class="cls-5" cx="204" cy="140" rx="6.34" ry="5.85"/></g><rect class="cls-8" x="198.76" y="119.75" width="10.46" height="23.68" rx="5.07" ry="5.07"/><g class="cls-7"><ellipse class="cls-5" cx="235.81" cy="140" rx="6.34" ry="5.85"/></g><rect class="cls-8" x="230.58" y="119.75" width="10.46" height="23.68" rx="5.07" ry="5.07"/><g class="cls-7"><ellipse class="cls-5" cx="267.42" cy="139.87" rx="6.34" ry="5.85"/></g><rect class="cls-8" x="262.18" y="119.63" width="10.46" height="23.68" rx="5.07" ry="5.07"/><g class="cls-7"><ellipse class="cls-5" cx="299.13" cy="140" rx="6.34" ry="5.85"/></g><rect class="cls-8" x="293.89" y="119.75" width="10.46" height="23.68" rx="5.07" ry="5.07"/><g class="cls-7"><ellipse class="cls-5" cx="330.94" cy="140" rx="6.34" ry="5.85"/></g><rect class="cls-8" x="325.71" y="119.75" width="10.46" height="23.68" rx="5.07" ry="5.07"/><g class="cls-7"><ellipse class="cls-5" cx="362.53" cy="140" rx="6.34" ry="5.85"/></g><rect class="cls-8" x="357.3" y="119.75" width="10.46" height="23.68" rx="5.07" ry="5.07"/><g class="cls-7"><ellipse class="cls-5" cx="394.24" cy="140.12" rx="6.34" ry="5.85"/></g><rect class="cls-8" x="389.01" y="119.87" width="10.46" height="23.68" rx="5.07" ry="5.07"/><g class="cls-9"><rect class="cls-5" x="196.95" y="196.89" width="21.86" height="21.86" rx="4.23" ry="4.23"/></g><g class="cls-9"><rect class="cls-5" x="234.65" y="196.89" width="21.86" height="21.86" rx="4.23" ry="4.23"/></g><g class="cls-9"><rect class="cls-5" x="272.33" y="196.89" width="21.86" height="21.86" rx="4.23" ry="4.23"/></g><g class="cls-9"><rect class="cls-5" x="310.02" y="196.89" width="21.86" height="21.86" rx="4.23" ry="4.23"/></g><g class="cls-4"><rect class="cls-5" x="347.71" y="196.89" width="21.86" height="21.86" rx="4.23" ry="4.23"/></g><g class="cls-10"><rect class="cls-11" x="385.4" y="196.89" width="21.86" height="21.86" rx="4.23" ry="4.23"/></g><g class="cls-9"><rect class="cls-5" x="159.27" y="229.32" width="21.86" height="21.86" rx="4.23" ry="4.23"/></g><g class="cls-9"><rect class="cls-5" x="196.95" y="229.32" width="21.86" height="21.86" rx="4.23" ry="4.23"/></g><g class="cls-9"><rect class="cls-5" x="234.65" y="229.32" width="21.86" height="21.86" rx="4.23" ry="4.23"/></g><g class="cls-9"><rect class="cls-5" x="272.33" y="229.32" width="21.86" height="21.86" rx="4.23" ry="4.23"/></g><g class="cls-9"><rect class="cls-5" x="310.02" y="229.32" width="21.86" height="21.86" rx="4.23" ry="4.23"/></g><g class="cls-4"><rect class="cls-5" x="347.71" y="229.32" width="21.86" height="21.86" rx="4.23" ry="4.23"/></g><g class="cls-10"><rect class="cls-11" x="385.4" y="229.32" width="21.86" height="21.86" rx="4.23" ry="4.23"/></g><g class="cls-9"><rect class="cls-5" x="159.27" y="261.76" width="21.86" height="21.86" rx="4.23" ry="4.23"/></g><g class="cls-9"><rect class="cls-5" x="196.95" y="261.76" width="21.86" height="21.86" rx="4.23" ry="4.23"/></g><g class="cls-9"><rect class="cls-5" x="234.65" y="261.76" width="21.86" height="21.86" rx="4.23" ry="4.23"/></g><g class="cls-9"><rect class="cls-5" x="272.33" y="261.76" width="21.86" height="21.86" rx="4.23" ry="4.23"/></g><g class="cls-9"><rect class="cls-5" x="310.02" y="261.76" width="21.86" height="21.86" rx="4.23" ry="4.23"/></g><g class="cls-4"><rect class="cls-5" x="347.71" y="261.76" width="21.86" height="21.86" rx="4.23" ry="4.23"/></g><g class="cls-10"><rect class="cls-11" x="385.4" y="261.76" width="21.86" height="21.86" rx="4.23" ry="4.23"/></g><g class="cls-9"><rect class="cls-5" x="159.27" y="294.19" width="21.86" height="21.86" rx="4.23" ry="4.23"/></g><g class="cls-9"><rect class="cls-5" x="196.95" y="294.19" width="21.86" height="21.86" rx="4.23" ry="4.23"/></g><g class="cls-9"><rect class="cls-5" x="234.65" y="294.19" width="21.86" height="21.86" rx="4.23" ry="4.23"/></g><g class="cls-9"><rect class="cls-5" x="272.33" y="294.19" width="21.86" height="21.86" rx="4.23" ry="4.23"/></g><g class="cls-9"><rect class="cls-5" x="310.02" y="294.19" width="21.86" height="21.86" rx="4.23" ry="4.23"/></g><g class="cls-4"><rect class="cls-5" x="347.71" y="294.19" width="21.86" height="21.86" rx="4.23" ry="4.23"/></g><g class="cls-10"><rect class="cls-11" x="385.4" y="294.19" width="21.86" height="21.86" rx="4.23" ry="4.23"/></g><g class="cls-9"><rect class="cls-5" x="159.27" y="326.63" width="21.86" height="21.86" rx="4.23" ry="4.23"/></g><g class="cls-9"><rect class="cls-5" x="196.96" y="326.63" width="21.86" height="21.86" rx="4.23" ry="4.23"/></g><g class="cls-9"><rect class="cls-5" x="234.65" y="326.63" width="21.86" height="21.86" rx="4.23" ry="4.23"/></g><g class="cls-9"><rect class="cls-5" x="272.34" y="326.63" width="21.86" height="21.86" rx="4.23" ry="4.23"/></g><path class="cls-6" d="M283.43,320.08a14.76,14.76,0,1,1,13.88-9.68,1.06,1.06,0,0,1-2-.73,12.62,12.62,0,1,0-4.11,5.63,1.06,1.06,0,1,1,1.3,1.67,14.68,14.68,0,0,1-5.06,2.55A14.83,14.83,0,0,1,283.43,320.08Z"/><polygon class="cls-12" points="25.07 216 15.31 222.76 29.52 229.62 39.28 222.86 25.07 216"/><path class="cls-13" d="M223.68,299c.91.49,3.19,1.34,3.79.12s-1.5-2.48-2.45-2.89l-4.8-2.32a1.6,1.6,0,1,0-1.34,2.77Z"/><path class="cls-6" d="M172.8,288.83a133.63,133.63,0,0,0,48.74,9.57l1.66-3.44a133.63,133.63,0,0,0-37.82-32.21q-2.43-1.41-4.87-2.69l-12.85,26.62Q170.19,287.8,172.8,288.83Z"/><g class="cls-4"><path class="cls-14" d="M172.8,288.83q1.58.64,3.2,1.23a14.57,14.57,0,0,0,12.34-25.57q-1.47-.89-3-1.74t-2.71-1.53a18,18,0,0,0-2.4-.68L167.9,286.21a18,18,0,0,0,2,1.46Q171.35,288.26,172.8,288.83Z"/></g><path class="cls-15" d="M167.44,288.37a11.39,11.39,0,0,0,1.13.47,16.43,16.43,0,0,0,14.23-29.48,11.36,11.36,0,0,0-1.07-.59L27.29,184.22l-.47-.21-.38-.2c-6.66-3.21-15.52.68-19.46,8.86s-1.48,17.53,5.17,20.75l.39.17.46.24Z"/><g class="cls-4"><path class="cls-2" d="M104,231A3.63,3.63,0,0,0,106,235.7l43.42,21a3.44,3.44,0,1,0,3-6.16l-43.42-21A3.63,3.63,0,0,0,104,231Z"/></g><g class="cls-4"><path class="cls-2" d="M169.83,262.72a3.63,3.63,0,0,0-1.94-4.73l-4.21-2a3.44,3.44,0,1,0-3,6.16l4.21,2A3.63,3.63,0,0,0,169.83,262.72Z"/></g><path class="cls-6" d="M11.73,224.6C10.3,224,6.51,222,7.17,219.47a3.92,3.92,0,0,1,.76-1.56c1.59-2.11,5.52-.39,6.85.38L82.4,250.93c1.42.57,5.22,2.57,4.55,5.13a3.92,3.92,0,0,1-.76,1.56c-1.59,2.11-5.52.38-6.85-.38Z"/><path class="cls-6" d="M73.11,242.89c6.66,3.21,15.52-.68,19.46-8.86s1.48-17.53-5.17-20.75l-.39-.17-.46-.24L70.29,205l-29.42-14.2L24.61,183l-.47-.21-.38-.2c-6.66-3.21-15.52.68-19.46,8.86S2.82,209,9.47,212.18l.39.17.46.24,16.26,7.85L56,234.63l16.26,7.85.47.21Z"/><ellipse class="cls-16" cx="14.46" cy="196.33" rx="16.44" ry="11.29" transform="translate(-168.64 124.01) rotate(-64.24)"/><g class="cls-17"><ellipse class="cls-18" cx="14.46" cy="196.33" rx="11.48" ry="7.89" transform="translate(-168.64 124.01) rotate(-64.24)"/></g><path class="cls-12" d="M13.67,183.2l4.2,2h0l0,0c3.92,1.89,4.87,8.06,2.11,13.77s-8.17,8.81-12.1,6.91l0,0h0l-4.2-2,1-2a13.73,13.73,0,0,1,1.14-9.68,13.73,13.73,0,0,1,6.87-6.92Z"/><ellipse class="cls-15" cx="8.68" cy="193.55" rx="11.48" ry="7.89" transform="translate(-169.4 117.24) rotate(-64.24)"/></svg>