<svg xmlns="http://www.w3.org/2000/svg" xmlns:xlink="http://www.w3.org/1999/xlink" viewBox="0 0 500 500"><defs><style>.cls-1{isolation:isolate;}.cls-2{fill:url(#Degradado_sin_nombre_51);}.cls-3{fill:#b2ccce;}.cls-4{fill:#97aeaf;}.cls-5{fill:#8c8c8c;}.cls-6{fill:#868686;}.cls-7{fill:#a4ac3d;}.cls-8{fill:#777;}.cls-9{fill:#6f6f6f;}.cls-10{fill:#4a454c;}.cls-11,.cls-14{opacity:0.2;}.cls-11,.cls-14,.cls-40{mix-blend-mode:multiply;}.cls-12{fill:#8e8e8e;}.cls-13{fill:#645f66;}.cls-14{fill:#b1b1b2;}.cls-15{fill:#fcc995;}.cls-16{fill:#86c142;}.cls-17{fill:#df9651;}.cls-18{fill:#4c8c9b;}.cls-19{fill:#ffd1a4;}.cls-20{fill:#d8b577;}.cls-21{fill:#fff;}.cls-22{fill:#f8938b;}.cls-23{fill:#32a8b7;}.cls-24{fill:#f4f4f4;}.cls-25{fill:#81c9c3;}.cls-26{fill:#92d6ce;}.cls-27{fill:#69aaaf;}.cls-28{fill:#65a8ae;}.cls-29{fill:#f7c761;}.cls-30{fill:#878787;}.cls-31{fill:#939393;}.cls-32{fill:#a0a0a0;}.cls-33{fill:#998682;}.cls-34{fill:#594947;}.cls-35{fill:#cca576;}.cls-36{fill:#666;}.cls-37{fill:#ccc;}.cls-38{fill:#c73424;}.cls-39,.cls-40{fill:#b2b2b2;}.cls-40{opacity:0.5;}.cls-41{fill:#ffd061;}.cls-42{fill:#3f3f3f;}.cls-43{fill:#fff8e7;}.cls-44,.cls-45{fill:#f78c63;}.cls-45{opacity:0.3;}.cls-46{fill:#aa4f0c;}.cls-47{fill:#3a211a;}.cls-48{fill:#ffa561;}</style><linearGradient id="Degradado_sin_nombre_51" x1="177.99" y1="403.39" x2="346.87" y2="110.89" gradientUnits="userSpaceOnUse"><stop offset="0" stop-color="#00b300"/><stop offset="0.13" stop-color="#29cd2b"/><stop offset="0.29" stop-color="#53e857"/><stop offset="0.41" stop-color="#6df973"/><stop offset="0.49" stop-color="#77ff7d"/><stop offset="0.64" stop-color="#77ff87"/><stop offset="0.9" stop-color="#77ffa1"/><stop offset="1" stop-color="#77ffac"/></linearGradient></defs><title>9</title><g class="cls-1"><g id="Capa_1" data-name="Capa 1"><path class="cls-2" d="M416.56,256.92c0,87.43-45.19,159.15-132.62,159.15S83.44,380.6,83.44,293.17,171.54,80.6,259,80.6,416.56,169.49,416.56,256.92Z"/><path class="cls-3" d="M271.56,269c-.49-4.12-.23-22.5.34-40.08a52.59,52.59,0,0,0-6.14.55,8.33,8.33,0,0,0-6.31,6.06c-1.63,3,0,27.8,2.1,31.07a10.59,10.59,0,0,0,7.28,6.35,37.66,37.66,0,0,0,3.89.39A15.28,15.28,0,0,1,271.56,269Z"/><path class="cls-4" d="M271.56,269c-.49-4.11-.23-22.45.34-40a6.76,6.76,0,0,0-.72,0L270,229a5.41,5.41,0,0,0-1.44.32c-1,.48-2,2.94-2.29,5.94-1,3,.74,28.24,2.26,31.54.78,3.34,2.23,5.78,3.22,6.25a4.26,4.26,0,0,0,.9.22A15.47,15.47,0,0,1,271.56,269Z"/><path class="cls-5" d="M266.13,245.37a.53.53,0,0,1-.54-.52,95.12,95.12,0,0,1,.18-9.67c.27-2.71,1.18-5.73,2.58-6.38a.54.54,0,0,1,.73.26.55.55,0,0,1-.27.73c-.73.33-1.67,2.48-2,5.49a94.35,94.35,0,0,0-.17,9.53.56.56,0,0,1-.54.56Z"/><path class="cls-6" d="M271.56,269c-.24-1.93-.3-7-.24-13.69-4.31,0-8.64,0-13-.06A69.52,69.52,0,0,0,260.9,268a11.27,11.27,0,0,0,7.62,6.61,42.36,42.36,0,0,0,5.11.5A15.8,15.8,0,0,1,271.56,269Z"/><path class="cls-5" d="M267.16,244.92a.42.42,0,0,1-.44.43l-1.1,0a.45.45,0,0,1-.46-.43c0-.35,0-.71,0-1a.45.45,0,0,1,.44-.44l1.12,0a.45.45,0,0,1,.45.41Z"/><path class="cls-5" d="M267.51,250.82a.39.39,0,0,1-.4.43H266a.5.5,0,0,1-.49-.43c-.12-1.52-.22-3-.3-4.58a.45.45,0,0,1,.44-.44h1.1a.46.46,0,0,1,.47.43C267.3,247.75,267.4,249.28,267.51,250.82Z"/><path class="cls-7" d="M267,246.86a.33.33,0,0,1-.34.34h-.86a.35.35,0,0,1-.37-.33c0-.17,0-.34,0-.51a.33.33,0,0,1,.34-.34h.86a.37.37,0,0,1,.37.33C267,246.52,267,246.69,267,246.86Z"/><path class="cls-8" d="M265.36,248.53c0,.77.1,1.52.16,2.29a.5.5,0,0,0,.49.43h1.1a.39.39,0,0,0,.4-.43c0-.78-.11-1.54-.16-2.3Z"/><path class="cls-5" d="M266,246.44a.37.37,0,0,1-.37-.33l0-.83a.32.32,0,0,1,.33-.34h.55a.35.35,0,0,1,.37.33c0,.28,0,.56,0,.84a.32.32,0,0,1-.33.33Z"/><path class="cls-9" d="M271.36,251.75l-13.43,0c.13,1.15.27,2.29.44,3.44l13,.07C271.33,254.13,271.34,253,271.36,251.75Z"/><path class="cls-3" d="M345.45,235.49a8.3,8.3,0,0,0-6.29-6.06,55.26,55.26,0,0,0-6.11-.55c.52,17.52.68,35.84.15,40.08a16.17,16.17,0,0,1-1.17,4.35,40.16,40.16,0,0,0,4.06-.4,10.59,10.59,0,0,0,7.28-6.35C345.44,263.29,347.09,238.46,345.45,235.49Z"/><path class="cls-4" d="M338.59,235.23c-.29-3-1.26-5.46-2.27-5.94a5.52,5.52,0,0,0-1.45-.32l-1.15-.06-.67,0c.52,17.5.68,35.77.15,40a16.32,16.32,0,0,1-1.15,4.31,4.62,4.62,0,0,0,1.07-.24c1-.48,2.45-2.91,3.23-6.25C337.87,263.47,339.64,238.23,338.59,235.23Z"/><path class="cls-5" d="M338.79,245.37h0a.56.56,0,0,1-.54-.56c.12-4.67-.07-8.5-.17-9.53-.32-3-1.24-5.16-2-5.49a.56.56,0,0,1-.27-.73.54.54,0,0,1,.72-.26c1.43.65,2.34,3.67,2.6,6.38a95.52,95.52,0,0,1,.18,9.67A.54.54,0,0,1,338.79,245.37Z"/><path class="cls-6" d="M333.54,255.27c0,6.62-.08,11.7-.34,13.69a16.85,16.85,0,0,1-2.07,6.19,47,47,0,0,0,5.28-.52A11.32,11.32,0,0,0,344,268a71.8,71.8,0,0,0,2.53-12.81C342.21,255.24,337.87,255.26,333.54,255.27Z"/><path class="cls-5" d="M337.74,244.92a.43.43,0,0,0,.44.43l1.12,0a.45.45,0,0,0,.45-.43c0-.35,0-.71,0-1a.43.43,0,0,0-.43-.44l-1.12,0a.45.45,0,0,0-.45.41C337.77,244.21,337.76,244.57,337.74,244.92Z"/><path class="cls-5" d="M339.27,245.8h-1.11a.47.47,0,0,0-.48.43c-.06,1.54-.16,3.07-.28,4.61a.4.4,0,0,0,.4.43h1.1a.47.47,0,0,0,.48-.43c.13-1.52.24-3,.3-4.58A.42.42,0,0,0,339.27,245.8Zm.17,1.07a.35.35,0,0,1-.37.33h-.88a.34.34,0,0,1-.33-.34c0-.17,0-.34,0-.52a.36.36,0,0,1,.37-.33h.87a.32.32,0,0,1,.33.34C339.47,246.53,339.46,246.7,339.44,246.87Z"/><path class="cls-8" d="M339.57,248.53c-.06.77-.11,1.52-.18,2.29a.47.47,0,0,1-.48.43h-1.1a.4.4,0,0,1-.4-.43c.06-.78.11-1.54.16-2.3Z"/><path class="cls-5" d="M338.94,246.44a.36.36,0,0,0,.38-.33l0-.83a.32.32,0,0,0-.34-.34h-.54a.37.37,0,0,0-.38.33c0,.28,0,.56,0,.84a.32.32,0,0,0,.33.33Z"/><path class="cls-9" d="M333.52,251.75c0,1.22,0,2.39,0,3.53l13-.07c.15-1.15.3-2.29.43-3.44Z"/><path class="cls-10" d="M333.2,269a17.11,17.11,0,0,1-14.34,14.61c-6.62.87-26.36.87-33,0-6.8-1-13.43-6.73-14.35-14.61s.85-67.6,2.34-74.64,6.76-12.82,13.54-13.83c6.61-.87,23.26-.87,29.85,0,6.79,1,11.71,6.4,13.55,13.83S334.24,260.86,333.2,269Z"/><g class="cls-11"><path class="cls-12" d="M271.31,255.27v.82c0-.27,0-.54,0-.82Z"/></g><path class="cls-13" d="M280.58,274.42c-.65-9,.62-77.58,1.66-85.66a30.5,30.5,0,0,1,1.83-7.33,17.56,17.56,0,0,0-10.17,12.88c-1.49,7-3.28,66.78-2.34,74.64a17.07,17.07,0,0,0,10.95,13.7A26.44,26.44,0,0,1,280.58,274.42Z"/><path class="cls-13" d="M330.85,194.31c-1.52-6.14-5.16-10.89-10.21-12.92a34.67,34.67,0,0,1,1.9,7.36c1.32,8.52,2.39,76.36,1.65,85.66a26.82,26.82,0,0,1-1.91,8.25A17,17,0,0,0,333.2,269C334.24,260.86,332.74,201.73,330.85,194.31Z"/><path class="cls-3" d="M324.74,205.38c-.82,6.36-13.36-1.48-22.61-1.48s-21.92,7.67-22.64,1.48.15-19.48,1.3-25,3.69-9.53,9-10.34a147.67,147.67,0,0,1,24.57,0c5.34.8,7.58,4.5,9,10.34S325.56,199,324.74,205.38Z"/><path class="cls-4" d="M280.8,180.36c-1.16,5.55-2,18.82-1.3,25,.26,2.27,2.15,2.67,4.85,2.28a169.53,169.53,0,0,1,4.27-37.38C284.12,171.47,281.84,175.24,280.8,180.36Z"/><path class="cls-4" d="M323.44,180.36c-1.32-5.33-3.32-8.86-7.71-10A169.91,169.91,0,0,1,320,207.76c2.63.37,4.46-.08,4.75-2.38C325.56,199,324.93,186.19,323.44,180.36Z"/><path class="cls-14" d="M333.2,262.55a17.12,17.12,0,0,1-14.34,14.6c-6.62.87-26.36.87-33,0-6.8-1-13.43-6.73-14.35-14.6-.15-1.15-.22-3.42-.26-6.45,0,6.25,0,11,.26,12.86.91,7.89,7.55,13.59,14.35,14.61,6.59.87,26.34.87,33,0A17.11,17.11,0,0,0,333.2,269c.28-2.14.38-8,.33-15.43C333.5,257.83,333.4,261.06,333.2,262.55Z"/><path class="cls-15" d="M278.84,190.76c-11.94-6.63-19.11,10.64-24.87,23-3.44,7.4-9.28,11.24-13.94,24.82-15.3,2-25.26,10.59-36.31,16.2a8.1,8.1,0,0,0-2.54-2.11c-.4-.19-9.4-3.06-9.4-3.06a1.92,1.92,0,0,0-2.41,1.23,2,2,0,0,0,1.26,2.43l5.43,1.68-11.2,3.86a1.8,1.8,0,0,0-1.13,2.29,1.83,1.83,0,0,0,2.29,1.12l-2.42.83a1.81,1.81,0,0,0-1.12,2.29,1.77,1.77,0,0,0,2.3,1.1l1.69-.58a1.8,1.8,0,0,0,1.22,3.39l3.3-1.1a1.49,1.49,0,0,0-.95,1.93A1.51,1.51,0,0,0,192,271l11.31-3.95a4.34,4.34,0,0,0,2.87-3.36c0-.15,0-.27.06-.39,17-4.47,37.4-9.08,41.29-11.75,5.77-8.15,12.37-13.3,20.94-25.85C276.7,213.59,291.15,197.6,278.84,190.76Z"/><path class="cls-16" d="M267.38,231c1.09-1.55,2.18-3.18,3.33-5,7.86-12.4,20.49-29.59,7.95-36-12.15-6.24-20.77,10.17-26.11,22.73a35.07,35.07,0,0,1-3.63,5.75C254.39,226.64,267.38,231,267.38,231Z"/><path class="cls-17" d="M237.53,115.4c-2.86-11.13-11.63-21-34.87-20.94-30.66,0-35.17,23.69-34.61,40v.12c1.68,23-7.76,21.1-3,44.64,3.11,15.16,0,22.59-6.79,29.72C167,215,189,216.3,203,216c14,.32,37.26-1.89,46-8-1.29-18.26-4.55-13.94-7.79-27.24-3.1-12.69,7.08-15.76,0-34.66C234.74,128.71,240.8,128.08,237.53,115.4Z"/><path class="cls-18" d="M237.53,264.17c-4.35-9-37.14-75.72-47.84-75.72v2.27c6.48,0,30.19,42.15,45.39,73.6A5.18,5.18,0,0,1,237.53,264.17Z"/><path class="cls-19" d="M215.8,247.74l4.77-21.79a6.05,6.05,0,0,0,1-.36c5.55-2.77,6.75-9.45,2.73-15.44,0,0-.22-.23-.22-.23l3.45-15.71-18.78-4.64v-9.38a19.16,19.16,0,0,1-5.6,1,20.62,20.62,0,0,1-5.82-1v9.38l-18.87,4.64,3.43,15.63a2.2,2.2,0,0,1-.27.32c-4,6-2.82,12.68,2.72,15.44a5.69,5.69,0,0,0,1.09.39l4.77,21.77s-11.26,10.58-13.76,30.89a397.13,397.13,0,0,0-3.34,54.12,15,15,0,0,0,.63,7.52c1.09,3.73,13.37,41.2,13.62,47.16s2.4,9.18,1,11.73c-2,3.56-1.56,4.22-.6,5.14.88.55,2,.67,4.39,0,1.27-.37,4.33-3.06,4.85-5.55.94-4.67-1.66-6.17-.07-14.15.68-3.44-1.05-5.84-4-5.84-3.83,0,.76-23.15-.37-34.29s-8-11.43-8-11.43,14.44-28.14,17.49-50l2.5.1.13,0L207,336.91a67.41,67.41,0,0,0-1.89,9.86c-.41,4.58,1.23,40.87-.18,48-.56,2.83-6.28,7.9-3.88,9.47H211.9c1.83-1.8-.66-3.69-.32-7.23,1-10.21,11.76-37.53,10.36-48a21.85,21.85,0,0,0-6-12.49s14.94-37,14.5-57.85S215.8,247.74,215.8,247.74Z"/><path class="cls-20" d="M208.77,183.54v-3.38a19.15,19.15,0,0,1-5.6,1,20.63,20.63,0,0,1-5.82-1v3.38a21,21,0,0,0,5.82,1A20.38,20.38,0,0,0,208.77,183.54Z"/><path class="cls-21" d="M200.68,404.34H213.3c2,2.29-1.57,4.06-6.31,4.06S198.66,406.63,200.68,404.34Z"/><path class="cls-22" d="M213.3,404.34c1.29-3-.51-10.2-6.28-10.2s-7.63,7.19-6.34,10.2c0,0,1.42,1.37,6.06,1.37S213.3,404.34,213.3,404.34Z"/><path class="cls-23" d="M202.41,401.44c0,.46,2,0,4.58,0s4.59.46,4.59,0S209.52,400,207,400,202.41,401,202.41,401.44Z"/><path class="cls-21" d="M209,396.86a.51.51,0,1,0,.51-.5A.51.51,0,0,0,209,396.86Z"/><path class="cls-21" d="M204,396.86a.5.5,0,1,0,.51-.5A.5.5,0,0,0,204,396.86Z"/><path class="cls-21" d="M209,395.39a.51.51,0,1,0,1,0,.51.51,0,0,0-1,0Z"/><path class="cls-21" d="M204,395.39a.5.5,0,1,0,1,0,.5.5,0,0,0-1,0Z"/><path class="cls-21" d="M209,398.33a.51.51,0,1,0,.51-.5A.51.51,0,0,0,209,398.33Z"/><path class="cls-21" d="M204,398.33a.5.5,0,1,0,.51-.5A.5.5,0,0,0,204,398.33Z"/><path class="cls-21" d="M209,399.79a.51.51,0,1,0,.51-.5A.52.52,0,0,0,209,399.79Z"/><path class="cls-21" d="M204,399.79a.5.5,0,1,0,1,0,.5.5,0,0,0-1,0Z"/><polygon class="cls-21" points="209.43 400.01 203.7 398.29 208.68 396.78 204.43 395.61 204.55 395.17 210.31 396.76 205.29 398.29 209.57 399.59 209.43 400.01 209.43 400.01"/><polygon class="cls-21" points="204.55 400.01 204.43 399.59 208.72 398.29 203.67 396.76 209.44 395.17 209.56 395.61 205.31 396.78 210.28 398.29 204.55 400.01 204.55 400.01"/><path class="cls-21" d="M187.44,389.35a41,41,0,0,0,1.32,8.76c-2.13,2.72-2.9,4.91-2.85,6.5a3.12,3.12,0,0,0,.57,1.89c5.68,2.68,9.74-2,11.16-6.08,1.58-4.49.1-9,1-16.17.34-2.74-.46-4.86-2.26-5.53-.56-.21-2.31-.43-2.92.22s.11,3.58-.11,5.79C192.74,390.32,187.41,388.87,187.44,389.35Z"/><path class="cls-22" d="M186.48,388.62a40.5,40.5,0,0,0,1.31,8.78c-3.16,4-2.61,6.42-1.66,7.35,5.69,2.67,9.08-2,10.5-6,1.58-4.49.39-8,.48-15.18a8,8,0,0,0-.73-4.08c-.72-.93-1.89-1.28-3.94-1.28-.86,0,.13,3.58-.1,5.79C191.78,389.6,186.46,388.15,186.48,388.62Z"/><path class="cls-23" d="M188.88,396.73a7.66,7.66,0,0,1-1.27-.08c.06.26.11.49.18.74a11.83,11.83,0,0,0-2.11,3.73l1,.34c1.83.48,5.18-.23,6.38-4.16S190.63,396.73,188.88,396.73Z"/><path class="cls-23" d="M196.38,379.49c-.63-.8-1.63-1.16-3.23-1.24h0a4.49,4.49,0,0,0,3.55,2A4.06,4.06,0,0,0,196.38,379.49Z"/><path class="cls-21" d="M186.53,389.71a.5.5,0,0,1-.43.56.49.49,0,0,1-.57-.43.5.5,0,0,1,.43-.55A.49.49,0,0,1,186.53,389.71Z"/><path class="cls-21" d="M191.47,389a.5.5,0,1,1-.55-.41A.48.48,0,0,1,191.47,389Z"/><path class="cls-21" d="M186.82,391.81a.5.5,0,0,1-1,.13.5.5,0,0,1,1-.13Z"/><path class="cls-21" d="M191.78,391.09a.5.5,0,0,1-.43.57.49.49,0,0,1-.57-.43.5.5,0,0,1,1-.15Z"/><path class="cls-21" d="M187.12,393.89a.5.5,0,1,1-.56-.41A.49.49,0,0,1,187.12,393.89Z"/><path class="cls-21" d="M192.08,393.19a.51.51,0,0,1-.43.57.5.5,0,1,1,.43-.57Z"/><polygon class="cls-21" points="186.75 394.18 186.51 393.78 190.7 391.25 185.97 390.01 186.09 389.57 191.86 391.08 186.75 394.18 186.75 394.18"/><polygon class="cls-21" points="191.52 393.48 185.74 391.97 190.85 388.88 191.09 389.27 186.91 391.81 191.63 393.05 191.52 393.48 191.52 393.48"/><path class="cls-21" d="M187.42,396a.5.5,0,0,1-.43.57.49.49,0,0,1-.57-.43.5.5,0,0,1,1-.15Z"/><path class="cls-21" d="M192.38,395.28a.5.5,0,0,1-.43.57.49.49,0,0,1-.57-.43.48.48,0,0,1,.43-.56A.5.5,0,0,1,192.38,395.28Z"/><polygon class="cls-21" points="187.05 396.27 186.81 395.88 191.46 393.08 191.7 393.47 187.05 396.27 187.05 396.27"/><polygon class="cls-21" points="191.83 395.58 186.57 394.2 186.69 393.76 191.95 395.14 191.83 395.58 191.83 395.58"/><path class="cls-24" d="M228,263.8c-2.89.38-14.43,2.19-25.27,2.19a153.56,153.56,0,0,1-23.23-2.12c-5.61,13.47-12.58,62-9.6,73.46s3.35,32.39,3.35,32.39,18.57,8.84,59.85.12C236.23,355.52,239.61,281.68,228,263.8Z"/><path class="cls-19" d="M251.88,235.28c-5.11-4.66-9.53-9.9-15.07-15.32a210.9,210.9,0,0,1-15.07-16.31c-5-6.2,2.43-13.7,9.3-7.31,5.53,5.14,9.36,13.33,15.35,19,8.42,8,14.29,14.54,14.29,14.54l6.74,1.4c11.92,2.07,22.28,9.09,31.85,13a7.2,7.2,0,0,1,2.18-2.95c.3-.22,7.29-3.67,7.29-3.67a1.57,1.57,0,0,1,2.12.7,1.61,1.61,0,0,1-.72,2.13l-4.22,2.07,9.63,1.74a1.48,1.48,0,0,1,1.21,1.72,1.52,1.52,0,0,1-1.72,1.21l2.07.38a1.47,1.47,0,0,1,1.21,1.72,1.48,1.48,0,0,1-1.73,1.19l-1.46-.27a1.48,1.48,0,0,1-.57,2.91l-2.83-.48a1.26,1.26,0,0,1-.43,2.48l-9.74-1.79a3.64,3.64,0,0,1-2.78-2.4,8.5,8.5,0,0,1-.17-.95c-10.28-2-35.28-9.14-40.46-11h0C255.15,239.11,253.83,237.08,251.88,235.28Z"/><path class="cls-19" d="M181.38,194c-2.44-.55-6.33.91-7.5,5.51-4.61,18.12-8.78,31.31-13.77,42.51-13.63,1.37-24.9,10-35.38,14.75a6,6,0,0,0-2.47-2.78c-.32-.17-7.4-3.39-7.4-3.39a1.6,1.6,0,0,0-2.09.77,1.62,1.62,0,0,0,.79,2.11l4.28,1.9-9.52,2.1a1.48,1.48,0,0,0-1.15,1.77,1.51,1.51,0,0,0,1.76,1.13l-2.05.44a1.49,1.49,0,0,0-1.13,1.78,1.47,1.47,0,0,0,1.77,1.12l1.44-.33a1.52,1.52,0,0,0-1.1,1.76,1.49,1.49,0,0,0,1.78,1.13l2.8-.59a1.25,1.25,0,0,0-.95,1.5,1.23,1.23,0,0,0,1.48,1l9.63-2.16a3.58,3.58,0,0,0,2.68-2.49,8.2,8.2,0,0,0,.19-1A375.07,375.07,0,0,0,166,249.81c2.54-1,2.77-3.49,3.88-5.9,5.58-12.19,9.81-24.77,15.14-43.91A4.83,4.83,0,0,0,181.38,194Z"/><path class="cls-25" d="M186.81,251.22c3.73,2.22,10.68,5.19,15.93,5.19,5.47,0,12.61-3.12,16.44-5.45,5.38-1.86,5.73-27.79,6.57-29.51,1.56-3.22,1.17-7.42-1.45-11.32,0,0-.22-.23-.22-.23-3.08-2.69,1.32-14.68,1.65-16.14l-10.15-2.52c-.73,7.29-6,13-12.34,13s-11.67-5.72-12.37-13.07l-10.27,2.51c.32,1.46,4.32,13.46,1.29,16.17a2.2,2.2,0,0,1-.27.32c-2.95,4.38-3.09,9.12-.79,12.45C181.65,223.8,181.63,249.66,186.81,251.22Z"/><path class="cls-26" d="M207.13,252.9a3.59,3.59,0,1,1-3.59-3.6A3.59,3.59,0,0,1,207.13,252.9Z"/><path class="cls-26" d="M204.9,252.82c-2.25,1-2.4,9.74,1.76,21.57C208.9,268.48,214,248.66,204.9,252.82Z"/><path class="cls-26" d="M203.13,251.45c2.69.49.16,13.63-1.24,19.22s-2.14,10-1.51,12.07C193.39,277.59,193.38,249.67,203.13,251.45Z"/><polygon class="cls-26" points="197.83 212.53 185.22 212.53 185.22 224.83 191.53 228.45 197.83 224.83 197.83 212.53"/><polygon class="cls-26" points="221.76 212.53 209.14 212.53 209.14 224.83 215.45 228.45 221.76 224.83 221.76 212.53"/><circle class="cls-27" cx="202.95" cy="209.99" r="1.75"/><path class="cls-27" d="M204.71,221.19a1.75,1.75,0,1,1-1.76-1.77A1.75,1.75,0,0,1,204.71,221.19Z"/><path class="cls-27" d="M204.71,232.38a1.75,1.75,0,1,1-1.76-1.74A1.75,1.75,0,0,1,204.71,232.38Z"/><circle class="cls-27" cx="202.95" cy="243.58" r="1.75"/><path class="cls-18" d="M218.74,269.77a4.77,4.77,0,0,1,.74-.26l.7-.21c-7.3-13.12-34.35-74.66-30.48-78.59v-2.27a2.19,2.19,0,0,0-2,1.15c-4.46,7.72,25.48,71.32,30.37,80.62A3.15,3.15,0,0,1,218.74,269.77Z"/><path class="cls-18" d="M219.48,269.52a4.77,4.77,0,0,0-.74.26c-5.68,2.49-2.84,22.6-.7,27.3,1.21,2.64,2.68,3.21,5.55,3.23a10.88,10.88,0,0,0,3.44-.62c2.61-.88,17.58-6,18.53-6.23,2.88-.76,5.39-3.17,5-5.75-1-7.68-5.92-18-10.21-22a4.93,4.93,0,0,0-5.29-1.41C234.87,264.37,221.47,269,219.48,269.52Z"/><path class="cls-25" d="M223.59,300.31c-2.86,0-4.34-.59-5.55-3.23-2.15-4.71-5-24.82.7-27.3,2.3-1,3.61.19,4.95,1.91,3.11,4,7.67,16.28,7.52,22.5C231.12,298.11,226.45,300.33,223.59,300.31Z"/><path class="cls-18" d="M219.48,269.52a4.77,4.77,0,0,0-.74.26,4.08,4.08,0,0,1,.79-.28Z"/><path class="cls-28" d="M240.37,265.73a4.93,4.93,0,0,0-5.29-1.41c-.21,0-13.29,4.59-15.52,5.18,1.8-.41,2.95.7,4.12,2.19,3.11,4,8.23,16.6,16.13,14.15S244.66,269.74,240.37,265.73Z"/><path class="cls-29" d="M240.46,280.94a1.66,1.66,0,1,1-1.66-1.66A1.67,1.67,0,0,1,240.46,280.94Z"/><path class="cls-15" d="M268.61,190.12a26,26,0,0,1,10.92-3.32c5.84-2,12-3.89,12-3.89v-7.69a27.55,27.55,0,0,0,19,0v7.65l8.57,2.86c4.88-3.74,11.91-4.3,20-9.14,4.45-2.66,5.06-4.11,8.28-6.37a27.87,27.87,0,0,0,10.84-15.07c3.19-11.1,10.29-20.85,14.48-29.59a8,8,0,0,1-2.35-2.3c-.23-.38-4-9-4-9a1.93,1.93,0,0,1,1-2.52,2,2,0,0,1,2.53,1L372.1,118l2.67-11.51a1.81,1.81,0,0,1,2.17-1.37,1.85,1.85,0,0,1,1.34,2.16l.57-2.47a1.79,1.79,0,1,1,3.5.8l-.41,1.74a1.8,1.8,0,0,1,3.49.86l-.76,3.39a1.51,1.51,0,1,1,2.95.68l-2.74,11.63a4.35,4.35,0,0,1-3.06,3.19c-.13,0-.27,0-.39.1-1.77,11.13-4,24.65-6.05,34a32.4,32.4,0,0,1-8,15.37c-8.28,8.81-10.83,16.53-22.75,22.11-8.23,3.84-12.46,9.69-14.12,14.66-.16,3.08-.77,10.26-3.08,15.66C326,232.11,325,264.81,325,264.81h0a26.75,26.75,0,0,1,2.72,24.48c2.39,15.29-3,30.61-3.5,44.08a51.32,51.32,0,0,0,1,10.47l.23.35a54.67,54.67,0,0,1,4.5,15.42,14.28,14.28,0,0,1,.22,2c.27,8.67-7,32.45-6.69,35.64s3.56,8.67-2.45,8.64c-2.24,0-9.68.08-16.49.08-2,0-2.38-2.24-.49-3.34a23,23,0,0,0,3.82-2.29c2.55-2.17,5.5-6.76,5.35-8.61-.34-4-3.58-32.13-3.68-33h0c-.15-4.14.94-14.13.94-14.13h-.12s-1.66-7-.93-10.16a102.16,102.16,0,0,1-5.18-41.24H300c-.16,15.79-5.9,27.72-7.45,40.18a52.2,52.2,0,0,0,0,10.73l.07.1A50.91,50.91,0,0,1,295.83,360a11.58,11.58,0,0,1,0,1.6c-.4,8.42-9.67,32.45-9.67,35.64s2.84,8.67-3.17,8.64c-2.23,0-9.68.08-16.49.08-1.95,0-2.19-2.24-.21-3.34a25.45,25.45,0,0,0,4-2.29c2.72-2.17,6.06-6.76,6.06-8.61,0-4-1.06-28.71-.85-33l-.11,0c.22-4.14,2.18-14.13,2.18-14.13s-1-7,0-10.16a100.74,100.74,0,0,1-1.54-41.25l1.43-28.36s-1-32.25-2.9-36.31a29.93,29.93,0,0,1-1.73-4.9Z"/><path class="cls-30" d="M272.77,399a17.16,17.16,0,0,0-3.3-.12,40.78,40.78,0,0,0,5.2-5.11c2.84-3.06,7.53-1.84,6.51,1.62a15.22,15.22,0,0,1-3.91,5.8A8.34,8.34,0,0,0,272.77,399Z"/><path class="cls-31" d="M273.47,399.17c-.23-.06-.45-.13-.69-.18a16.74,16.74,0,0,0-4.42,0,23.51,23.51,0,0,0,5.22-4.75c.84-1.08,3.44-.21,3,.82A25,25,0,0,1,273.47,399.17Z"/><path class="cls-31" d="M274.71,399.55a39.32,39.32,0,0,1,4.57-5c1.21-1.08,9.26-1.19,9.58-.6.44.79,2.11,7.89-.4,12.08h-9.59v-.34C278.87,402.1,277,400.42,274.71,399.55Z"/><path class="cls-32" d="M262.23,406.07v-.34c0-4.62,2.95-6.12,6.07-6.74a17.11,17.11,0,0,1,4.47,0c3.13.62,6.09,2.12,6.09,6.74v.34Z"/><rect class="cls-33" x="261.52" y="406.07" width="27.69" height="1.58"/><path class="cls-30" d="M310.19,399a17.41,17.41,0,0,0-3.33-.12,35.72,35.72,0,0,0,4.8-5.11c2.62-3.06,7.4-1.84,6.64,1.62a13.84,13.84,0,0,1-3.46,5.8A9.09,9.09,0,0,0,310.19,399Z"/><path class="cls-31" d="M310.9,399.17c-.23-.06-.46-.13-.71-.18a16.75,16.75,0,0,0-4.42,0,20.49,20.49,0,0,0,4.83-4.75c.76-1.08,3.42-.21,3,.82A20.83,20.83,0,0,1,310.9,399.17Z"/><path class="cls-31" d="M312.17,399.55a35.14,35.14,0,0,1,4.18-5c1.12-1.08,9.18-1.19,9.54-.6.49.79,2.72,7.89.54,12.08h-9.59l0-.34A6.57,6.57,0,0,0,312.17,399.55Z"/><path class="cls-32" d="M300.2,406.07l0-.34c-.35-4.62,2.49-6.12,5.56-6.74a17.12,17.12,0,0,1,4.47,0c3.17.62,6.25,2.12,6.62,6.74l0,.34Z"/><polygon class="cls-33" points="327.18 406.07 327.3 407.65 299.61 407.65 299.49 406.07 327.18 406.07"/><path class="cls-34" d="M325,264.81s4.82,4.68,5.08,14.75a304,304,0,0,1-3.69,54.75s-7.25,1.43-19.6,0c-5.33-23-4.52-39.25-4.52-39.25h-1s-3.14,26.5-7.06,39.24c-1.48,0-6,2.07-19,0-4.47-29.83,2.22-69.5,2.22-69.5Z"/><path class="cls-34" d="M318.32,311.23v11.38a2.7,2.7,0,0,0,2.71,2.71h5.7a2.7,2.7,0,0,0,2.69-2.71V311.23Z"/><rect class="cls-34" x="317.36" y="305.17" width="13.04" height="6.06"/><path class="cls-34" d="M284.35,311.23v11.38a2.69,2.69,0,0,1-2.71,2.71h-5.7a2.7,2.7,0,0,1-2.69-2.71V311.23Z"/><rect class="cls-34" x="272.27" y="305.17" width="13.04" height="6.06"/><rect class="cls-34" x="298.64" y="264.81" width="5.71" height="30.23"/><path class="cls-34" d="M330.1,279.56c-.27-10.07-5.08-14.75-5.08-14.75h-5.09c0,5.24-.06,15.31,0,16-.23,8,3.16,12.32,10.2,13.08C330.19,289.3,330.23,284.51,330.1,279.56Z"/><path class="cls-34" d="M274.31,293.86c6.9-.82,10.84-5.08,10.6-13,0-.69,0-10.76,0-16h-7.37S275.35,277.48,274.31,293.86Z"/><path class="cls-16" d="M268.61,190.12a26,26,0,0,1,10.92-3.32c2.61-.89,5.24-1.74,7.4-2.44.81,5.69,6.94,10.14,14.47,10.14s13.43-4.28,14.43-9.81l3.23,1.08c4.88-3.74,19.36-10.11,19.59-10.25,0,0,4.61,1.94,8.62,8.6a22.08,22.08,0,0,1,3.27,12.37c-5.12,4.83-17,7.4-20.08,16.81-.16,3.08-.77,10.26-3.08,15.66-1.35,3.13,3.44,40.38.65,41.89,0,0-26.64,6.19-51.33.07a29.38,29.38,0,0,1,.79-6.13s-1-32.25-2.9-36.31a29.93,29.93,0,0,1-1.73-4.9Z"/><path class="cls-4" d="M331.95,251.39a10.47,10.47,0,0,0-1.84-7.11c-15.22-24-3-51.13-1.49-57.42.67-2.68-2.68-3.89-5.45-4s-5.61.08-6.27,2.75c-2.16,8.64-10.12,47,10.34,69.94C329.08,257.62,331.53,255.85,331.95,251.39Z"/><path class="cls-4" d="M272.36,251.39a10.53,10.53,0,0,1,1.83-7.11c15.25-24,3.06-51.13,1.49-57.42-.66-2.68,2.69-3.89,5.45-4s5.62.08,6.28,2.75c2.16,8.64,10.12,47-10.34,69.94C275.23,257.62,272.77,255.85,272.36,251.39Z"/><path class="cls-35" d="M310.5,178.17v-2.91a27.55,27.55,0,0,1-19,0v2.92a27.63,27.63,0,0,0,19,0Z"/><path class="cls-36" d="M300.92,216.7h0a.76.76,0,0,1-.7-.44c-.35-.78-1-1.88-1.74-3.26-3.36-6-9.63-17.16-9.63-29.94a.76.76,0,1,1,1.51,0c0,12.38,6.14,23.32,9.45,29.19.41.76.79,1.41,1.11,2,.3-.59.68-1.24,1.1-2,3.3-5.88,9.45-16.81,9.45-29.19a.76.76,0,1,1,1.51,0c0,12.79-6.27,23.94-9.63,29.94-.78,1.39-1.39,2.48-1.74,3.26A.75.75,0,0,1,300.92,216.7Z"/><path class="cls-37" d="M282.94,213a1,1,0,0,0,1,1h1.39v-2H284A1,1,0,0,0,282.94,213Zm1.68,0a.66.66,0,0,1-1.32,0,.66.66,0,0,1,1.32,0Zm33.24-1h-1.39v2h1.39a1,1,0,1,0,0-2Zm0,1.68a.66.66,0,1,1,0-1.32.66.66,0,1,1,0,1.32Z"/><rect class="cls-38" x="288.21" y="207.93" width="1.62" height="0.66"/><rect class="cls-37" x="287.17" y="208.58" width="3.72" height="1.34"/><path class="cls-39" d="M298.12,209.93v-1.79a.29.29,0,0,0-.29-.29h-5.29a.29.29,0,0,0-.29.29v1.79Z"/><path class="cls-5" d="M296,209.93h.39v-1.86H296Zm-.69,0h.39v-1.86h-.39Zm1.38,0h.39v-1.86h-.39Zm.71-1.86v1.86h.38v-1.86ZM294,209.93h.39v-1.86H294Zm-1.39,0H293v-1.86h-.39Zm2.08,0H295v-1.86h-.39Zm-1.39,0h.39v-1.86h-.39Z"/><path class="cls-40" d="M293.53,207.84h-1a.29.29,0,0,0-.29.29v1.79h1.28Z"/><path class="cls-41" d="M316.47,229.67a.76.76,0,0,1-.77.77H286.12a.76.76,0,0,1-.77-.77v-19a.77.77,0,0,1,.77-.78H315.7a.77.77,0,0,1,.77.78Z"/><rect class="cls-36" x="284.91" y="215.2" width="32" height="14.02"/><rect class="cls-39" x="301.73" y="210.89" width="7.42" height="3.56"/><rect class="cls-5" x="309.15" y="210.89" width="4.58" height="3.56"/><path class="cls-39" d="M310.09,225.49a7.36,7.36,0,0,1-1.38,1.51l.84.85a1,1,0,1,0,1.45-1.45Zm.66,2.11a.65.65,0,0,1-.93,0,.65.65,0,0,1,0-.94.65.65,0,0,1,.93,0A.67.67,0,0,1,310.75,227.6Z"/><circle class="cls-42" cx="304.05" cy="221.36" r="7.33"/><path class="cls-43" d="M310.91,221.36A6.86,6.86,0,1,1,304,214.5,6.86,6.86,0,0,1,310.91,221.36Z"/><ellipse class="cls-41" cx="304.05" cy="221.36" rx="5.54" ry="5.53"/><path class="cls-36" d="M308.5,221.36a4.44,4.44,0,1,1-4.45-4.45A4.45,4.45,0,0,1,308.5,221.36Z"/><path class="cls-5" d="M306.33,221.36a2.27,2.27,0,1,1-2.28-2.28A2.28,2.28,0,0,1,306.33,221.36Z"/><path class="cls-36" d="M299.11,213a1.3,1.3,0,1,1-1.3-1.3A1.31,1.31,0,0,1,299.11,213Z"/><path class="cls-16" d="M267.33,127.64H330s-.85-33.18-31.31-33.35S267.33,127.64,267.33,127.64Z"/><ellipse class="cls-44" cx="265.4" cy="155.57" rx="7.52" ry="10.03" transform="translate(-34.33 224.86) rotate(-43.39)"/><ellipse class="cls-44" cx="338.52" cy="155.57" rx="10.03" ry="7.52" transform="translate(-7.1 294.65) rotate(-46.6)"/><path class="cls-15" d="M268.26,158.24c-2.8-8.36-1.64-18.9,2.64-25C278,123.2,294.16,118,306.12,118c8.89,0,24.17,8.69,28.56,17.36,18.27,36-42.09,52.87-62.29,30.28A21,21,0,0,1,268.26,158.24Z"/><circle class="cls-45" cx="285.13" cy="159.35" r="8.09"/><path class="cls-46" d="M266.51,153.61s-14.77-28.15,29.82-55.46c0,0,6.13-6.13,7.8-11.15,0,0,32.61,15.61,33.72,59.64,0,0-2-21.18-34.84-19C262.94,130.41,266.51,153.61,266.51,153.61Z"/><polygon class="cls-44" points="301.9 141.63 296.89 158.35 310.82 157.79 301.9 141.63"/><path class="cls-47" d="M303.5,163.4c-4.28,2.23-11.91,2.85-13.21-3.15-.34-1.58-2.76-.91-2.42.67,1.66,7.72,11.2,7.62,16.89,4.65C306.2,164.82,304.93,162.65,303.5,163.4Z"/><ellipse class="cls-47" cx="290.76" cy="147.21" rx="2.49" ry="5.29"/><ellipse class="cls-47" cx="314.73" cy="147.21" rx="2.49" ry="5.29"/><circle class="cls-45" cx="319.69" cy="159.35" r="8.09"/><ellipse class="cls-48" cx="167.49" cy="161.07" rx="7.3" ry="9.73" transform="translate(-64.87 159.1) rotate(-43.39)"/><ellipse class="cls-48" cx="238.4" cy="161.07" rx="9.73" ry="7.3" transform="translate(-42.43 223.62) rotate(-46.6)"/><path class="cls-19" d="M170.27,163.66c-2.71-8.1-1.59-18.32,2.56-24.2,6.91-9.78,22.55-14.81,34.15-14.86,8.62,0,23.44,8.43,27.7,16.84,17.72,34.95-40.81,51.27-60.41,29.36A20.34,20.34,0,0,1,170.27,163.66Z"/><path class="cls-17" d="M204.94,121.26s-11.31,29.2-37.46,27.45c0,0,5.74-17.67,7.69-18.57S204.94,121.26,204.94,121.26Z"/><circle class="cls-45" cx="185.69" cy="162.1" r="8.09"/><path class="cls-44" d="M202.47,144.39,199.08,161l10.23-.41L206,157.82c-2-1.41-1.78-3.59-2.19-6Z"/><path class="cls-47" d="M204.06,166.16c-4.28,2.23-11.91,2.85-13.21-3.15-.34-1.58-2.76-.91-2.42.67,1.66,7.72,11.2,7.62,16.89,4.65C206.76,167.57,205.49,165.41,204.06,166.16Z"/><ellipse class="cls-47" cx="191.32" cy="149.96" rx="2.49" ry="5.29"/><ellipse class="cls-47" cx="215.29" cy="149.96" rx="2.49" ry="5.29"/><circle class="cls-45" cx="220.25" cy="162.1" r="8.09"/><path class="cls-47" d="M216.81,150.68c2.3,1.25,4.43-.73,4.43-.73a9.24,9.24,0,0,1-5-1.58"/><path class="cls-47" d="M190,150.68c-2.3,1.25-4.43-.73-4.43-.73a9.24,9.24,0,0,0,5-1.58"/></g></g></svg>