<svg xmlns="http://www.w3.org/2000/svg" xmlns:xlink="http://www.w3.org/1999/xlink" viewBox="0 0 500 500"><defs><style>.cls-1{isolation:isolate;}.cls-2{fill:url(#Degradado_sin_nombre_51);}.cls-3{fill:#b2ccce;}.cls-4{fill:#97aeaf;}.cls-5{fill:#8c8c8c;}.cls-6{fill:#868686;}.cls-7{fill:#a4ac3d;}.cls-8{fill:#777;}.cls-9{fill:#6f6f6f;}.cls-10{fill:#4a454c;}.cls-11,.cls-14{opacity:0.2;}.cls-11,.cls-14,.cls-27{mix-blend-mode:multiply;}.cls-12{fill:#8e8e8e;}.cls-13{fill:#645f66;}.cls-14{fill:#b1b1b2;}.cls-15{fill:#fcc995;}.cls-16{fill:#878787;}.cls-17{fill:#939393;}.cls-18{fill:#a0a0a0;}.cls-19{fill:#998682;}.cls-20{fill:#594947;}.cls-21{fill:#86c142;}.cls-22{fill:#cca576;}.cls-23{fill:#666;}.cls-24{fill:#ccc;}.cls-25{fill:#c73424;}.cls-26,.cls-27{fill:#b2b2b2;}.cls-27{opacity:0.5;}.cls-28{fill:#ffd061;}.cls-29{fill:#3f3f3f;}.cls-30{fill:#fff8e7;}.cls-31,.cls-32{fill:#f78c63;}.cls-32{opacity:0.3;}.cls-33{fill:#aa4f0c;}.cls-34{fill:#3a211a;}</style><linearGradient id="Degradado_sin_nombre_51" x1="-5520.35" y1="-835.81" x2="-5290.25" y2="-1065.91" gradientTransform="translate(-707.98 5671.43) rotate(90)" gradientUnits="userSpaceOnUse"><stop offset="0" stop-color="#00b300"/><stop offset="0.13" stop-color="#29cd2b"/><stop offset="0.29" stop-color="#53e857"/><stop offset="0.41" stop-color="#6df973"/><stop offset="0.49" stop-color="#77ff7d"/><stop offset="0.64" stop-color="#77ff87"/><stop offset="0.9" stop-color="#77ffa1"/><stop offset="1" stop-color="#77ffac"/></linearGradient></defs><title>10</title><g class="cls-1"><g id="Capa_1" data-name="Capa 1"><path class="cls-2" d="M223.9,424.12c-93.12,0-105.06-62.21-105.06-156.78S151,81.67,244.13,81.67s137,126.76,137,221.33S317,424.12,223.9,424.12Z"/><path class="cls-3" d="M219.33,279.67c-.49-4.12-.23-22.5.34-40.08a52.59,52.59,0,0,0-6.14.55,8.33,8.33,0,0,0-6.31,6.06c-1.63,3,0,27.8,2.1,31.07a10.59,10.59,0,0,0,7.28,6.35,37.66,37.66,0,0,0,3.89.39A15.28,15.28,0,0,1,219.33,279.67Z"/><path class="cls-4" d="M219.33,279.67c-.49-4.11-.23-22.45.34-40a6.76,6.76,0,0,0-.72,0l-1.15.06a5.41,5.41,0,0,0-1.44.32c-1,.48-2,2.94-2.29,5.94-1,3,.74,28.24,2.26,31.54.78,3.34,2.23,5.78,3.22,6.25a4.26,4.26,0,0,0,.9.22A15.47,15.47,0,0,1,219.33,279.67Z"/><path class="cls-5" d="M213.89,256.09a.53.53,0,0,1-.54-.52,95.12,95.12,0,0,1,.18-9.67c.27-2.71,1.18-5.73,2.58-6.38a.54.54,0,0,1,.73.26.55.55,0,0,1-.27.73c-.73.33-1.67,2.48-2,5.49a94.35,94.35,0,0,0-.17,9.53.56.56,0,0,1-.54.56Z"/><path class="cls-6" d="M219.33,279.67c-.24-1.93-.3-7-.24-13.69-4.31,0-8.64,0-13-.06a69.52,69.52,0,0,0,2.53,12.81,11.27,11.27,0,0,0,7.62,6.61,42.36,42.36,0,0,0,5.11.5A15.8,15.8,0,0,1,219.33,279.67Z"/><path class="cls-5" d="M214.93,255.64a.42.42,0,0,1-.44.43l-1.1,0a.45.45,0,0,1-.46-.43c0-.35,0-.71,0-1a.45.45,0,0,1,.44-.44l1.12,0a.45.45,0,0,1,.45.41Z"/><path class="cls-5" d="M215.27,261.54a.39.39,0,0,1-.4.43h-1.1a.5.5,0,0,1-.49-.43c-.12-1.52-.22-3-.3-4.58a.45.45,0,0,1,.44-.44h1.1a.46.46,0,0,1,.47.43C215.06,258.47,215.16,260,215.27,261.54Z"/><path class="cls-7" d="M214.81,257.58a.33.33,0,0,1-.34.34h-.86a.35.35,0,0,1-.37-.33c0-.17,0-.34,0-.51a.33.33,0,0,1,.34-.34h.86a.37.37,0,0,1,.37.33C214.79,257.23,214.79,257.41,214.81,257.58Z"/><path class="cls-8" d="M213.13,259.25c0,.77.1,1.52.16,2.29a.5.5,0,0,0,.49.43h1.1a.39.39,0,0,0,.4-.43c0-.78-.11-1.54-.16-2.3Z"/><path class="cls-5" d="M213.72,257.16a.37.37,0,0,1-.37-.33l0-.83a.32.32,0,0,1,.33-.34h.55a.35.35,0,0,1,.37.33c0,.28,0,.56,0,.84a.32.32,0,0,1-.33.33Z"/><path class="cls-9" d="M219.12,262.46l-13.43,0c.13,1.15.27,2.29.44,3.44l13,.07C219.1,264.85,219.11,263.68,219.12,262.46Z"/><path class="cls-3" d="M293.22,246.2a8.3,8.3,0,0,0-6.29-6.06,55.26,55.26,0,0,0-6.11-.55c.52,17.52.68,35.84.15,40.08A16.17,16.17,0,0,1,279.8,284a40.16,40.16,0,0,0,4.06-.4,10.59,10.59,0,0,0,7.28-6.35C293.21,274,294.85,249.18,293.22,246.2Z"/><path class="cls-4" d="M286.36,245.95c-.29-3-1.26-5.46-2.27-5.94a5.52,5.52,0,0,0-1.45-.32l-1.15-.06-.67,0c.52,17.5.68,35.77.15,40a16.32,16.32,0,0,1-1.15,4.31,4.62,4.62,0,0,0,1.07-.24c1-.48,2.45-2.91,3.23-6.25C285.64,274.19,287.4,248.95,286.36,245.95Z"/><path class="cls-5" d="M286.55,256.09h0a.56.56,0,0,1-.54-.56c.12-4.67-.07-8.5-.17-9.53-.32-3-1.24-5.16-2-5.49a.56.56,0,0,1-.27-.73.54.54,0,0,1,.72-.26c1.43.65,2.34,3.67,2.6,6.38a95.52,95.52,0,0,1,.18,9.67A.54.54,0,0,1,286.55,256.09Z"/><path class="cls-6" d="M281.31,266c0,6.62-.08,11.7-.34,13.69a16.85,16.85,0,0,1-2.07,6.19,47,47,0,0,0,5.28-.52,11.32,11.32,0,0,0,7.62-6.61,71.8,71.8,0,0,0,2.53-12.81C290,266,285.64,266,281.31,266Z"/><path class="cls-5" d="M285.5,255.64a.43.43,0,0,0,.44.43l1.12,0a.45.45,0,0,0,.45-.43c0-.35,0-.71,0-1a.43.43,0,0,0-.43-.44l-1.12,0a.45.45,0,0,0-.45.41C285.54,254.93,285.53,255.28,285.5,255.64Z"/><path class="cls-5" d="M287,256.52h-1.11a.47.47,0,0,0-.48.43c-.06,1.54-.16,3.07-.28,4.61a.4.4,0,0,0,.4.43h1.1a.47.47,0,0,0,.48-.43c.13-1.52.24-3,.3-4.58A.42.42,0,0,0,287,256.52Zm.17,1.07a.35.35,0,0,1-.37.33H286a.34.34,0,0,1-.33-.34c0-.17,0-.34,0-.52a.36.36,0,0,1,.37-.33h.87a.32.32,0,0,1,.33.34C287.23,257.25,287.22,257.42,287.21,257.59Z"/><path class="cls-8" d="M287.33,259.25c-.06.77-.11,1.52-.18,2.29a.47.47,0,0,1-.48.43h-1.1a.4.4,0,0,1-.4-.43c.06-.78.11-1.54.16-2.3Z"/><path class="cls-5" d="M286.71,257.16a.36.36,0,0,0,.38-.33l0-.83a.32.32,0,0,0-.34-.34h-.54a.37.37,0,0,0-.38.33c0,.28,0,.56,0,.84a.32.32,0,0,0,.33.33Z"/><path class="cls-9" d="M281.29,262.46c0,1.22,0,2.39,0,3.53l13-.07c.15-1.15.3-2.29.43-3.44Z"/><path class="cls-10" d="M281,279.67a17.11,17.11,0,0,1-14.34,14.61c-6.62.87-26.36.87-33,0-6.8-1-13.43-6.73-14.35-14.61s.85-67.6,2.34-74.64,6.76-12.82,13.54-13.83c6.61-.87,23.26-.87,29.85,0,6.79,1,11.71,6.4,13.55,13.83S282,271.58,281,279.67Z"/><g class="cls-11"><path class="cls-12" d="M219.07,266v.82c0-.27,0-.54,0-.82Z"/></g><path class="cls-13" d="M228.35,285.13c-.65-9,.62-77.58,1.66-85.66a30.5,30.5,0,0,1,1.83-7.33A17.56,17.56,0,0,0,221.67,205c-1.49,7-3.28,66.78-2.34,74.64a17.07,17.07,0,0,0,10.95,13.7A26.44,26.44,0,0,1,228.35,285.13Z"/><path class="cls-13" d="M278.62,205c-1.52-6.14-5.16-10.89-10.21-12.92a34.67,34.67,0,0,1,1.9,7.36c1.32,8.52,2.39,76.36,1.65,85.66a26.82,26.82,0,0,1-1.91,8.25A17,17,0,0,0,281,279.67C282,271.58,280.51,212.45,278.62,205Z"/><path class="cls-3" d="M272.51,216.1c-.82,6.36-13.36-1.48-22.61-1.48s-21.92,7.67-22.64,1.48.15-19.48,1.3-25,3.69-9.53,9-10.34a147.67,147.67,0,0,1,24.57,0c5.34.8,7.58,4.5,9,10.34S273.33,209.72,272.51,216.1Z"/><path class="cls-4" d="M228.57,191.07c-1.16,5.55-2,18.82-1.3,25,.26,2.27,2.15,2.67,4.85,2.28A169.53,169.53,0,0,1,236.38,181C231.88,182.19,229.6,186,228.57,191.07Z"/><path class="cls-4" d="M271.21,191.07c-1.32-5.33-3.32-8.86-7.71-10a169.91,169.91,0,0,1,4.27,37.44c2.63.37,4.46-.08,4.75-2.38C273.33,209.72,272.69,196.91,271.21,191.07Z"/><path class="cls-14" d="M281,273.26a17.12,17.12,0,0,1-14.34,14.6c-6.62.87-26.36.87-33,0-6.8-1-13.43-6.73-14.35-14.6-.15-1.15-.22-3.42-.26-6.45,0,6.25,0,11,.26,12.86.91,7.89,7.55,13.59,14.35,14.61,6.59.87,26.34.87,33,0A17.11,17.11,0,0,0,281,279.67c.28-2.14.38-8,.33-15.43C281.26,268.55,281.16,271.78,281,273.26Z"/><path class="cls-15" d="M216.38,200.84a26,26,0,0,1,10.92-3.32c5.84-2,12-3.89,12-3.89v-7.69a27.55,27.55,0,0,0,19,0v7.65l8.57,2.86c4.88-3.74,11.91-4.3,20-9.14,4.45-2.66,5.06-4.11,8.28-6.37A27.87,27.87,0,0,0,306,165.91c3.19-11.1,10.29-20.85,14.48-29.59a8,8,0,0,1-2.35-2.3c-.23-.38-4-9-4-9a1.93,1.93,0,0,1,1-2.52,2,2,0,0,1,2.53,1l2.24,5.22,2.67-11.51a1.81,1.81,0,0,1,2.17-1.37A1.85,1.85,0,0,1,326,118l.57-2.47a1.79,1.79,0,1,1,3.5.8l-.41,1.74a1.8,1.8,0,0,1,3.49.86l-.76,3.39a1.51,1.51,0,1,1,2.95.68l-2.74,11.63a4.35,4.35,0,0,1-3.06,3.19c-.13,0-.27,0-.39.1-1.77,11.13-4,24.65-6.05,34a32.4,32.4,0,0,1-8,15.37c-8.28,8.81-10.83,16.53-22.75,22.11-8.23,3.84-12.46,9.69-14.12,14.66-.16,3.08-.77,10.26-3.08,15.66-1.35,3.13-2.37,35.84-2.37,35.84h0A26.75,26.75,0,0,1,275.5,300c2.39,15.29-3,30.61-3.5,44.08a51.32,51.32,0,0,0,1,10.47l.23.35a54.67,54.67,0,0,1,4.5,15.42,14.28,14.28,0,0,1,.22,2c.27,8.67-7,32.45-6.69,35.64s3.56,8.67-2.45,8.64c-2.24,0-9.68.08-16.49.08-2,0-2.38-2.24-.49-3.34a23,23,0,0,0,3.82-2.29c2.55-2.17,5.5-6.76,5.35-8.61-.34-4-3.58-32.13-3.68-33h0c-.15-4.14.94-14.13.94-14.13H258s-1.66-7-.93-10.16a102.16,102.16,0,0,1-5.18-41.24H247.8c-.16,15.79-5.9,27.72-7.45,40.18a52.2,52.2,0,0,0,0,10.73l.07.1a50.91,50.91,0,0,1,3.13,15.78,11.58,11.58,0,0,1,0,1.6c-.4,8.42-9.67,32.45-9.67,35.64s2.84,8.67-3.17,8.64c-2.23,0-9.68.08-16.49.08-1.95,0-2.19-2.24-.21-3.34a25.45,25.45,0,0,0,4-2.29c2.72-2.17,6.06-6.76,6.06-8.61,0-4-1.06-28.71-.85-33l-.11,0c.22-4.14,2.18-14.13,2.18-14.13s-1-7,0-10.16a100.74,100.74,0,0,1-1.54-41.25l1.43-28.36s-1-32.25-2.9-36.31a29.93,29.93,0,0,1-1.73-4.9Z"/><path class="cls-16" d="M220.54,409.71a17.16,17.16,0,0,0-3.3-.12,40.78,40.78,0,0,0,5.2-5.11c2.84-3.06,7.53-1.84,6.51,1.62a15.22,15.22,0,0,1-3.91,5.8A8.34,8.34,0,0,0,220.54,409.71Z"/><path class="cls-17" d="M221.23,409.89c-.23-.06-.45-.13-.69-.18a16.74,16.74,0,0,0-4.42,0,23.51,23.51,0,0,0,5.22-4.75c.84-1.08,3.44-.21,3,.82A25,25,0,0,1,221.23,409.89Z"/><path class="cls-17" d="M222.47,410.27a39.32,39.32,0,0,1,4.57-5c1.21-1.08,9.26-1.19,9.58-.6.44.79,2.11,7.89-.4,12.08h-9.59v-.34C226.63,412.81,224.78,411.13,222.47,410.27Z"/><path class="cls-18" d="M210,416.79v-.34c0-4.62,2.95-6.12,6.07-6.74a17.11,17.11,0,0,1,4.47,0c3.13.62,6.09,2.12,6.09,6.74v.34Z"/><rect class="cls-19" x="209.29" y="416.79" width="27.69" height="1.58"/><path class="cls-16" d="M258,409.71a17.41,17.41,0,0,0-3.33-.12,35.72,35.72,0,0,0,4.8-5.11c2.62-3.06,7.4-1.84,6.64,1.62a13.84,13.84,0,0,1-3.46,5.8A9.09,9.09,0,0,0,258,409.71Z"/><path class="cls-17" d="M258.66,409.89c-.23-.06-.46-.13-.71-.18a16.75,16.75,0,0,0-4.42,0,20.49,20.49,0,0,0,4.83-4.75c.76-1.08,3.42-.21,3,.82A20.83,20.83,0,0,1,258.66,409.89Z"/><path class="cls-17" d="M259.93,410.27a35.14,35.14,0,0,1,4.18-5c1.12-1.08,9.18-1.19,9.54-.6.49.79,2.72,7.89.54,12.08H264.6l0-.34A6.57,6.57,0,0,0,259.93,410.27Z"/><path class="cls-18" d="M248,416.79l0-.34c-.35-4.62,2.49-6.12,5.56-6.74a17.12,17.12,0,0,1,4.47,0c3.17.62,6.25,2.12,6.62,6.74l0,.34Z"/><polygon class="cls-19" points="274.95 416.79 275.07 418.37 247.38 418.37 247.25 416.79 274.95 416.79"/><path class="cls-20" d="M272.78,275.53s4.82,4.68,5.08,14.75A304,304,0,0,1,274.17,345s-7.25,1.43-19.6,0c-5.33-23-4.52-39.25-4.52-39.25h-1S245.91,332.29,242,345c-1.48,0-6,2.07-19,0-4.47-29.83,2.22-69.5,2.22-69.5Z"/><path class="cls-20" d="M266.09,321.95v11.38a2.7,2.7,0,0,0,2.71,2.71h5.7a2.7,2.7,0,0,0,2.69-2.71V321.95Z"/><rect class="cls-20" x="265.12" y="315.89" width="13.04" height="6.06"/><path class="cls-20" d="M232.12,321.95v11.38a2.69,2.69,0,0,1-2.71,2.71h-5.7a2.7,2.7,0,0,1-2.69-2.71V321.95Z"/><rect class="cls-20" x="220.04" y="315.89" width="13.04" height="6.06"/><rect class="cls-20" x="246.4" y="275.53" width="5.71" height="30.23"/><path class="cls-20" d="M277.86,290.28c-.27-10.07-5.08-14.75-5.08-14.75h-5.09c0,5.24-.06,15.31,0,16-.23,8,3.16,12.32,10.2,13.08C278,300,278,295.23,277.86,290.28Z"/><path class="cls-20" d="M222.07,304.58c6.9-.82,10.84-5.08,10.6-13,0-.69,0-10.76,0-16h-7.37S223.12,288.2,222.07,304.58Z"/><path class="cls-21" d="M216.38,200.84a26,26,0,0,1,10.92-3.32c2.61-.89,5.24-1.74,7.4-2.44.81,5.69,6.94,10.14,14.47,10.14s13.43-4.28,14.43-9.81l3.23,1.08c4.88-3.74,19.36-10.11,19.59-10.25,0,0,4.61,1.94,8.62,8.6a22.08,22.08,0,0,1,3.27,12.37c-5.12,4.83-17,7.4-20.08,16.81-.16,3.08-.77,10.26-3.08,15.66-1.35,3.13,3.44,40.38.65,41.89,0,0-26.64,6.19-51.33.07a29.38,29.38,0,0,1,.79-6.13s-1-32.25-2.9-36.31a29.93,29.93,0,0,1-1.73-4.9Z"/><path class="cls-4" d="M279.71,262.11a10.47,10.47,0,0,0-1.84-7.11c-15.22-24-3-51.13-1.49-57.42.67-2.68-2.68-3.89-5.45-4s-5.61.08-6.27,2.75c-2.16,8.64-10.12,47,10.34,69.94C276.85,268.34,279.3,266.57,279.71,262.11Z"/><path class="cls-4" d="M220.12,262.11A10.53,10.53,0,0,1,222,255c15.25-24,3.06-51.13,1.49-57.42-.66-2.68,2.69-3.89,5.45-4s5.62.08,6.28,2.75c2.16,8.64,10.12,47-10.34,69.94C223,268.34,220.54,266.57,220.12,262.11Z"/><path class="cls-22" d="M258.26,188.89V186a27.55,27.55,0,0,1-19,0v2.92a27.63,27.63,0,0,0,19,0Z"/><path class="cls-23" d="M248.68,227.42h0a.76.76,0,0,1-.7-.44c-.35-.78-1-1.88-1.74-3.26-3.36-6-9.63-17.16-9.63-29.94a.76.76,0,1,1,1.51,0c0,12.38,6.14,23.32,9.45,29.19.41.76.79,1.41,1.11,2,.3-.59.68-1.24,1.1-2,3.3-5.88,9.45-16.81,9.45-29.19a.76.76,0,1,1,1.51,0c0,12.79-6.27,23.94-9.63,29.94-.78,1.39-1.39,2.48-1.74,3.26A.75.75,0,0,1,248.68,227.42Z"/><path class="cls-24" d="M230.7,223.73a1,1,0,0,0,1,1h1.39v-2h-1.39A1,1,0,0,0,230.7,223.73Zm1.68,0a.66.66,0,0,1-1.32,0,.66.66,0,0,1,1.32,0Zm33.24-1h-1.39v2h1.39a1,1,0,1,0,0-2Zm0,1.68a.66.66,0,1,1,0-1.32.66.66,0,1,1,0,1.32Z"/><rect class="cls-25" x="235.98" y="218.64" width="1.62" height="0.66"/><rect class="cls-24" x="234.93" y="219.3" width="3.72" height="1.34"/><path class="cls-26" d="M245.89,220.64v-1.79a.29.29,0,0,0-.29-.29h-5.29a.29.29,0,0,0-.29.29v1.79Z"/><path class="cls-5" d="M243.8,220.64h.39v-1.86h-.39Zm-.69,0h.39v-1.86h-.39Zm1.38,0h.39v-1.86h-.39Zm.71-1.86v1.86h.38v-1.86Zm-3.47,1.86h.39v-1.86h-.39Zm-1.39,0h.39v-1.86h-.39Zm2.08,0h.39v-1.86h-.39Zm-1.39,0h.39v-1.86H241Z"/><path class="cls-27" d="M241.29,218.56h-1a.29.29,0,0,0-.29.29v1.79h1.28Z"/><path class="cls-28" d="M264.23,240.39a.76.76,0,0,1-.77.77H233.88a.76.76,0,0,1-.77-.77v-19a.77.77,0,0,1,.77-.78h29.58a.77.77,0,0,1,.77.78Z"/><rect class="cls-23" x="232.68" y="225.92" width="32" height="14.02"/><rect class="cls-26" x="249.5" y="221.61" width="7.42" height="3.56"/><rect class="cls-5" x="256.92" y="221.61" width="4.58" height="3.56"/><path class="cls-26" d="M257.86,236.21a7.36,7.36,0,0,1-1.38,1.51l.84.85a1,1,0,1,0,1.45-1.45Zm.66,2.11a.65.65,0,0,1-.93,0,.65.65,0,0,1,0-.94.65.65,0,0,1,.93,0A.67.67,0,0,1,258.52,238.32Z"/><circle class="cls-29" cx="251.81" cy="232.08" r="7.33"/><path class="cls-30" d="M258.67,232.08a6.86,6.86,0,1,1-6.86-6.86A6.86,6.86,0,0,1,258.67,232.08Z"/><ellipse class="cls-28" cx="251.82" cy="232.08" rx="5.54" ry="5.53"/><path class="cls-23" d="M256.26,232.08a4.44,4.44,0,1,1-4.45-4.45A4.45,4.45,0,0,1,256.26,232.08Z"/><path class="cls-5" d="M254.09,232.08a2.27,2.27,0,1,1-2.28-2.28A2.28,2.28,0,0,1,254.09,232.08Z"/><path class="cls-23" d="M246.88,223.71a1.3,1.3,0,1,1-1.3-1.3A1.31,1.31,0,0,1,246.88,223.71Z"/><path class="cls-21" d="M215.1,138.36h62.63s-.85-33.18-31.31-33.35S215.1,138.36,215.1,138.36Z"/><ellipse class="cls-31" cx="213.16" cy="166.28" rx="7.52" ry="10.03" transform="translate(-55.97 191.9) rotate(-43.39)"/><ellipse class="cls-31" cx="286.29" cy="166.28" rx="10.03" ry="7.52" transform="translate(-31.23 260.05) rotate(-46.6)"/><path class="cls-15" d="M216,169c-2.8-8.36-1.64-18.9,2.64-25,7.13-10.09,23.26-15.27,35.22-15.32,8.89,0,24.17,8.69,28.56,17.36,18.27,36-42.09,52.87-62.29,30.28A21,21,0,0,1,216,169Z"/><circle class="cls-32" cx="232.9" cy="170.07" r="8.09"/><path class="cls-33" d="M214.28,164.33s-14.77-28.15,29.82-55.46c0,0,6.13-6.13,7.8-11.15,0,0,32.61,15.61,33.72,59.64,0,0-2-21.18-34.84-19C210.71,141.13,214.28,164.33,214.28,164.33Z"/><polygon class="cls-31" points="249.67 152.35 244.65 169.07 258.59 168.51 249.67 152.35"/><path class="cls-34" d="M251.27,174.12C247,176.35,239.35,177,238.06,171c-.34-1.58-2.76-.91-2.42.67,1.66,7.72,11.2,7.62,16.89,4.65C254,175.54,252.7,173.37,251.27,174.12Z"/><ellipse class="cls-34" cx="238.52" cy="157.92" rx="2.49" ry="5.29"/><ellipse class="cls-34" cx="262.49" cy="157.92" rx="2.49" ry="5.29"/><circle class="cls-32" cx="267.46" cy="170.07" r="8.09"/><path class="cls-15" d="M219.15,200.29c12.76,4.88,4.14,21.48-1.63,33.84-3.45,7.39-2.64,14.33-10,26.64,8.31,13,8.13,26.15,10.95,38.22a8.1,8.1,0,0,1,3.25.59c.41.18,8.39,5.23,8.39,5.23a1.92,1.92,0,0,1,.61,2.64,2,2,0,0,1-2.67.6L223.23,305,227.48,316a1.8,1.8,0,0,1-1,2.34,1.83,1.83,0,0,1-2.33-1l.92,2.39a1.81,1.81,0,0,1-1,2.33,1.77,1.77,0,0,1-2.32-1.05l-.64-1.67a1.8,1.8,0,0,1-3.38,1.25l-1.28-3.23a1.49,1.49,0,0,1-.86,2,1.51,1.51,0,0,1-2-.86l-4.25-11.2a4.34,4.34,0,0,1,.73-4.36c.08-.13.19-.2.26-.3-7.52-15.91-17.1-34.48-17.56-39.17,2.54-9.66,2.23-18,6.33-32.66C203,216.61,206,195.26,219.15,200.29Z"/><path class="cls-21" d="M195.72,234.93c.49-1.83,1-3.72,1.68-5.75,4.43-14,9.48-34.72,22.48-29.26,12.6,5.29,5.57,22.44-.61,34.61a35.07,35.07,0,0,0-2.07,6.48C207.4,242.08,195.72,234.93,195.72,234.93Z"/></g></g></svg>