<svg id="Capa_1" data-name="Capa 1" xmlns="http://www.w3.org/2000/svg" xmlns:xlink="http://www.w3.org/1999/xlink" viewBox="0 0 500 500"><defs><style>.cls-1{fill:url(#Degradado_sin_nombre_51);}.cls-2{fill:#fff;}.cls-3{fill:#ff5b45;}.cls-4{fill:#e2e2e1;}.cls-5{fill:silver;}.cls-6{fill:#a0a09f;}.cls-7{opacity:0.3;}.cls-8{fill:#3a3b3d;}.cls-9{fill:#3b3d41;}.cls-10{fill:#f1644a;}.cls-11{opacity:0.15;}.cls-12{fill:#e24434;}.cls-13{fill:#fafafb;}.cls-14{fill:#d3a900;}.cls-15{fill:#b5b5b5;}.cls-16{fill:#e8e8ea;}.cls-17{fill:#ffd833;}.cls-18{fill:#e5a900;}.cls-19{fill:#f4cc03;}</style><linearGradient id="Degradado_sin_nombre_51" x1="101.34" y1="428.37" x2="437.3" y2="92.41" gradientUnits="userSpaceOnUse"><stop offset="0" stop-color="#00b300"/><stop offset="0.13" stop-color="#29cd2b"/><stop offset="0.29" stop-color="#53e857"/><stop offset="0.41" stop-color="#6df973"/><stop offset="0.49" stop-color="#77ff7d"/><stop offset="0.64" stop-color="#77ff87"/><stop offset="0.9" stop-color="#77ffa1"/><stop offset="1" stop-color="#77ffac"/></linearGradient></defs><title>2</title><path class="cls-1" d="M500,288.11c0,136-90.83,153.39-228.9,153.39S0,394.52,0,258.56,185.08,58.5,323.16,58.5,500,152.15,500,288.11Z"/><path class="cls-2" d="M410.29,299.27H118V122.53a17.8,17.8,0,0,1,17.79-17.8H392.49a17.8,17.8,0,0,1,17.8,17.8Z"/><polygon class="cls-3" points="132.51 118.6 132.51 127.1 132.51 132.94 132.51 299.27 395.75 299.27 395.75 132.94 395.75 127.1 395.75 118.6 132.51 118.6"/><path class="cls-2" d="M444.18,370.75h0v0s0,0,0,0l-33.83-69.38c-1-1.91-5.72-3.44-10.55-3.44H127.62c-4.84,0-9.56,1.53-10.56,3.44L83.23,370.71a0,0,0,0,1,0,0v0h0a1.27,1.27,0,0,0-.1.49v2.49a1.32,1.32,0,0,0,1.32,1.32H443a1.32,1.32,0,0,0,1.32-1.32v-2.49A1.35,1.35,0,0,0,444.18,370.75Z"/><path class="cls-4" d="M444.18,367.64h0s0,0,0,0l-33.83-69.37c-1-1.9-5.72-3.44-10.55-3.44H127.62c-4.84,0-9.56,1.54-10.56,3.44L83.23,367.61a0,0,0,0,1,0,0h0a1.34,1.34,0,0,0-.1.5v2.48A1.33,1.33,0,0,0,84.44,372H443a1.32,1.32,0,0,0,1.32-1.33v-2.48A1.43,1.43,0,0,0,444.18,367.64Z"/><path class="cls-5" d="M406,344.91c.26.57-.92,1-2.6,1H124c-1.7,0-2.86-.46-2.62-1l17.49-43.53c.25-.56,1.65-1,3.13-1H385.4c1.47,0,2.87.47,3.13,1Z"/><path class="cls-6" d="M385.4,300.36H142c-1.48,0-2.88.47-3.13,1l-.68,1.53c.24-.56,1.65-1,3.14-1H386.06c1.47,0,2.88.47,3.14,1l-.68-1.53C388.27,300.82,386.87,300.36,385.4,300.36Z"/><polygon class="cls-6" points="308.16 370.31 219.24 370.31 219.02 371.95 308.37 371.95 308.16 370.31"/><path class="cls-5" d="M307.83,365.66c.08.55-1.25,1-3,1H222.57c-1.74,0-3.08-.43-3-1l2.33-15.46c.07-.55,1.45-1,3.09-1h77.45c1.63,0,3,.44,3.08,1Z"/><path class="cls-6" d="M224.63,350.37H303a6.09,6.09,0,0,1,2.63.48l-.1-.66c-.08-.55-1.45-1-3.08-1H225c-1.63,0-3,.44-3.09,1l-.12.81A5.3,5.3,0,0,1,224.63,350.37Z"/><path class="cls-6" d="M302.43,349.21H225c-1.63,0-3,.44-3.09,1l-.13.84c.08-.54,1.47-1,3.1-1h77.68c1.63,0,3,.44,3.08,1l-.12-.84C305.43,349.65,304.06,349.21,302.43,349.21Z"/><g class="cls-7"><path class="cls-2" d="M276,366.63h28.85c1.73,0,3.06-.43,3-1l-2.32-15.46c-.08-.55-1.45-1-3.08-1H239.15Z"/></g><polygon class="cls-8" points="370.86 297.55 156.54 297.55 157.6 294.79 369.8 294.79 370.86 297.55"/><path class="cls-9" d="M163.47,321c-.09.27-.77.49-1.52.49h-21.5c-.75,0-1.26-.22-1.15-.49l1.79-4.26c.12-.28.8-.49,1.54-.49h21.12c.74,0,1.26.21,1.17.49Z"/><path class="cls-9" d="M165.2,328.38c-.08.27-.79.49-1.55.49H137.77c-.76,0-1.29-.22-1.18-.49l1.79-4.26c.11-.27.81-.49,1.57-.49h25.42c.77,0,1.3.22,1.21.49Z"/><path class="cls-9" d="M172.64,335.66c-.07.26-.78.47-1.58.47h-36c-.77,0-1.31-.21-1.21-.47l1.79-4.27c.11-.27.83-.48,1.59-.48h35.38c.79,0,1.35.22,1.28.48Z"/><path class="cls-9" d="M390.85,328.38c.11.27-.43.49-1.21.49H362c-.76,0-1.47-.22-1.55-.49l-1.36-4.26c-.09-.27.46-.49,1.22-.49h27.12c.77,0,1.47.22,1.58.49Z"/><path class="cls-9" d="M393.5,335.66c.11.26-.44.47-1.23.47h-38c-.78,0-1.47-.21-1.56-.47l-1.22-4.27c-.08-.27.49-.48,1.25-.48H390.1c.78,0,1.5.22,1.62.48Z"/><path class="cls-9" d="M342.9,343c.06.27-.53.48-1.33.48H328.79c-.81,0-1.5-.21-1.55-.48l-.86-4.27c-.06-.27.53-.49,1.33-.49h12.56c.79,0,1.49.22,1.55.49Z"/><path class="cls-9" d="M146.83,343c-.1.27-.84.48-1.65.48H132.41c-.81,0-1.36-.21-1.25-.48l1.79-4.27c.1-.27.84-.49,1.62-.49h12.58c.79,0,1.35.22,1.25.49Z"/><path class="cls-9" d="M166.61,343c-.08.27-.8.48-1.61.48H152.23c-.81,0-1.38-.21-1.29-.48l1.52-4.27c.1-.27.82-.49,1.62-.49h12.56c.79,0,1.37.22,1.28.49Z"/><path class="cls-9" d="M186.55,343c-.06.27-.76.48-1.57.48H172.21c-.81,0-1.39-.21-1.32-.48l1.25-4.27c.08-.27.78-.49,1.58-.49h12.57c.78,0,1.37.22,1.3.49Z"/><path class="cls-9" d="M211.2,343c0,.27-.73.48-1.53.48H192.19c-.82,0-1.41-.21-1.35-.48l1-4.27c.07-.27.76-.49,1.56-.49h17.18c.8,0,1.4.22,1.35.49Z"/><path class="cls-9" d="M298.32,343c0,.28-.64.51-1.49.51H216.92c-.83,0-1.48-.23-1.44-.51l.65-4.22c0-.28.75-.51,1.57-.51h78.59c.83,0,1.53.23,1.56.51Z"/><path class="cls-9" d="M323,343c0,.27-.56.48-1.36.48H304.1c-.8,0-1.48-.21-1.51-.48l-.52-4.27c0-.27.58-.49,1.36-.49h17.2c.79,0,1.47.22,1.52.49Z"/><path class="cls-9" d="M156.39,313.72c-.1.26-.78.48-1.52.48H143.13c-.74,0-1.23-.22-1.12-.48l1.79-4.26c.11-.27.78-.49,1.5-.49h11.53c.73,0,1.23.21,1.14.49Z"/><path class="cls-9" d="M174.7,313.72c-.08.26-.75.48-1.49.48H161.47c-.74,0-1.25-.22-1.16-.48l1.52-4.26c.1-.27.75-.49,1.49-.49h11.52c.73,0,1.25.21,1.17.49Z"/><path class="cls-9" d="M193,313.72c-.07.26-.73.48-1.45.48H179.83c-.74,0-1.28-.22-1.2-.48l1.25-4.26c.08-.27.74-.49,1.45-.49h11.52c.72,0,1.27.21,1.2.49Z"/><path class="cls-9" d="M211.33,313.72c-.05.26-.69.48-1.44.48H198.16c-.74,0-1.29-.22-1.22-.48l1-4.26c.06-.27.71-.49,1.43-.49h11.51c.74,0,1.28.21,1.23.49Z"/><path class="cls-9" d="M229.64,313.72c0,.26-.66.48-1.4.48H216.51c-.74,0-1.31-.22-1.27-.48l.71-4.26c0-.27.67-.49,1.41-.49h11.52c.73,0,1.29.21,1.26.49Z"/><path class="cls-9" d="M247.94,313.72c0,.26-.61.48-1.35.48H234.85c-.73,0-1.32-.22-1.29-.48l.44-4.26c0-.27.65-.49,1.37-.49h11.52c.73,0,1.29.21,1.28.49Z"/><path class="cls-9" d="M266.26,313.72c0,.26-.59.48-1.34.48H253.19c-.74,0-1.34-.22-1.32-.48l.17-4.26c0-.27.6-.49,1.33-.49H264.9c.73,0,1.31.21,1.31.49Z"/><path class="cls-9" d="M284.57,313.72c0,.26-.57.48-1.31.48H271.53c-.74,0-1.34-.22-1.35-.48l-.1-4.26c0-.27.58-.49,1.31-.49h11.52c.73,0,1.33.21,1.35.49Z"/><path class="cls-9" d="M302.88,313.72c0,.26-.54.48-1.27.48H289.87c-.74,0-1.35-.22-1.38-.48l-.36-4.26c0-.27.55-.49,1.27-.49h11.52c.72,0,1.33.21,1.38.49Z"/><path class="cls-9" d="M321.19,313.72c.06.26-.51.48-1.24.48H308.22c-.74,0-1.37-.22-1.42-.48l-.64-4.26c0-.27.52-.49,1.26-.49h11.51c.73,0,1.36.21,1.42.49Z"/><path class="cls-9" d="M339.5,313.72c.08.26-.47.48-1.21.48H326.56c-.74,0-1.37-.22-1.43-.48l-.9-4.26c-.06-.27.47-.49,1.19-.49H337c.72,0,1.36.21,1.43.49Z"/><path class="cls-9" d="M357.81,313.72c.09.26-.43.48-1.16.48H344.9c-.74,0-1.39-.22-1.46-.48l-1.18-4.26c-.07-.27.45-.49,1.18-.49H355c.71,0,1.37.21,1.46.49Z"/><path class="cls-9" d="M385.37,313.72c.11.26-.41.48-1.14.48H362.52c-.74,0-1.41-.22-1.5-.48l-1.43-4.26c-.09-.27.42-.49,1.15-.49h21.32c.73,0,1.41.21,1.52.49Z"/><path class="cls-9" d="M360.74,342.9c.09.27-.53.51-1.37.51H348.6c-.83,0-1.58-.23-1.65-.51l-.54-2.08c-.08-.29.54-.51,1.37-.51h10.66c.82,0,1.57.22,1.66.51Z"/><path class="cls-9" d="M376.54,338.23h-13c-.83,0-1.43.23-1.34.51l.66,2.09.56,1.78.1.3c.08.27.84.51,1.69.51h13.25c.84,0,1.44-.23,1.33-.51l-.11-.3-.66-1.78-.76-2.09C378.13,338.46,377.37,338.23,376.54,338.23Z"/><path class="cls-9" d="M396.24,342.9c.12.27-.46.51-1.31.51H384.17c-.85,0-1.61-.23-1.72-.51l-.77-2.08c-.11-.29.48-.51,1.32-.51h10.66c.83,0,1.6.22,1.72.51Z"/><path class="cls-9" d="M146.83,343c-.1.27-.84.48-1.65.48H132.41c-.81,0-1.36-.21-1.25-.48l1.79-4.27c.1-.27.84-.49,1.62-.49h12.58c.79,0,1.35.22,1.25.49Z"/><path class="cls-9" d="M192.18,335.66c-.07.26-.75.47-1.53.47H178.11c-.79,0-1.36-.21-1.29-.47l1.21-4.27c.07-.27.75-.48,1.53-.48h12.32c.77,0,1.35.22,1.29.48Z"/><path class="cls-9" d="M211.72,335.66c0,.26-.72.47-1.51.47H197.68c-.78,0-1.37-.21-1.31-.47l.93-4.27c.06-.27.73-.48,1.51-.48h12.31c.77,0,1.36.22,1.32.48Z"/><path class="cls-9" d="M231.25,335.66c0,.26-.69.47-1.49.47H217.26c-.78,0-1.4-.21-1.35-.47l.66-4.27c0-.27.7-.48,1.48-.48h12.29c.78,0,1.38.22,1.35.48Z"/><path class="cls-9" d="M250.79,335.66c0,.26-.66.47-1.45.47H236.83c-.8,0-1.4-.21-1.38-.47l.39-4.27c0-.27.66-.48,1.45-.48h12.31c.76,0,1.39.22,1.38.48Z"/><path class="cls-9" d="M270.32,335.66c0,.26-.62.47-1.41.47H256.4c-.79,0-1.42-.21-1.42-.47l.12-4.27c0-.27.65-.48,1.43-.48h12.3c.79,0,1.41.22,1.42.48Z"/><path class="cls-9" d="M289.86,335.66c0,.26-.61.47-1.4.47H276c-.79,0-1.43-.21-1.44-.47l-.15-4.27c0-.27.61-.48,1.38-.48H288c.78,0,1.43.22,1.46.48Z"/><path class="cls-9" d="M309.4,335.66c0,.26-.58.47-1.37.47H295.53c-.79,0-1.45-.21-1.48-.47l-.41-4.27c0-.27.57-.48,1.35-.48h12.3c.78,0,1.45.22,1.49.48Z"/><path class="cls-9" d="M328.94,335.66c.05.26-.55.47-1.34.47H315.09c-.78,0-1.46-.21-1.52-.47l-.67-4.27c-.05-.27.55-.48,1.33-.48h12.3c.77,0,1.46.22,1.51.48Z"/><path class="cls-9" d="M348.46,335.66c.07.26-.5.47-1.3.47h-12.5c-.8,0-1.49-.21-1.54-.47l-1-4.27c-.07-.27.52-.48,1.29-.48h12.3c.78,0,1.47.22,1.54.48Z"/><path class="cls-9" d="M159.45,306.35c-.11.29-.83.52-1.61.52H145.93c-.78,0-1.32-.23-1.19-.52l.82-1.95c.12-.29.83-.53,1.61-.53h11.77c.79,0,1.32.24,1.22.53Z"/><path class="cls-9" d="M179.74,306.35c-.09.29-.79.52-1.57.52h-11.9c-.79,0-1.34-.23-1.24-.52l.68-1.95c.1-.29.81-.53,1.58-.53h11.77c.79,0,1.34.24,1.25.53Z"/><path class="cls-9" d="M200,306.35c-.06.29-.74.52-1.52.52H186.58c-.78,0-1.35-.23-1.27-.52l.55-1.95c.08-.29.77-.53,1.54-.53h11.79c.77,0,1.34.24,1.27.53Z"/><path class="cls-9" d="M220.31,306.35c-.05.29-.72.52-1.5.52H206.89c-.77,0-1.36-.23-1.3-.52l.4-1.95c.06-.29.75-.53,1.51-.53h11.79c.78,0,1.37.24,1.32.53Z"/><path class="cls-9" d="M240.6,306.35c0,.29-.68.52-1.45.52H227.24c-.79,0-1.38-.23-1.34-.52l.25-1.95c0-.29.69-.53,1.48-.53h11.79c.76,0,1.38.24,1.35.53Z"/><path class="cls-9" d="M260.89,306.35c0,.29-.64.52-1.43.52H247.56c-.77,0-1.4-.23-1.38-.52l.12-1.95c0-.29.65-.53,1.43-.53H259.5c.79,0,1.41.24,1.4.53Z"/><path class="cls-9" d="M281.19,306.35c0,.29-.61.52-1.38.52H267.9c-.78,0-1.43-.23-1.43-.52V304.4c0-.29.61-.53,1.39-.53h11.79c.77,0,1.42.24,1.43.53Z"/><path class="cls-9" d="M301.48,306.35c0,.29-.57.52-1.35.52h-11.9c-.77,0-1.43-.23-1.46-.52l-.15-1.95c0-.29.58-.53,1.34-.53h11.79c.77,0,1.45.24,1.48.53Z"/><path class="cls-9" d="M321.77,306.35c.06.29-.53.52-1.31.52h-11.9c-.8,0-1.47-.23-1.51-.52l-.29-1.95c0-.29.55-.53,1.32-.53h11.78c.77,0,1.45.24,1.51.53Z"/><path class="cls-9" d="M342.05,306.35c.08.29-.49.52-1.27.52H328.89c-.8,0-1.48-.23-1.54-.52l-.45-1.95c-.06-.29.51-.53,1.28-.53H340c.77,0,1.47.24,1.54.53Z"/><path class="cls-9" d="M362.35,306.35c.1.29-.44.52-1.23.52H349.21c-.78,0-1.49-.23-1.57-.52l-.58-1.95c-.09-.29.47-.53,1.24-.53h11.78c.78,0,1.49.24,1.59.53Z"/><path class="cls-9" d="M382.64,306.35c.12.29-.42.52-1.2.52H369.53c-.79,0-1.5-.23-1.61-.52l-.71-1.95c-.1-.29.43-.53,1.21-.53H380.2c.78,0,1.5.24,1.62.53Z"/><path class="cls-9" d="M182.15,321c-.06.27-.74.49-1.5.49h-12c-.76,0-1.3-.22-1.21-.49l1.38-4.26c.09-.28.76-.49,1.51-.49h11.78c.73,0,1.28.21,1.19.49Z"/><path class="cls-9" d="M200.89,321c-.07.27-.73.49-1.48.49h-12c-.76,0-1.31-.22-1.23-.49l1.12-4.26c.06-.28.72-.49,1.46-.49h11.78c.75,0,1.31.21,1.25.49Z"/><path class="cls-9" d="M219.6,321c0,.27-.69.49-1.44.49h-12c-.76,0-1.32-.22-1.27-.49l.85-4.26c.05-.28.69-.49,1.44-.49H219c.74,0,1.31.21,1.27.49Z"/><path class="cls-9" d="M238.31,321c0,.27-.65.49-1.4.49h-12c-.76,0-1.34-.22-1.31-.49l.58-4.26c0-.28.66-.49,1.41-.49h11.77c.74,0,1.32.21,1.3.49Z"/><path class="cls-9" d="M257,321c0,.27-.63.49-1.38.49h-12c-.74,0-1.35-.22-1.34-.49l.31-4.26c0-.28.64-.49,1.38-.49H255.8c.75,0,1.34.21,1.34.49Z"/><path class="cls-9" d="M275.75,321c0,.27-.59.49-1.34.49h-12c-.76,0-1.38-.22-1.38-.49l0-4.26c0-.28.62-.49,1.36-.49h11.78c.74,0,1.35.21,1.36.49Z"/><path class="cls-9" d="M294.48,321c0,.27-.57.49-1.32.49h-12c-.75,0-1.39-.22-1.39-.49l-.23-4.26c0-.28.57-.49,1.32-.49h11.77c.74,0,1.37.21,1.4.49Z"/><path class="cls-9" d="M313.2,321c0,.27-.53.49-1.3.49h-12c-.77,0-1.4-.22-1.43-.49l-.51-4.26c0-.28.55-.49,1.3-.49H311c.77,0,1.4.21,1.44.49Z"/><path class="cls-9" d="M331.91,321c.06.27-.51.49-1.26.49h-12c-.77,0-1.42-.22-1.47-.49l-.77-4.26c-.05-.28.52-.49,1.26-.49h11.79c.73,0,1.39.21,1.45.49Z"/><path class="cls-9" d="M350.64,321c.07.27-.46.49-1.23.49h-12c-.76,0-1.42-.22-1.49-.49l-1-4.26c-.07-.28.48-.49,1.22-.49h11.77c.76,0,1.41.21,1.49.49Z"/><path class="cls-9" d="M369.36,321c.09.27-.45.49-1.21.49h-12c-.76,0-1.43-.22-1.52-.49l-1.3-4.26c-.09-.28.44-.49,1.19-.49h11.77c.74,0,1.42.21,1.52.49Z"/><path class="cls-9" d="M388.08,321c.11.27-.42.49-1.17.49h-12c-.76,0-1.46-.22-1.56-.49l-1.57-4.26c-.1-.28.43-.49,1.17-.49h11.78c.74,0,1.44.21,1.55.49Z"/><path class="cls-9" d="M184.29,328.38c-.07.27-.76.49-1.54.49H170.51c-.78,0-1.34-.22-1.25-.49l1.33-4.26c.08-.27.77-.49,1.53-.49h12c.75,0,1.32.22,1.26.49Z"/><path class="cls-9" d="M203.42,328.38c-.06.27-.71.49-1.49.49H189.67c-.78,0-1.35-.22-1.28-.49l1.05-4.26c.07-.27.74-.49,1.5-.49h12c.76,0,1.32.22,1.27.49Z"/><path class="cls-9" d="M222.55,328.38c0,.27-.7.49-1.47.49H208.83c-.77,0-1.36-.22-1.31-.49l.8-4.26c0-.27.7-.49,1.45-.49h12c.76,0,1.34.22,1.31.49Z"/><path class="cls-9" d="M241.68,328.38c0,.27-.67.49-1.44.49H228c-.78,0-1.37-.22-1.34-.49l.52-4.26c0-.27.67-.49,1.44-.49h12c.77,0,1.36.22,1.34.49Z"/><path class="cls-9" d="M260.79,328.38c0,.27-.63.49-1.4.49H247.13c-.77,0-1.38-.22-1.37-.49l.26-4.26c0-.27.64-.49,1.4-.49h12c.76,0,1.38.22,1.38.49Z"/><path class="cls-9" d="M279.93,328.38c0,.27-.6.49-1.38.49H266.3c-.77,0-1.4-.22-1.4-.49l0-4.26c0-.27.6-.49,1.36-.49h12.06c.75,0,1.38.22,1.38.49Z"/><path class="cls-9" d="M299.06,328.38c0,.27-.57.49-1.34.49H285.46c-.78,0-1.43-.22-1.44-.49l-.29-4.26c0-.27.6-.49,1.35-.49h12c.77,0,1.4.22,1.44.49Z"/><path class="cls-9" d="M318.18,328.38c0,.27-.54.49-1.31.49H304.62c-.78,0-1.43-.22-1.47-.49l-.55-4.26c0-.27.55-.49,1.31-.49h12c.75,0,1.4.22,1.45.49Z"/><path class="cls-9" d="M337.3,328.38c.07.27-.5.49-1.28.49H323.77c-.77,0-1.43-.22-1.48-.49l-.83-4.26c-.05-.27.51-.49,1.27-.49h12c.76,0,1.43.22,1.5.49Z"/><path class="cls-9" d="M356.43,328.38c.08.27-.47.49-1.25.49H342.94c-.79,0-1.47-.22-1.54-.49l-1.09-4.26c-.07-.27.49-.49,1.25-.49h12c.77,0,1.44.22,1.53.49Z"/><rect class="cls-2" x="129.2" y="289.64" width="272.12" height="5.14"/><path class="cls-10" d="M267,111.71a2.83,2.83,0,1,1-2.84-2.83A2.83,2.83,0,0,1,267,111.71Z"/><path class="cls-11" d="M195.23,252.45h140a15.28,15.28,0,0,0,15.26-15.26V104.73H180V237.19A15.28,15.28,0,0,0,195.23,252.45Z"/><path class="cls-12" d="M395.75,289.64V195.79l-39.13-39.13-38.49,67.68-4.81,8c-26-4.47-56.12-9.43-56.12-9.43l-84.32,38.4,28.32,28.32Z"/><rect class="cls-13" x="170.36" y="153.86" width="187.54" height="109.06" rx="6.78" ry="6.78"/><path class="cls-14" d="M264.13,211.79l91.52-56.14a6.72,6.72,0,0,0-4.53-1.78h-174a6.72,6.72,0,0,0-4.53,1.78Z"/><path class="cls-15" d="M305.19,88.6a8.47,8.47,0,0,0,8.45,8.45h30.1L305.19,58.5Z"/><path class="cls-16" d="M305.19,88.6V58.5h-110A8.47,8.47,0,0,0,186.78,67V248.54a8.47,8.47,0,0,0,8.45,8.45h140a8.48,8.48,0,0,0,8.45-8.45V97.05h-30.1A8.47,8.47,0,0,1,305.19,88.6Z"/><rect class="cls-15" x="206.89" y="111.73" width="112.78" height="5.62"/><rect class="cls-15" x="206.89" y="125.92" width="112.78" height="5.62"/><rect class="cls-15" x="236.41" y="97.54" width="53.75" height="5.62"/><rect class="cls-15" x="206.89" y="140.11" width="112.78" height="5.62"/><rect class="cls-15" x="206.89" y="154.3" width="112.78" height="5.62"/><rect class="cls-15" x="206.89" y="168.49" width="112.78" height="5.62"/><rect class="cls-15" x="206.89" y="182.68" width="112.78" height="5.62"/><rect class="cls-15" x="206.89" y="196.88" width="112.78" height="5.62"/><path class="cls-17" d="M172.61,261.14a6.74,6.74,0,0,0,4.53,1.78h174a6.8,6.8,0,0,0,6.78-6.78v-95.5a6.75,6.75,0,0,0-2.25-5l-91.52,56.14Z"/><path class="cls-18" d="M172.61,261.14a6.74,6.74,0,0,0,4.53,1.78h174a6.74,6.74,0,0,0,4.53-1.78l-91.52-49.36Z"/><path class="cls-19" d="M172.84,261.33l91.29-49.54L172.7,155.57a6.74,6.74,0,0,0-2.34,5.08v95.5A6.75,6.75,0,0,0,172.84,261.33Z"/></svg>