<svg xmlns="http://www.w3.org/2000/svg" xmlns:xlink="http://www.w3.org/1999/xlink" viewBox="0 0 500 500"><defs><style>.cls-1{isolation:isolate;}.cls-2{fill:url(#Degradado_sin_nombre_51);}.cls-3{fill:#df9651;}.cls-4{fill:#b2ccce;}.cls-5{fill:#97aeaf;}.cls-6{fill:#8c8c8c;}.cls-7{fill:#868686;}.cls-8{fill:#a4ac3d;}.cls-9{fill:#777;}.cls-10{fill:#6f6f6f;}.cls-11{fill:#4a454c;}.cls-12,.cls-15{opacity:0.2;}.cls-12,.cls-15,.cls-40{mix-blend-mode:multiply;}.cls-13{fill:#8e8e8e;}.cls-14{fill:#645f66;}.cls-15{fill:#b1b1b2;}.cls-16{fill:#fcc995;}.cls-17{fill:#86c142;}.cls-18{fill:#4c8c9b;}.cls-19{fill:#ffd1a4;}.cls-20{fill:#d8b577;}.cls-21{fill:#fff;}.cls-22{fill:#f8938b;}.cls-23{fill:#32a8b7;}.cls-24{fill:#f4f4f4;}.cls-25{fill:#81c9c3;}.cls-26{fill:#92d6ce;}.cls-27{fill:#69aaaf;}.cls-28{fill:#65a8ae;}.cls-29{fill:#f7c761;}.cls-30{fill:#878787;}.cls-31{fill:#939393;}.cls-32{fill:#a0a0a0;}.cls-33{fill:#998682;}.cls-34{fill:#594947;}.cls-35{fill:#cca576;}.cls-36{fill:#666;}.cls-37{fill:#ccc;}.cls-38{fill:#c73424;}.cls-39,.cls-40{fill:#b2b2b2;}.cls-40{opacity:0.5;}.cls-41{fill:#ffd061;}.cls-42{fill:#3f3f3f;}.cls-43{fill:#fff8e7;}.cls-44,.cls-45{fill:#f78c63;}.cls-45{opacity:0.3;}.cls-46{fill:#aa4f0c;}.cls-47{fill:#3a211a;}.cls-48{fill:#ffa561;}.cls-49{fill:#17a1a3;}.cls-50{fill:#525864;}.cls-51{fill:#414d64;}.cls-52{fill:#be1e2d;}.cls-53{fill:#919191;}.cls-54{fill:#cfb536;}.cls-55{fill:#bda300;}</style><linearGradient id="Degradado_sin_nombre_51" x1="-3246.7" y1="844.22" x2="-3011.11" y2="608.63" gradientTransform="matrix(-0.96, 0.27, 0.27, 0.96, -2952.38, 405.59)" gradientUnits="userSpaceOnUse"><stop offset="0" stop-color="#00b300"/><stop offset="0.13" stop-color="#29cd2b"/><stop offset="0.29" stop-color="#53e857"/><stop offset="0.41" stop-color="#6df973"/><stop offset="0.49" stop-color="#77ff7d"/><stop offset="0.64" stop-color="#77ff87"/><stop offset="0.9" stop-color="#77ffa1"/><stop offset="1" stop-color="#77ffac"/></linearGradient></defs><title>7</title><g class="cls-1"><g id="Capa_1" data-name="Capa 1"><path class="cls-2" d="M64.85,337.25C81.15,393.7,179,437.65,278.58,410.16s185.57-90.33,156.54-195.52S205.78,62.88,170,156.41C133.11,252.94,34.58,232.41,64.85,337.25Z"/><path class="cls-3" d="M220,124c-2.86-11.13-11.63-21-34.87-20.94-30.66,0-35.17,23.69-34.61,40v.12c1.68,23-7.76,21.1-3,44.64,3.11,15.16,0,22.59-6.79,29.72,8.7,6.14,30.75,7.41,44.75,7.09,14,.32,37.26-1.89,46-8-1.29-18.26-4.55-13.94-7.79-27.24-3.1-12.69,7.08-15.76,0-34.66C217.23,137.29,223.29,136.65,220,124Z"/><path class="cls-4" d="M254.06,277.53c-.49-4.12-.23-22.5.34-40.08a52.59,52.59,0,0,0-6.14.55,8.33,8.33,0,0,0-6.31,6.06c-1.63,3,0,27.8,2.1,31.07a10.59,10.59,0,0,0,7.28,6.35,37.66,37.66,0,0,0,3.89.39A15.28,15.28,0,0,1,254.06,277.53Z"/><path class="cls-5" d="M254.06,277.53c-.49-4.11-.23-22.45.34-40a6.76,6.76,0,0,0-.72,0l-1.15.06a5.41,5.41,0,0,0-1.44.32c-1,.48-2,2.94-2.29,5.94-1,3,.74,28.24,2.26,31.54.78,3.34,2.23,5.78,3.22,6.25a4.26,4.26,0,0,0,.9.22A15.47,15.47,0,0,1,254.06,277.53Z"/><path class="cls-6" d="M248.62,253.95a.53.53,0,0,1-.54-.52,95.12,95.12,0,0,1,.18-9.67c.27-2.71,1.18-5.73,2.58-6.38a.54.54,0,0,1,.73.26.55.55,0,0,1-.27.73c-.73.33-1.67,2.48-2,5.49a94.35,94.35,0,0,0-.17,9.53.56.56,0,0,1-.54.56Z"/><path class="cls-7" d="M254.06,277.53c-.24-1.93-.3-7-.24-13.69-4.31,0-8.64,0-13-.06a69.52,69.52,0,0,0,2.53,12.81A11.27,11.27,0,0,0,251,283.2a42.36,42.36,0,0,0,5.11.5A15.8,15.8,0,0,1,254.06,277.53Z"/><path class="cls-6" d="M249.66,253.5a.42.42,0,0,1-.44.43l-1.1,0a.45.45,0,0,1-.46-.43c0-.35,0-.71,0-1A.45.45,0,0,1,248,252l1.12,0a.45.45,0,0,1,.45.41Z"/><path class="cls-6" d="M250,259.4a.39.39,0,0,1-.4.43h-1.1a.5.5,0,0,1-.49-.43c-.12-1.52-.22-3-.3-4.58a.45.45,0,0,1,.44-.44h1.1a.46.46,0,0,1,.47.43C249.79,256.32,249.89,257.86,250,259.4Z"/><path class="cls-8" d="M249.53,255.43a.33.33,0,0,1-.34.34h-.86a.35.35,0,0,1-.37-.33c0-.17,0-.34,0-.51a.33.33,0,0,1,.34-.34h.86a.37.37,0,0,1,.37.33C249.52,255.09,249.52,255.26,249.53,255.43Z"/><path class="cls-9" d="M247.85,257.1c0,.77.1,1.52.16,2.29a.5.5,0,0,0,.49.43h1.1a.39.39,0,0,0,.4-.43c0-.78-.11-1.54-.16-2.3Z"/><path class="cls-6" d="M248.45,255a.37.37,0,0,1-.37-.33l0-.83a.32.32,0,0,1,.33-.34h.55a.35.35,0,0,1,.37.33c0,.28,0,.56,0,.84a.32.32,0,0,1-.33.33Z"/><path class="cls-10" d="M253.85,260.32l-13.43,0c.13,1.15.27,2.29.44,3.44l13,.07C253.82,262.71,253.84,261.54,253.85,260.32Z"/><path class="cls-4" d="M327.95,244.06a8.3,8.3,0,0,0-6.29-6.06,55.26,55.26,0,0,0-6.11-.55c.52,17.52.68,35.84.15,40.08a16.17,16.17,0,0,1-1.17,4.35,40.16,40.16,0,0,0,4.06-.4,10.59,10.59,0,0,0,7.28-6.35C327.93,271.87,329.58,247,327.95,244.06Z"/><path class="cls-5" d="M321.08,243.81c-.29-3-1.26-5.46-2.27-5.94a5.52,5.52,0,0,0-1.45-.32l-1.15-.06-.67,0c.52,17.5.68,35.77.15,40a16.32,16.32,0,0,1-1.15,4.31,4.62,4.62,0,0,0,1.07-.24c1-.48,2.45-2.91,3.23-6.25C320.36,272,322.13,246.8,321.08,243.81Z"/><path class="cls-6" d="M321.28,253.95h0a.56.56,0,0,1-.54-.56c.12-4.67-.07-8.5-.17-9.53-.32-3-1.24-5.16-2-5.49a.56.56,0,0,1-.27-.73.54.54,0,0,1,.72-.26c1.43.65,2.34,3.67,2.6,6.38a95.52,95.52,0,0,1,.18,9.67A.54.54,0,0,1,321.28,253.95Z"/><path class="cls-7" d="M316,263.85c0,6.62-.08,11.7-.34,13.69a16.85,16.85,0,0,1-2.07,6.19,47,47,0,0,0,5.28-.52,11.32,11.32,0,0,0,7.62-6.61,71.8,71.8,0,0,0,2.53-12.81C324.7,263.82,320.36,263.83,316,263.85Z"/><path class="cls-6" d="M320.23,253.5a.43.43,0,0,0,.44.43l1.12,0a.45.45,0,0,0,.45-.43c0-.35,0-.71,0-1a.43.43,0,0,0-.43-.44l-1.12,0a.45.45,0,0,0-.45.41C320.27,252.79,320.25,253.14,320.23,253.5Z"/><path class="cls-6" d="M321.77,254.37h-1.11a.47.47,0,0,0-.48.43c-.06,1.54-.16,3.07-.28,4.61a.4.4,0,0,0,.4.43h1.1a.47.47,0,0,0,.48-.43c.13-1.52.24-3,.3-4.58A.42.42,0,0,0,321.77,254.37Zm.17,1.07a.35.35,0,0,1-.37.33h-.88a.34.34,0,0,1-.33-.34c0-.17,0-.34,0-.52a.36.36,0,0,1,.37-.33h.87a.32.32,0,0,1,.33.34C322,255.11,321.95,255.28,321.94,255.45Z"/><path class="cls-9" d="M322.06,257.1c-.06.77-.11,1.52-.18,2.29a.47.47,0,0,1-.48.43h-1.1a.4.4,0,0,1-.4-.43c.06-.78.11-1.54.16-2.3Z"/><path class="cls-6" d="M321.44,255a.36.36,0,0,0,.38-.33l0-.83a.32.32,0,0,0-.34-.34H321a.37.37,0,0,0-.38.33c0,.28,0,.56,0,.84a.32.32,0,0,0,.33.33Z"/><path class="cls-10" d="M316,260.32c0,1.22,0,2.39,0,3.53l13-.07c.15-1.15.3-2.29.43-3.44Z"/><path class="cls-11" d="M315.7,277.53a17.11,17.11,0,0,1-14.34,14.61c-6.62.87-26.36.87-33,0-6.8-1-13.43-6.73-14.35-14.61s.85-67.6,2.34-74.64,6.76-12.82,13.54-13.83c6.61-.87,23.26-.87,29.85,0,6.79,1,11.71,6.4,13.55,13.83S316.73,269.44,315.7,277.53Z"/><g class="cls-12"><path class="cls-13" d="M253.8,263.85v.82c0-.27,0-.54,0-.82Z"/></g><path class="cls-14" d="M263.08,283c-.65-9,.62-77.58,1.66-85.66a30.5,30.5,0,0,1,1.83-7.33,17.56,17.56,0,0,0-10.17,12.88c-1.49,7-3.28,66.78-2.34,74.64A17.07,17.07,0,0,0,265,291.23,26.44,26.44,0,0,1,263.08,283Z"/><path class="cls-14" d="M313.34,202.89c-1.52-6.14-5.16-10.89-10.21-12.92a34.67,34.67,0,0,1,1.9,7.36c1.32,8.52,2.39,76.36,1.65,85.66a26.82,26.82,0,0,1-1.91,8.25,17,17,0,0,0,10.93-13.71C316.73,269.44,315.23,210.31,313.34,202.89Z"/><path class="cls-4" d="M307.24,214c-.82,6.36-13.36-1.48-22.61-1.48S262.71,220.15,262,214s.15-19.48,1.3-25,3.69-9.53,9-10.34a147.67,147.67,0,0,1,24.57,0c5.34.8,7.58,4.5,9,10.34S308.05,207.58,307.24,214Z"/><path class="cls-5" d="M263.3,188.93c-1.16,5.55-2,18.82-1.3,25,.26,2.27,2.15,2.67,4.85,2.28a169.53,169.53,0,0,1,4.27-37.38C266.61,180,264.33,183.81,263.3,188.93Z"/><path class="cls-5" d="M305.93,188.93c-1.32-5.33-3.32-8.86-7.71-10a169.91,169.91,0,0,1,4.27,37.44c2.63.37,4.46-.08,4.75-2.38C308.05,207.58,307.42,194.77,305.93,188.93Z"/><path class="cls-15" d="M315.7,271.12a17.12,17.12,0,0,1-14.34,14.6c-6.62.87-26.36.87-33,0-6.8-1-13.43-6.73-14.35-14.6-.15-1.15-.22-3.42-.26-6.45,0,6.25,0,11,.26,12.86.91,7.89,7.55,13.59,14.35,14.61,6.59.87,26.34.87,33,0a17.11,17.11,0,0,0,14.34-14.61c.28-2.14.38-8,.33-15.43C316,266.4,315.89,269.63,315.7,271.12Z"/><path class="cls-16" d="M261.33,199.34c-11.94-6.63-19.11,10.64-24.87,23-3.44,7.4-9.28,11.24-13.94,24.82-15.3,2-25.26,10.59-36.31,16.2a8.1,8.1,0,0,0-2.54-2.11c-.4-.19-9.4-3.06-9.4-3.06a1.92,1.92,0,0,0-2.41,1.23,2,2,0,0,0,1.26,2.43l5.43,1.68-11.2,3.86a1.8,1.8,0,0,0-1.13,2.29,1.83,1.83,0,0,0,2.29,1.12l-2.42.83a1.81,1.81,0,0,0-1.12,2.29,1.77,1.77,0,0,0,2.3,1.1l1.69-.58a1.8,1.8,0,0,0,1.22,3.39l3.3-1.1a1.49,1.49,0,0,0-.95,1.93,1.51,1.51,0,0,0,1.93.95l11.31-3.95a4.34,4.34,0,0,0,2.87-3.36c0-.15,0-.27.06-.39,17-4.47,37.4-9.08,41.29-11.75,5.77-8.15,12.37-13.3,20.94-25.85C259.19,222.17,273.64,206.18,261.33,199.34Z"/><path class="cls-17" d="M249.88,239.56c1.09-1.55,2.18-3.18,3.33-5,7.86-12.4,20.49-29.59,7.95-36C249,192.31,240.38,208.72,235,221.28a35.07,35.07,0,0,1-3.63,5.75C236.88,235.21,249.88,239.56,249.88,239.56Z"/><path class="cls-18" d="M220,272.74c-4.35-9-37.14-75.72-47.84-75.72v2.27c6.48,0,30.19,42.15,45.39,73.6A5.18,5.18,0,0,1,220,272.74Z"/><path class="cls-19" d="M198.29,256.31l4.77-21.79a6.05,6.05,0,0,0,1-.36c5.55-2.77,6.75-9.45,2.73-15.44,0,0-.22-.23-.22-.23L210,202.77l-18.78-4.64v-9.38a19.16,19.16,0,0,1-5.6,1,20.62,20.62,0,0,1-5.82-1v9.38l-18.87,4.64,3.43,15.63a2.2,2.2,0,0,1-.27.32c-4,6-2.82,12.68,2.72,15.44a5.69,5.69,0,0,0,1.09.39l4.77,21.77s-11.26,10.58-13.76,30.89a397.13,397.13,0,0,0-3.34,54.12,15,15,0,0,0,.63,7.52c1.09,3.73,13.37,41.2,13.62,47.16s2.4,9.18,1,11.73c-2,3.56-1.56,4.22-.6,5.14.88.55,2,.67,4.39,0,1.27-.37,4.33-3.06,4.85-5.55.94-4.67-1.66-6.17-.07-14.15.68-3.44-1.05-5.84-4-5.84-3.83,0,.76-23.15-.37-34.29s-8-11.43-8-11.43,14.44-28.14,17.49-50l2.5.1.13,0,2.35,53.82a67.41,67.41,0,0,0-1.89,9.86c-.41,4.58,1.23,40.87-.18,48-.56,2.83-6.28,7.9-3.88,9.47h10.87c1.83-1.8-.66-3.69-.32-7.23,1-10.21,11.76-37.53,10.36-48a21.85,21.85,0,0,0-6-12.49s14.94-37,14.5-57.85S198.29,256.31,198.29,256.31Z"/><path class="cls-20" d="M191.26,192.11v-3.38a19.15,19.15,0,0,1-5.6,1,20.63,20.63,0,0,1-5.82-1v3.38a21,21,0,0,0,5.82,1A20.38,20.38,0,0,0,191.26,192.11Z"/><path class="cls-21" d="M183.17,412.92h12.62c2,2.29-1.57,4.06-6.31,4.06S181.15,415.21,183.17,412.92Z"/><path class="cls-22" d="M195.79,412.92c1.29-3-.51-10.2-6.28-10.2s-7.63,7.19-6.34,10.2c0,0,1.42,1.37,6.06,1.37S195.79,412.92,195.79,412.92Z"/><path class="cls-23" d="M184.9,410c0,.46,2,0,4.58,0s4.59.46,4.59,0-2.06-1.44-4.59-1.44S184.9,409.55,184.9,410Z"/><path class="cls-21" d="M191.48,405.43a.51.51,0,1,0,.51-.5A.51.51,0,0,0,191.48,405.43Z"/><path class="cls-21" d="M186.47,405.43a.5.5,0,1,0,.51-.5A.5.5,0,0,0,186.47,405.43Z"/><path class="cls-21" d="M191.48,404a.51.51,0,1,0,1,0,.51.51,0,0,0-1,0Z"/><path class="cls-21" d="M186.47,404a.5.5,0,1,0,1,0,.5.5,0,0,0-1,0Z"/><path class="cls-21" d="M191.48,406.91a.51.51,0,1,0,.51-.5A.51.51,0,0,0,191.48,406.91Z"/><path class="cls-21" d="M186.47,406.91a.5.5,0,1,0,.51-.5A.5.5,0,0,0,186.47,406.91Z"/><path class="cls-21" d="M191.48,408.37a.51.51,0,1,0,.51-.5A.52.52,0,0,0,191.48,408.37Z"/><path class="cls-21" d="M186.47,408.37a.5.5,0,1,0,1,0,.5.5,0,0,0-1,0Z"/><polygon class="cls-21" points="191.92 408.59 186.19 406.87 191.17 405.36 186.93 404.19 187.04 403.75 192.81 405.33 187.78 406.87 192.06 408.16 191.92 408.59 191.92 408.59"/><polygon class="cls-21" points="187.04 408.59 186.93 408.16 191.21 406.87 186.16 405.33 191.93 403.75 192.05 404.19 187.8 405.36 192.77 406.87 187.04 408.59 187.04 408.59"/><path class="cls-21" d="M169.93,397.92a41,41,0,0,0,1.32,8.76c-2.13,2.72-2.9,4.91-2.85,6.5a3.12,3.12,0,0,0,.57,1.89c5.68,2.68,9.74-2,11.16-6.08,1.58-4.49.1-9,1-16.17.34-2.74-.46-4.86-2.26-5.53-.56-.21-2.31-.43-2.92.22s.11,3.58-.11,5.79C175.23,398.9,169.9,397.45,169.93,397.92Z"/><path class="cls-22" d="M169,397.19a40.5,40.5,0,0,0,1.31,8.78c-3.16,4-2.61,6.42-1.66,7.35,5.69,2.67,9.08-2,10.5-6,1.58-4.49.39-8,.48-15.18a8,8,0,0,0-.73-4.08c-.72-.93-1.89-1.28-3.94-1.28-.86,0,.13,3.58-.1,5.79C174.27,398.18,168.95,396.73,169,397.19Z"/><path class="cls-23" d="M171.37,405.31a7.66,7.66,0,0,1-1.27-.08c.06.26.11.49.18.74a11.83,11.83,0,0,0-2.11,3.73l1,.34c1.83.48,5.18-.23,6.38-4.16S173.12,405.31,171.37,405.31Z"/><path class="cls-23" d="M178.88,388.06c-.63-.8-1.63-1.16-3.23-1.24h0a4.49,4.49,0,0,0,3.55,2A4.06,4.06,0,0,0,178.88,388.06Z"/><path class="cls-21" d="M169,398.29a.5.5,0,0,1-.43.56.49.49,0,0,1-.57-.43.5.5,0,0,1,.43-.55A.49.49,0,0,1,169,398.29Z"/><path class="cls-21" d="M174,397.57a.5.5,0,1,1-.55-.41A.48.48,0,0,1,174,397.57Z"/><path class="cls-21" d="M169.31,400.39a.5.5,0,0,1-1,.13.5.5,0,0,1,1-.13Z"/><path class="cls-21" d="M174.27,399.67a.5.5,0,0,1-.43.57.49.49,0,0,1-.57-.43.5.5,0,0,1,1-.15Z"/><path class="cls-21" d="M169.61,402.47a.5.5,0,1,1-.56-.41A.49.49,0,0,1,169.61,402.47Z"/><path class="cls-21" d="M174.57,401.76a.51.51,0,0,1-.43.57.5.5,0,1,1,.43-.57Z"/><polygon class="cls-21" points="169.24 402.75 169.01 402.36 173.19 399.83 168.46 398.58 168.58 398.14 174.35 399.65 169.24 402.75 169.24 402.75"/><polygon class="cls-21" points="174.01 402.06 168.23 400.55 173.35 397.46 173.59 397.85 169.4 400.39 174.13 401.63 174.01 402.06 174.01 402.06"/><path class="cls-21" d="M169.92,404.57a.5.5,0,0,1-.43.57.49.49,0,0,1-.57-.43.5.5,0,0,1,1-.15Z"/><path class="cls-21" d="M174.88,403.86a.5.5,0,0,1-.43.57.49.49,0,0,1-.57-.43.48.48,0,0,1,.43-.56A.5.5,0,0,1,174.88,403.86Z"/><polygon class="cls-21" points="169.54 404.85 169.3 404.46 173.95 401.65 174.19 402.04 169.54 404.85 169.54 404.85"/><polygon class="cls-21" points="174.32 404.15 169.06 402.77 169.19 402.34 174.44 403.71 174.32 404.15 174.32 404.15"/><path class="cls-24" d="M210.5,272.38c-2.89.38-14.43,2.19-25.27,2.19A153.56,153.56,0,0,1,162,272.45c-5.61,13.47-12.58,62-9.6,73.46s3.35,32.39,3.35,32.39,18.57,8.84,59.85.12C218.72,364.1,222.1,290.26,210.5,272.38Z"/><path class="cls-19" d="M234.37,243.86c-5.11-4.66-9.53-9.9-15.07-15.32a210.9,210.9,0,0,1-15.07-16.31c-5-6.2,2.43-13.7,9.3-7.31,5.53,5.14,9.36,13.33,15.35,19,8.42,8,14.29,14.54,14.29,14.54l6.74,1.4c11.92,2.07,22.28,9.09,31.85,13a7.2,7.2,0,0,1,2.18-2.95c.3-.22,7.29-3.67,7.29-3.67a1.57,1.57,0,0,1,2.12.7,1.61,1.61,0,0,1-.72,2.13l-4.22,2.07,9.63,1.74a1.48,1.48,0,0,1,1.21,1.72,1.52,1.52,0,0,1-1.72,1.21l2.07.38a1.47,1.47,0,0,1,1.21,1.72,1.48,1.48,0,0,1-1.73,1.19l-1.46-.27a1.48,1.48,0,0,1-.57,2.91l-2.83-.48a1.26,1.26,0,0,1-.43,2.48l-9.74-1.79a3.64,3.64,0,0,1-2.78-2.4,8.5,8.5,0,0,1-.17-.95c-10.28-2-35.28-9.14-40.46-11h0C237.64,247.68,236.32,245.66,234.37,243.86Z"/><path class="cls-19" d="M163.88,202.57c-2.44-.55-6.33.91-7.5,5.51-4.61,18.12-8.78,31.31-13.77,42.51-13.63,1.37-24.9,10-35.38,14.75a6,6,0,0,0-2.47-2.78c-.32-.17-7.4-3.39-7.4-3.39a1.6,1.6,0,0,0-2.09.77,1.62,1.62,0,0,0,.79,2.11l4.28,1.9-9.52,2.1a1.48,1.48,0,0,0-1.15,1.77A1.51,1.51,0,0,0,91.44,269l-2.05.44a1.49,1.49,0,0,0-1.13,1.78A1.47,1.47,0,0,0,90,272.29l1.44-.33a1.52,1.52,0,0,0-1.1,1.76,1.49,1.49,0,0,0,1.78,1.13l2.8-.59a1.25,1.25,0,0,0-.95,1.5,1.23,1.23,0,0,0,1.48,1l9.63-2.16a3.58,3.58,0,0,0,2.68-2.49,8.2,8.2,0,0,0,.19-1,375.07,375.07,0,0,0,40.52-12.72c2.54-1,2.77-3.49,3.88-5.9,5.58-12.19,9.81-24.77,15.14-43.91A4.83,4.83,0,0,0,163.88,202.57Z"/><path class="cls-25" d="M169.3,259.8C173,262,180,265,185.23,265c5.47,0,12.61-3.12,16.44-5.45,5.38-1.86,5.73-27.79,6.57-29.51,1.56-3.22,1.17-7.42-1.45-11.32,0,0-.22-.23-.22-.23-3.08-2.69,1.32-14.68,1.65-16.14l-10.15-2.52c-.73,7.29-6,13-12.34,13s-11.67-5.72-12.37-13.07l-10.27,2.51c.32,1.46,4.32,13.46,1.29,16.17a2.2,2.2,0,0,1-.27.32c-2.95,4.38-3.09,9.12-.79,12.45C164.14,232.37,164.12,258.24,169.3,259.8Z"/><path class="cls-26" d="M189.63,261.48a3.59,3.59,0,1,1-3.59-3.6A3.59,3.59,0,0,1,189.63,261.48Z"/><path class="cls-26" d="M187.39,261.4c-2.25,1-2.4,9.74,1.76,21.57C191.39,277.06,196.5,257.24,187.39,261.4Z"/><path class="cls-26" d="M185.62,260c2.69.49.16,13.63-1.24,19.22s-2.14,10-1.51,12.07C175.88,286.16,175.87,258.25,185.62,260Z"/><polygon class="cls-26" points="180.32 221.11 167.72 221.11 167.72 233.41 174.02 237.03 180.32 233.41 180.32 221.11"/><polygon class="cls-26" points="204.25 221.11 191.64 221.11 191.64 233.41 197.94 237.03 204.25 233.41 204.25 221.11"/><circle class="cls-27" cx="185.45" cy="218.56" r="1.75"/><path class="cls-27" d="M187.2,229.77a1.75,1.75,0,1,1-1.76-1.77A1.75,1.75,0,0,1,187.2,229.77Z"/><path class="cls-27" d="M187.2,241a1.75,1.75,0,1,1-1.76-1.74A1.75,1.75,0,0,1,187.2,241Z"/><circle class="cls-27" cx="185.45" cy="252.16" r="1.75"/><path class="cls-18" d="M201.23,278.35a4.77,4.77,0,0,1,.74-.26l.7-.21c-7.3-13.12-34.35-74.66-30.48-78.59V197a2.19,2.19,0,0,0-2,1.15c-4.46,7.72,25.48,71.32,30.37,80.62A3.15,3.15,0,0,1,201.23,278.35Z"/><path class="cls-18" d="M202,278.09a4.77,4.77,0,0,0-.74.26c-5.68,2.49-2.84,22.6-.7,27.3,1.21,2.64,2.68,3.21,5.55,3.23a10.88,10.88,0,0,0,3.44-.62c2.61-.88,17.58-6,18.53-6.23,2.88-.76,5.39-3.17,5-5.75-1-7.68-5.92-18-10.21-22a4.93,4.93,0,0,0-5.29-1.41C217.37,272.95,204,277.59,202,278.09Z"/><path class="cls-25" d="M206.08,308.88c-2.86,0-4.34-.59-5.55-3.23-2.15-4.71-5-24.82.7-27.3,2.3-1,3.61.19,4.95,1.91,3.11,4,7.67,16.28,7.52,22.5C213.61,306.69,208.94,308.91,206.08,308.88Z"/><path class="cls-18" d="M202,278.09a4.77,4.77,0,0,0-.74.26,4.08,4.08,0,0,1,.79-.28Z"/><path class="cls-28" d="M222.87,274.3a4.93,4.93,0,0,0-5.29-1.41c-.21,0-13.29,4.59-15.52,5.18,1.8-.41,2.95.7,4.12,2.19,3.11,4,8.23,16.6,16.13,14.15S227.16,278.31,222.87,274.3Z"/><path class="cls-29" d="M223,289.52a1.66,1.66,0,1,1-1.66-1.66A1.67,1.67,0,0,1,223,289.52Z"/><path class="cls-16" d="M251.11,198.69A26,26,0,0,1,262,195.38c5.84-2,12-3.89,12-3.89V183.8a27.55,27.55,0,0,0,19,0v7.65l8.57,2.86c4.88-3.74,11.91-4.3,20-9.14,4.45-2.66,5.06-4.11,8.28-6.37a27.87,27.87,0,0,0,10.84-15.07c3.19-11.1,10.29-20.85,14.48-29.59a8,8,0,0,1-2.35-2.3c-.23-.38-4-9-4-9a1.93,1.93,0,0,1,1-2.52,2,2,0,0,1,2.53,1l2.24,5.22,2.67-11.51a1.81,1.81,0,0,1,2.17-1.37,1.85,1.85,0,0,1,1.34,2.16l.57-2.47a1.79,1.79,0,1,1,3.5.8l-.41,1.74a1.8,1.8,0,0,1,3.49.86l-.76,3.39a1.51,1.51,0,1,1,2.95.68l-2.74,11.63a4.35,4.35,0,0,1-3.06,3.19c-.13,0-.27,0-.39.1-1.77,11.13-4,24.65-6.05,34a32.4,32.4,0,0,1-8,15.37c-8.28,8.81-10.83,16.53-22.75,22.11-8.23,3.84-12.46,9.69-14.12,14.66-.16,3.08-.77,10.26-3.08,15.66-1.35,3.13-2.37,35.84-2.37,35.84h0a26.75,26.75,0,0,1,2.72,24.48c2.39,15.29-3,30.61-3.5,44.08a51.32,51.32,0,0,0,1,10.47l.23.35a54.67,54.67,0,0,1,4.5,15.42,14.28,14.28,0,0,1,.22,2c.27,8.67-7,32.45-6.69,35.64s3.56,8.67-2.45,8.64c-2.24,0-9.68.08-16.49.08-2,0-2.38-2.24-.49-3.34a23,23,0,0,0,3.82-2.29c2.55-2.17,5.5-6.76,5.35-8.61-.34-4-3.58-32.13-3.68-33h0c-.15-4.14.94-14.13.94-14.13h-.12s-1.66-7-.93-10.16a102.16,102.16,0,0,1-5.18-41.24h-4.12c-.16,15.79-5.9,27.72-7.45,40.18a52.2,52.2,0,0,0,0,10.73l.07.1a50.91,50.91,0,0,1,3.13,15.78,11.58,11.58,0,0,1,0,1.6c-.4,8.42-9.67,32.45-9.67,35.64s2.84,8.67-3.17,8.64c-2.23,0-9.68.08-16.49.08-1.95,0-2.19-2.24-.21-3.34a25.45,25.45,0,0,0,4-2.29c2.72-2.17,6.06-6.76,6.06-8.61,0-4-1.06-28.71-.85-33l-.11,0c.22-4.14,2.18-14.13,2.18-14.13s-1-7,0-10.16a100.74,100.74,0,0,1-1.54-41.25L260,273.39s-1-32.25-2.9-36.31a29.93,29.93,0,0,1-1.73-4.9Z"/><path class="cls-30" d="M255.26,407.57a17.16,17.16,0,0,0-3.3-.12,40.78,40.78,0,0,0,5.2-5.11c2.84-3.06,7.53-1.84,6.51,1.62a15.22,15.22,0,0,1-3.91,5.8A8.34,8.34,0,0,0,255.26,407.57Z"/><path class="cls-31" d="M256,407.75c-.23-.06-.45-.13-.69-.18a16.74,16.74,0,0,0-4.42,0,23.51,23.51,0,0,0,5.22-4.75c.84-1.08,3.44-.21,3,.82A25,25,0,0,1,256,407.75Z"/><path class="cls-31" d="M257.2,408.13a39.32,39.32,0,0,1,4.57-5c1.21-1.08,9.26-1.19,9.58-.6.44.79,2.11,7.89-.4,12.08h-9.59v-.34C261.36,410.67,259.5,409,257.2,408.13Z"/><path class="cls-32" d="M244.72,414.65v-.34c0-4.62,2.95-6.12,6.07-6.74a17.11,17.11,0,0,1,4.47,0c3.13.62,6.09,2.12,6.09,6.74v.34Z"/><rect class="cls-33" x="244.01" y="414.65" width="27.69" height="1.58"/><path class="cls-30" d="M292.68,407.57a17.41,17.41,0,0,0-3.33-.12,35.72,35.72,0,0,0,4.8-5.11c2.62-3.06,7.4-1.84,6.64,1.62a13.84,13.84,0,0,1-3.46,5.8A9.09,9.09,0,0,0,292.68,407.57Z"/><path class="cls-31" d="M293.39,407.75c-.23-.06-.46-.13-.71-.18a16.75,16.75,0,0,0-4.42,0,20.49,20.49,0,0,0,4.83-4.75c.76-1.08,3.42-.21,3,.82A20.83,20.83,0,0,1,293.39,407.75Z"/><path class="cls-31" d="M294.66,408.13a35.14,35.14,0,0,1,4.18-5c1.12-1.08,9.18-1.19,9.54-.6.49.79,2.72,7.89.54,12.08h-9.59l0-.34A6.57,6.57,0,0,0,294.66,408.13Z"/><path class="cls-32" d="M282.69,414.65l0-.34c-.35-4.62,2.49-6.12,5.56-6.74a17.12,17.12,0,0,1,4.47,0c3.17.62,6.25,2.12,6.62,6.74l0,.34Z"/><polygon class="cls-33" points="309.68 414.65 309.8 416.23 282.1 416.23 281.98 414.65 309.68 414.65"/><path class="cls-34" d="M307.51,273.39s4.82,4.68,5.08,14.75a304,304,0,0,1-3.69,54.75s-7.25,1.43-19.6,0c-5.33-23-4.52-39.25-4.52-39.25h-1s-3.14,26.5-7.06,39.24c-1.48,0-6,2.07-19,0-4.47-29.83,2.22-69.5,2.22-69.5Z"/><path class="cls-34" d="M300.81,319.81v11.38a2.7,2.7,0,0,0,2.71,2.71h5.7a2.7,2.7,0,0,0,2.69-2.71V319.81Z"/><rect class="cls-34" x="299.85" y="313.75" width="13.04" height="6.06"/><path class="cls-34" d="M266.84,319.81v11.38a2.69,2.69,0,0,1-2.71,2.71h-5.7a2.7,2.7,0,0,1-2.69-2.71V319.81Z"/><rect class="cls-34" x="254.76" y="313.75" width="13.04" height="6.06"/><rect class="cls-34" x="281.13" y="273.39" width="5.71" height="30.23"/><path class="cls-34" d="M312.59,288.14c-.27-10.07-5.08-14.75-5.08-14.75h-5.09c0,5.24-.06,15.31,0,16-.23,8,3.16,12.32,10.2,13.08C312.69,297.88,312.72,293.09,312.59,288.14Z"/><path class="cls-34" d="M256.8,302.44c6.9-.82,10.84-5.08,10.6-13,0-.69,0-10.76,0-16H260S257.85,286.05,256.8,302.44Z"/><path class="cls-17" d="M251.11,198.69A26,26,0,0,1,262,195.38c2.61-.89,5.24-1.74,7.4-2.44.81,5.69,6.94,10.14,14.47,10.14s13.43-4.28,14.43-9.81l3.23,1.08c4.88-3.74,19.36-10.11,19.59-10.25,0,0,4.61,1.94,8.62,8.6A22.08,22.08,0,0,1,333,205.08c-5.12,4.83-17,7.4-20.08,16.81-.16,3.08-.77,10.26-3.08,15.66-1.35,3.13,3.44,40.38.65,41.89,0,0-26.64,6.19-51.33.07a29.38,29.38,0,0,1,.79-6.13s-1-32.25-2.9-36.31a29.93,29.93,0,0,1-1.73-4.9Z"/><path class="cls-5" d="M314.44,260a10.47,10.47,0,0,0-1.84-7.11c-15.22-24-3-51.13-1.49-57.42.67-2.68-2.68-3.89-5.45-4s-5.61.08-6.27,2.75c-2.16,8.64-10.12,47,10.34,69.94C311.58,266.2,314,264.43,314.44,260Z"/><path class="cls-5" d="M254.85,260a10.53,10.53,0,0,1,1.83-7.11c15.25-24,3.06-51.13,1.49-57.42-.66-2.68,2.69-3.89,5.45-4s5.62.08,6.28,2.75c2.16,8.64,10.12,47-10.34,69.94C257.73,266.2,255.26,264.43,254.85,260Z"/><path class="cls-35" d="M293,186.75v-2.91a27.55,27.55,0,0,1-19,0v2.92a27.63,27.63,0,0,0,19,0Z"/><path class="cls-36" d="M283.41,225.28h0a.76.76,0,0,1-.7-.44c-.35-.78-1-1.88-1.74-3.26-3.36-6-9.63-17.16-9.63-29.94a.76.76,0,1,1,1.51,0c0,12.38,6.14,23.32,9.45,29.19.41.76.79,1.41,1.11,2,.3-.59.68-1.24,1.1-2C287.81,215,294,204,294,191.65a.76.76,0,1,1,1.51,0c0,12.79-6.27,23.94-9.63,29.94-.78,1.39-1.39,2.48-1.74,3.26A.75.75,0,0,1,283.41,225.28Z"/><path class="cls-37" d="M265.43,221.59a1,1,0,0,0,1,1h1.39v-2h-1.39A1,1,0,0,0,265.43,221.59Zm1.68,0a.66.66,0,0,1-1.32,0,.66.66,0,0,1,1.32,0Zm33.24-1H299v2h1.39a1,1,0,0,0,0-2Zm0,1.68a.66.66,0,1,1,0-1.32.66.66,0,1,1,0,1.32Z"/><rect class="cls-38" x="270.71" y="216.5" width="1.62" height="0.66"/><rect class="cls-37" x="269.66" y="217.16" width="3.72" height="1.34"/><path class="cls-39" d="M280.62,218.5v-1.79a.29.29,0,0,0-.29-.29H275a.29.29,0,0,0-.29.29v1.79Z"/><path class="cls-6" d="M278.53,218.5h.39v-1.86h-.39Zm-.69,0h.39v-1.86h-.39Zm1.38,0h.39v-1.86h-.39Zm.71-1.86v1.86h.38v-1.86Zm-3.47,1.86h.39v-1.86h-.39Zm-1.39,0h.39v-1.86h-.39Zm2.08,0h.39v-1.86h-.39Zm-1.39,0h.39v-1.86h-.39Z"/><path class="cls-40" d="M276,216.42h-1a.29.29,0,0,0-.29.29v1.79H276Z"/><path class="cls-41" d="M299,238.25a.76.76,0,0,1-.77.77H268.61a.76.76,0,0,1-.77-.77v-19a.77.77,0,0,1,.77-.78h29.58a.77.77,0,0,1,.77.78Z"/><rect class="cls-36" x="267.4" y="223.78" width="32" height="14.02"/><rect class="cls-39" x="284.22" y="219.47" width="7.42" height="3.56"/><rect class="cls-6" x="291.65" y="219.47" width="4.58" height="3.56"/><path class="cls-39" d="M292.59,234.07a7.36,7.36,0,0,1-1.38,1.51l.84.85A1,1,0,0,0,293.5,235Zm.66,2.11a.65.65,0,0,1-.93,0,.65.65,0,0,1,0-.94.65.65,0,0,1,.93,0A.67.67,0,0,1,293.24,236.18Z"/><circle class="cls-42" cx="286.54" cy="229.94" r="7.33"/><path class="cls-43" d="M293.4,229.94a6.86,6.86,0,1,1-6.86-6.86A6.86,6.86,0,0,1,293.4,229.94Z"/><ellipse class="cls-41" cx="286.54" cy="229.94" rx="5.54" ry="5.53"/><path class="cls-36" d="M291,229.94a4.44,4.44,0,1,1-4.45-4.45A4.45,4.45,0,0,1,291,229.94Z"/><path class="cls-6" d="M288.82,229.94a2.27,2.27,0,1,1-2.28-2.28A2.28,2.28,0,0,1,288.82,229.94Z"/><path class="cls-36" d="M281.6,221.57a1.3,1.3,0,1,1-1.3-1.3A1.31,1.31,0,0,1,281.6,221.57Z"/><path class="cls-17" d="M249.82,136.22h62.63s-.85-33.18-31.31-33.35S249.82,136.22,249.82,136.22Z"/><ellipse class="cls-44" cx="247.89" cy="164.14" rx="7.52" ry="10.03" transform="translate(-45.01 215.18) rotate(-43.39)"/><ellipse class="cls-44" cx="321.01" cy="164.14" rx="10.03" ry="7.52" transform="translate(-18.81 284.61) rotate(-46.6)"/><path class="cls-16" d="M250.76,166.82c-2.8-8.36-1.64-18.9,2.64-25,7.13-10.09,23.26-15.27,35.22-15.32,8.89,0,24.17,8.69,28.56,17.36,18.27,36-42.09,52.87-62.29,30.28A21,21,0,0,1,250.76,166.82Z"/><circle class="cls-45" cx="267.63" cy="167.92" r="8.09"/><path class="cls-46" d="M249,162.19S234.23,134,278.82,106.73c0,0,6.13-6.13,7.8-11.15,0,0,32.61,15.61,33.72,59.64,0,0-2-21.18-34.84-19C245.44,139,249,162.19,249,162.19Z"/><polygon class="cls-44" points="284.4 150.21 279.38 166.93 293.32 166.37 284.4 150.21"/><path class="cls-47" d="M286,172c-4.28,2.23-11.91,2.85-13.21-3.15-.34-1.58-2.76-.91-2.42.67,1.66,7.72,11.2,7.62,16.89,4.65C288.7,173.39,287.43,171.23,286,172Z"/><ellipse class="cls-47" cx="273.25" cy="155.78" rx="2.49" ry="5.29"/><ellipse class="cls-47" cx="297.22" cy="155.78" rx="2.49" ry="5.29"/><circle class="cls-45" cx="302.19" cy="167.92" r="8.09"/><ellipse class="cls-48" cx="149.98" cy="169.64" rx="7.3" ry="9.73" transform="translate(-75.55 149.41) rotate(-43.39)"/><ellipse class="cls-48" cx="220.9" cy="169.64" rx="9.73" ry="7.3" transform="translate(-54.14 213.58) rotate(-46.6)"/><path class="cls-19" d="M152.76,172.24c-2.71-8.1-1.59-18.32,2.56-24.2,6.91-9.78,22.55-14.81,34.15-14.86,8.62,0,23.44,8.43,27.7,16.84,17.72,34.95-40.81,51.27-60.41,29.36A20.34,20.34,0,0,1,152.76,172.24Z"/><path class="cls-3" d="M187.44,129.84S176.13,159,150,157.29c0,0,5.74-17.67,7.69-18.57S187.44,129.84,187.44,129.84Z"/><circle class="cls-45" cx="168.19" cy="170.68" r="8.09"/><path class="cls-44" d="M185,153l-3.39,16.66,10.23-.41-3.35-2.82c-2-1.41-1.78-3.59-2.19-6Z"/><path class="cls-47" d="M186.55,174.73c-4.28,2.23-11.91,2.85-13.21-3.15-.34-1.58-2.76-.91-2.42.67,1.66,7.72,11.2,7.62,16.89,4.65C189.26,176.15,188,174,186.55,174.73Z"/><ellipse class="cls-47" cx="173.81" cy="158.54" rx="2.49" ry="5.29"/><ellipse class="cls-47" cx="197.78" cy="158.54" rx="2.49" ry="5.29"/><circle class="cls-45" cx="202.75" cy="170.68" r="8.09"/><path class="cls-47" d="M199.31,159.26c2.3,1.25,4.43-.73,4.43-.73a9.24,9.24,0,0,1-5-1.58"/><path class="cls-47" d="M172.49,159.26c-2.3,1.25-4.43-.73-4.43-.73a9.24,9.24,0,0,0,5-1.58"/><path class="cls-49" d="M248,294.56s-21,19.54-24.74,23.14c-9.41,9-15,14.57-21.69,21.74a12.52,12.52,0,0,1,4.78-1,9.82,9.82,0,0,1,3.64.84c5.43-5.65,10.77-10.91,19.1-18.86,3.66-3.5,24.47-23.57,24.47-23.57Z"/><path class="cls-16" d="M299.17,342.29l-1.46-.65a1.15,1.15,0,0,0,1.48-.57,1.13,1.13,0,0,0-.57-1.49l-6.74-3,3.47-.75a1.2,1.2,0,1,0-.52-2.34s-5.74,1.3-6,1.38a3.33,3.33,0,0,0-.72.37c-.13,0-.44.21-.79.61-6.33-4.51-9.07-5.85-17.77-10.53-4.1-8.32-4.72-9.28-6.06-14.85-1.43-5.92-3.27-11.91-12.81-12.6l-7.27-2.68V288c-1.28.3-7.52,2.08-8.89,2.08a86.63,86.63,0,0,1-8.83-.47v5.56l-6.51,1.87c-6.56.07-10.8,4-14.37,8-2.13,2.41-4,4.43-10,6-1.74-4.13-5.66-11.09-9.18-18.58.06-.08.46-.43.44-.48a3.21,3.21,0,0,0,.43-.69c.1-.26,1.81-5.89,1.81-5.89a1.2,1.2,0,1,0-2.29-.69l-1,3.4-2.52-6.94a1.13,1.13,0,0,0-1.44-.68,1.14,1.14,0,0,0-.68,1.44l-.54-1.5a1.12,1.12,0,1,0-2.11.77l.38,1a1.12,1.12,0,0,0-2.1.79l.72,2a.93.93,0,0,0-1.22-.56.92.92,0,0,0-.56,1.2l2.57,7a2.61,2.61,0,0,0,1.34,1.49c4.09,9.66,5.29,19.25,14.61,29.14,12.66-4.79,20-4.45,23.1-8.31.19,3.21.66,7.44,1.81,10,2,4.58,2.07,16,1.44,18.75-3.92,3.25-2.78,17.91-2.38,21.17s4.22,19.69,4.22,19.69a40,40,0,0,0-1,9.84c.23,4.78,4.79,17.52,4.79,19.33s-2.11,4.26-.77,5.06c1.85,1,8.73.66,9.31-.06,1.19-1.46-1.69-4.13-1.69-6.43s2.42-17.76,2.29-20.11-2.35-7.42-2.35-7.42l2.43-19.15,7.59,17.33a36.82,36.82,0,0,0-.68,9c.3,3.43,7.32,15.37,9.31,20.1-.85,2.32-2.52,7.69,3.6,6.46,4.32-.86,8.73,1.24,12.09.94a6.31,6.31,0,0,0,3.66-1.87c.86-.91.49-2.23-1.28-2.14-2.89.17-7-1.39-8.95-2.7-2.59-1.73-2.81-4.1-3.09-5.65-1.31-7.16-3.86-22.09-2.82-24.46.21-3.63-5.58-35.43-5.58-35.43,0-1.8.36-18.08,2.23-22.06a20,20,0,0,0,1.51-5.54c6.31,7.34,4.86,7,9.47,11.28,6.62,5.54,10.49,8.36,23.51,11.05a2.65,2.65,0,0,0,1.44,1.57l6.81,3.08a.95.95,0,0,0,.77-1.73l2,.87a1.12,1.12,0,0,0,.94-2l1,.46a1.12,1.12,0,1,0,.92-2Z"/><path class="cls-21" d="M223.64,419h11.59c1.86,1.64-1.44,2.41-5.79,2.41S221.78,420.67,223.64,419Z"/><path class="cls-23" d="M235.23,419c1.19-2.15-.47-7.29-5.76-7.29s-7,5.14-5.83,7.29c0,0,1.31.48,5.57.48A25.81,25.81,0,0,0,235.23,419Z"/><path class="cls-50" d="M225.23,417c0,.33,1.88,0,4.21,0s4.22.33,4.22,0-1.89-1-4.22-1S225.23,416.63,225.23,417Z"/><path class="cls-21" d="M231.16,413.69a.36.36,0,1,0,.36-.35A.36.36,0,0,0,231.16,413.69Z"/><path class="cls-21" d="M227,413.69a.36.36,0,0,0,.37.37.36.36,0,1,0-.37-.37Z"/><path class="cls-21" d="M231.16,412.64a.36.36,0,1,0,.72,0,.36.36,0,1,0-.72,0Z"/><path class="cls-21" d="M227,412.64a.36.36,0,0,0,.37.36.36.36,0,0,0,.35-.36.36.36,0,0,0-.35-.36A.37.37,0,0,0,227,412.64Z"/><path class="cls-21" d="M231.16,414.74a.36.36,0,1,0,.72,0,.36.36,0,1,0-.72,0Z"/><path class="cls-21" d="M227,414.74a.36.36,0,0,0,.37.36.36.36,0,0,0,.35-.36.36.36,0,0,0-.35-.36A.37.37,0,0,0,227,414.74Z"/><path class="cls-21" d="M231.16,415.78a.36.36,0,1,0,.36-.35A.36.36,0,0,0,231.16,415.78Z"/><path class="cls-21" d="M227,415.78a.36.36,0,0,0,.37.37.36.36,0,1,0-.37-.37Z"/><path class="cls-50" d="M227.34,416a.18.18,0,0,1-.17-.13.17.17,0,0,1,.12-.21l3.54-.88-3.56-.88a.18.18,0,0,1-.13-.17.17.17,0,0,1,.13-.17l4.21-1a.17.17,0,0,1,.21.12.17.17,0,0,1-.13.21l-3.54.87,3.55.88a.18.18,0,0,1,.13.17.17.17,0,0,1-.13.17l-4.2,1.06Z"/><path class="cls-50" d="M231.52,416h0l-4.2-1.06a.17.17,0,0,1-.13-.17.18.18,0,0,1,.13-.17l3.55-.88-3.54-.87a.17.17,0,0,1-.12-.21.18.18,0,0,1,.21-.12l4.21,1a.17.17,0,0,1,.13.17.18.18,0,0,1-.13.17l-3.55.88,3.53.88a.17.17,0,0,1,.12.21A.17.17,0,0,1,231.52,416Z"/><path class="cls-21" d="M249,417.64l.13,0c.27.1.57.19.9.27,8.75,2.48,20.48,1.21,22.2,0,1.54,1.57-1.13,3-4.39,3.15-2,.09-4.61-.1-7.37-.17-3-.08-5.49.33-7.42.17-2.76-.21-4.32-1.15-4.44-1.95S249,418,249,417.64Z"/><path class="cls-23" d="M249,417.63a7.77,7.77,0,0,1,1.51-6.73c1.1-1,1.27,2.47,4.05,2.63,3,.18,2.16-3,4.14-2.27a41.44,41.44,0,0,0,5.28,2.8,10.37,10.37,0,0,0,5.59.84c2.82-.17,3.49.89,2.68,3.1C270.5,419.2,257.86,420.52,249,417.63Z"/><path class="cls-50" d="M249.38,412.8a4.2,4.2,0,0,1,2.67,3.71,5.16,5.16,0,0,1-.12,1.9,29.2,29.2,0,0,1-2.89-.77A8.67,8.67,0,0,1,249.38,412.8Z"/><path class="cls-50" d="M264.08,415.4a2.69,2.69,0,0,0,1.33-.83,11.35,11.35,0,0,0,4.19.32h.69c.23.8-.4,2-3.63,2.12C263,417.19,262.95,415.8,264.08,415.4Z"/><path class="cls-21" d="M262.53,415.67a.4.4,0,1,0,.41-.39A.4.4,0,0,0,262.53,415.67Z"/><circle class="cls-21" cx="261.13" cy="414.74" r="0.39" transform="translate(-162.43 661.32) rotate(-88.01)"/><ellipse class="cls-21" cx="259.38" cy="413.75" rx="0.4" ry="0.4" transform="translate(-158.73 666.04) rotate(-89.02)"/><path class="cls-21" d="M257.21,412.75a.41.41,0,0,0,.39.41.41.41,0,0,0,.41-.39.4.4,0,0,0-.8,0Z"/><path class="cls-50" d="M257.57,412.54l2-1.12a.21.21,0,0,1,.22,0,.21.21,0,0,1,.1.2l-.18,1.67,1.6-.91a.24.24,0,0,1,.23,0,.23.23,0,0,1,.1.2l-.17,1.67,1.6-.91a.2.2,0,0,1,.22,0,.21.21,0,0,1,.09.2l-.21,2.09a.22.22,0,0,1-.22.19h0a.21.21,0,0,1-.19-.24l.18-1.67-1.61.91h0l-.06,0h0a.22.22,0,0,1-.08,0,.14.14,0,0,1-.06-.06h0a.16.16,0,0,1,0-.08s0,0,0-.06l.18-1.67-1.6.91s0,0,0,0,0,0-.07,0h0l-.07,0-.06,0h0s0,0,0-.06,0,0,0-.06l.17-1.67-1.6.91a.21.21,0,0,1-.29-.08A.21.21,0,0,1,257.57,412.54Z"/><path class="cls-51" d="M241,384.26c0-.47.09-.94.16-1.39-1.25-2.87-5.56-12.34-5.56-12.34a78.58,78.58,0,0,0-1.36,13.72H220c-5.63-21.46-3.44-42.35-.17-42.48,2.36,0,8.38,6.78,29.09,5.23.89-.06,1.46,3.37,2,6.45,1.42,8.25,4.08,21.79,4.2,27.16,0,.91.12,2.15.29,3.64Z"/><path class="cls-52" d="M265.84,314.15l-11,11.6a33.47,33.47,0,0,1-2.58-6,19.93,19.93,0,0,1-1.51,5.55c-1.79,3.8-.37,21.15-.4,24.35-19.77,1.39-31.22-.55-33.73-.93.33-5,3.47-19.74,1.74-23.62-1.14-2.58-1.62-6.81-1.81-10-2.19,2.74-6.31,4.88-13.21,6.52l-2.1-14.78a12,12,0,0,0,3.38-2.42c3.82-3.76,8-7.32,14.53-7.4l4.5-1.29s0,.09,0,.12c0,3.83,4.9,6.95,11,6.95s10.87-3.07,11-6.85l5.09,1.87c9.54.69,12,6.9,13.62,12.78A17.38,17.38,0,0,0,265.84,314.15Z"/><path class="cls-53" d="M245.57,296c-.08,3.78-4.95,6.84-11,6.84s-11-3.11-11-6.94c0,0,0-.08,0-.12l-1.73.5.34,1.69c1.21,3.51,5.46,6.09,10.83,6.51v16h3.16v-16c5.1-.44,9.19-2.88,10.54-6.18l.47-1.66Z"/><circle class="cls-50" cx="234.69" cy="307.18" r="0.96"/><circle class="cls-50" cx="234.69" cy="312.06" r="0.96"/><circle class="cls-50" cx="234.69" cy="316.95" r="0.96"/><ellipse class="cls-44" cx="201.93" cy="275.01" rx="6.46" ry="8.61" transform="translate(-133.73 213.91) rotate(-43.39)"/><ellipse class="cls-44" cx="264.7" cy="275.01" rx="8.61" ry="6.46" transform="translate(-116.98 278.39) rotate(-46.6)"/><path class="cls-16" d="M204.39,277.3c-2.4-7.17-1.41-16.22,2.27-21.42,6.12-8.66,20-13.11,30.23-13.15,7.63,0,20.75,7.46,24.52,14.9,15.68,30.93-36.13,45.39-53.47,26A18,18,0,0,1,204.39,277.3Z"/><circle class="cls-45" cx="219.94" cy="276.48" r="6.95"/><path class="cls-47" d="M238.56,280.47c-3.67,1.91-10.23,2.45-11.34-2.71-.29-1.36-2.37-.78-2.08.57,1.43,6.63,9.62,6.54,14.5,4C240.88,281.69,239.79,279.83,238.56,280.47Z"/><ellipse class="cls-47" cx="222.8" cy="266.05" rx="2.86" ry="6.09"/><circle class="cls-45" cx="249.6" cy="276.48" r="6.95"/><ellipse class="cls-44" cx="234.78" cy="272.65" rx="3.82" ry="1.91"/><ellipse class="cls-47" cx="245.52" cy="266.05" rx="2.86" ry="6.09"/><path class="cls-46" d="M261.13,238.29c-4.33-6.49-9-6.72-8.86-11.13-4.43-.53-11.82.53-15.53,2.48a8,8,0,0,0,.33-3.72c-3.14.22-10.94,1.88-14.62,5.14a21.79,21.79,0,0,0,0-3c-5.28,1.62-10.4,4.11-11.25,9.69-3.25-.52-7.09.89-8.53,2.49a30.82,30.82,0,0,0,3.92.11,11.78,11.78,0,0,0-2.83,4.37c-3.85,11.55-2.48,23.54,1,27.19,1.34-6.09,4.07-15.05,13.76-19,13.29-2.94,21.27,3.44,29.46,3-1-1.11-2.2-3.39-3.88-4.3,11.84,1.63,16.75,12.47,18.64,20C264.76,266.41,268.33,249.11,261.13,238.29Z"/><path class="cls-54" d="M225.46,365c.29-2.58.56-10.24-1.75-14.23-2.5-4.33-9.48-9.14-11.89-10.58a11.3,11.3,0,0,0-5.49-1.75c-11.83,0-16.31,15.43-16.88,18.16a11.87,11.87,0,0,0,2.31,10.18c2.84,3.65,11.42,9.29,14.78,10.58a9.93,9.93,0,0,0,3.53.55h1C217.3,377.94,224.61,372.6,225.46,365Z"/><path class="cls-55" d="M216,347.74a.44.44,0,0,1-.31-.12,52.2,52.2,0,0,0-8.91-6.91,13.83,13.83,0,0,0-2.28-1.1.44.44,0,0,1-.26-.56.44.44,0,0,1,.56-.26,13.6,13.6,0,0,1,2.43,1.17,53,53,0,0,1,9.09,7,.44.44,0,0,1-.31.75Z"/><path class="cls-55" d="M211.25,377c-4.93-1.89-17.34-10-21.93-15.53a12,12,0,0,0,2.43,5.39c2.84,3.65,11.42,9.29,14.78,10.58a9.93,9.93,0,0,0,3.53.55h1a12.33,12.33,0,0,0,2.76-.34A11.64,11.64,0,0,1,211.25,377Z"/><path class="cls-55" d="M221.51,349.18c15.78-17.79,29.39-46,32-52.3L248,294.56c-2.65,6.37-17.45,36.26-33.39,53.19-9.44,1.6-13.41,15.06-13.92,17.43-1.63,7.85,3.63,12.59,9.73,12.58h1c6.1,0,13.23-5.2,14.06-12.58C225.64,363.16,226.64,353.11,221.51,349.18Z"/></g></g></svg>