<svg id="Capa_1" data-name="Capa 1" xmlns="http://www.w3.org/2000/svg" xmlns:xlink="http://www.w3.org/1999/xlink" viewBox="0 0 500 500"><defs><style>.cls-1{fill:none;}.cls-2{fill:url(#Degradado_sin_nombre_51);}.cls-3{fill:#af8d5d;}.cls-4{fill:#876439;}.cls-5{fill:#40e6ff;}.cls-6{fill:#ea2121;}.cls-7{fill:#a0702b;}.cls-8{fill:#bf2121;}.cls-9{fill:#58595b;}.cls-10{clip-path:url(#clip-path);}.cls-11{fill:#00b300;}.cls-12{fill:#fff;}.cls-13{fill:#77ff7d;}.cls-14{fill:#fcc995;}.cls-15{fill:#86c142;}.cls-16,.cls-17{fill:#f78c63;}.cls-17{opacity:0.3;}.cls-18{fill:#aa4f0c;}.cls-19{fill:#3a211a;}.cls-20{fill:#98db52;}.cls-21{fill:#594947;}.cls-22{fill:#896a68;}</style><linearGradient id="Degradado_sin_nombre_51" x1="145.27" y1="481.52" x2="390.88" y2="56.11" gradientUnits="userSpaceOnUse"><stop offset="0" stop-color="#00b300"/><stop offset="0.13" stop-color="#29cd2b"/><stop offset="0.29" stop-color="#53e857"/><stop offset="0.41" stop-color="#6df973"/><stop offset="0.49" stop-color="#77ff7d"/><stop offset="0.64" stop-color="#77ff87"/><stop offset="0.9" stop-color="#77ffa1"/><stop offset="1" stop-color="#77ffac"/></linearGradient><clipPath id="clip-path"><path class="cls-1" d="M492.25,268.5C492.25,395.65,426.52,500,299.36,500S7.75,448.38,7.75,321.22,135.89,12.07,263,12.07,492.25,141.34,492.25,268.5Z"/></clipPath></defs><title>1</title><path class="cls-2" d="M492.25,268.5C492.25,395.65,426.52,500,299.36,500S7.75,448.38,7.75,321.22,135.89,12.07,263,12.07,492.25,141.34,492.25,268.5Z"/><rect class="cls-3" x="393.88" y="194.32" width="12.65" height="13.44"/><rect class="cls-4" x="406.53" y="194.85" width="12.65" height="13.44"/><path class="cls-5" d="M415.2,174.54v7.12h-8.68v-7.12h8.67l4-13s22.12-15.43,43.84-55.38-19.79-63.67-19.79-63.67Z"/><path class="cls-6" d="M416.26,182.72H405.47v-9.23h8.94l3.85-12.65.3-.21c.22-.15,22.18-15.79,43.52-55,21-38.59-19-62-19.39-62.24l1-1.83c.42.24,42.16,24.7,20.19,65.09-20.22,37.19-41.11,53.48-43.86,55.52l-3.82,12.56Zm-8.68-2.11h6.57v-5h-6.56Z"/><path class="cls-5" d="M397.86,174.55v7.12h8.67v-7.12h-8.67l-4-13S371.76,146.08,350,106.14s16.62-62.67,16.62-62.67-21.82,17-13.52,43.76,28.43,57,30.24,59.65,8,11.29,8,11.29Z"/><path class="cls-6" d="M396.8,182.73v-8L393,162.15c-2.75-2-23.64-18.32-43.88-55.5-22-40.37,16.62-63.85,17-64.08l1.18,1.74c-.21.17-21.14,16.84-13.16,42.62C362.75,114.8,384,146,384.23,146.28c1.81,2.64,8,11.27,8,11.27l-.85.61c1.94,1.64,3.06,2.44,3.11,2.47l.3.21,3.86,12.65h8.94v9.23Zm2.11-7.12v5h6.56v-5ZM357.55,52.17c-9.46,9.6-20.57,27.82-6.6,53.46,14.19,26.07,28.66,41.72,36.83,49.32-1.9-2.67-4.27-6-5.28-7.48-.22-.31-21.66-31.76-30.38-59.94C347.37,72.23,352.3,60,357.55,52.17Z"/><polygon class="cls-7" points="406.53 195.38 392.45 195.38 396.85 181.35 398.86 181.99 395.32 193.27 406.53 193.27 406.53 195.38"/><polygon class="cls-7" points="392.83 208.83 392.83 194.32 394.94 194.32 394.94 206.72 406.54 206.71 406.54 208.82 392.83 208.83"/><path class="cls-7" d="M420.24,208.82H405.48V193.27h12.26L414.19,182l2-.63,4.41,14h-.38Zm-12.65-2.11h10.53V195.38H407.59Z"/><rect class="cls-6" x="405.47" y="161.5" width="2.11" height="13.05"/><rect class="cls-7" x="394.68" y="197.63" width="24.5" height="2.11"/><rect class="cls-7" x="394.68" y="202.09" width="24.49" height="2.11"/><rect class="cls-7" x="411.8" y="195.37" width="2.11" height="12.4"/><rect class="cls-7" x="399.15" y="194.32" width="2.11" height="13.45"/><path class="cls-6" d="M415.2,161.49h4S461.43,107.3,461,74.87,434,36.19,434,36.19Z"/><path class="cls-5" d="M397.85,161.5h-4S351.6,107.33,352,74.89,381.21,36.2,381.21,36.2Z"/><path class="cls-6" d="M393.36,162.56l-.32-.41c-1.73-2.22-42.5-54.84-42.11-87.27C351.32,42,380.69,35.23,381,35.17l.45,2.06c-1.14.25-28,6.49-28.39,37.68-.36,30.23,37.49,80.49,41.35,85.54h3.45v2.11Z"/><path class="cls-6" d="M401.8,161.5h-4s-10.28-18.19-17.21-32.68S359.1,76.08,367.39,52.74,393.85,32,393.85,32Z"/><path class="cls-5" d="M411.24,161.5h4s10.27-18.2,17.19-32.69S453.9,76.05,445.6,52.72,419.14,32,419.14,32Z"/><path class="cls-6" d="M410.12,162.55l8-131.44L419,31a13.83,13.83,0,0,1,1.83-.1c4.25,0,18.68,1.55,25.77,21.48,7.91,22.23-4.6,58.79-13.25,76.89-6.86,14.36-17.12,32.57-17.23,32.75l-.3.53ZM420.14,33l-7.77,127.43h2.21c1.75-3.12,10.69-19.18,16.86-32.09,8.51-17.8,20.85-53.69,13.17-75.27C438.16,35,425.82,33,420.82,33Z"/><path class="cls-6" d="M406.49,31l0,130.52h4.72s20.14-72.38,20.53-86.23S426.63,34.14,417.14,31,406.49,31,406.49,31Z"/><path class="cls-5" d="M406.49,31l0,130.52H401.8s-20.17-72.37-20.57-86.21,5.13-41.13,14.61-44.3S406.49,31,406.49,31Z"/><path class="cls-6" d="M407.58,162.55H401l-.22-.77c-.82-3-20.21-72.66-20.61-86.47-.4-14,5.11-41.92,15.33-45.34a24.2,24.2,0,0,1,7.31-1.46c3.78,0,4.58,1.88,4.66,2.1l.06.37Zm-5-2.11h2.86l0-129.16a3.82,3.82,0,0,0-2.62-.65A22.15,22.15,0,0,0,396.18,32c-8.81,2.94-14.28,29.83-13.89,43.27C382.65,88,400.43,152.61,402.6,160.44Z"/><path class="cls-6" d="M395.45,161.5s-38.26-48.72-42.33-74.27,5.31-38.78,13.52-43.76-26.45,15.82-23.19,38.36c2.93,20.29,9.71,31.7,21.47,47.93s29,31.74,29,31.74Z"/><path class="cls-8" d="M467.83,92.55s-3.82-4.87-7.62-3.84l-.64.17-.44-.5c-.06-.07-5.71-6.48-11.34-3.75l-.52.25-.49-.3c-2.56-1.57-10.11-5.32-14.17-3.73l-.35.14-.36-.12C431.73,80.82,413.68,75,407,78l-.87-1.92c7-3.16,23.43,1.83,26.11,2.67,5.22-1.7,13.14,2.55,15.19,3.74,5.94-2.46,11.34,2.44,12.89,4,4.87-.8,9,4.49,9.2,4.72Z"/><path class="cls-8" d="M468.65,85.53c-1.84-3.91-7.64-4.61-7.7-4.61l.09-1.07-.7-.58a.86.86,0,0,0-.06.81c-.49-.8-5.16-4.09-12-2.86l-.63.11-.39-.51c-.21-.26-5.12-6.46-15.26-4.5l-.41.08-.35-.22c-.12-.08-12.41-7.59-24.44-4l-.59-2c11.91-3.49,23.58,2.78,25.79,4.07,9.61-1.69,15,3.24,16.51,4.87C455.81,74,461,77.46,462,78.84l.08.13c2,.39,6.63,1.7,8.5,5.67Z"/><path class="cls-8" d="M344.4,85.07l-1.91-.9c1.87-4,6.54-5.28,8.5-5.67l.08-.13c1-1.37,6.15-4.87,13.43-3.8C366,72.93,371.4,68,381,69.69c2.21-1.29,13.87-7.57,25.79-4.08l-.59,2c-12.05-3.53-24.31,4-24.44,4.06l-.35.22-.41-.08c-10.2-2-15.2,4.44-15.25,4.51l-.39.52-.64-.12c-6.81-1.22-11.47,2.07-12,2.87a.86.86,0,0,0-.06-.81l-.72.43.11,1.22C352,80.46,346.24,81.17,344.4,85.07Z"/><path class="cls-8" d="M345.23,92.09l-1.67-1.29c.18-.23,4.32-5.48,9.19-4.72,1.55-1.59,7-6.49,12.9-4,2-1.19,10-5.44,15.19-3.75,2.68-.85,19.13-5.84,26.11-2.68l-.87,1.92c-6.68-3-24.74,2.82-24.92,2.88l-.36.12-.35-.14c-4.07-1.58-11.6,2.16-14.17,3.73l-.49.3-.52-.25c-5.65-2.74-11.28,3.69-11.34,3.75l-.44.5-.64-.17C349.06,87.23,345.26,92,345.23,92.09Z"/><path class="cls-9" d="M154.92,100.46a7.89,7.89,0,0,1-2.63.64c-1.18,0-2.41-1-3.22-1a12.92,12.92,0,0,0-2.47.48l-4.5,1.34h6.41a33.44,33.44,0,0,1,3.89.43c1.13.27,2.79,1.18,3.54,1.34s3.75,1.4,3.75,1.4a50.35,50.35,0,0,0,5.2.45,13.8,13.8,0,0,1,3,.46s4,2.09,5.31,1.93-1.39-1.07-1.39-1.07-2.37-.16-2.42-.48.32-.84.32-.84-3.64-1.09-3.32-1.52a69.22,69.22,0,0,1,6-5.21c.59-.27.37-.32.37-.8s1.29-1.4,1.83-1.66a3.33,3.33,0,0,0,1-.8s1.77-1,1.87-1.34a10.26,10.26,0,0,1,.49-1l-4.51,1.13,1.72-1.13,1.18-1-2.74.59-2.3.91,2.52-1.5,1.61-1.13s.75-.64.59-.64h-1.23s-4,3.33-4.35,3.17,5.31-4.29,5.31-4.29l-.27-.64s-5.31,4.35-6.28,4.67-3.59,2-4.5,2.41a27.52,27.52,0,0,0-3.7,2.84A2.68,2.68,0,0,1,160,99s-1.74-1-2.07-1.29-1-1.77-1.5-2.41-2.46-.7-2.46-.7l.75-.54h-2.09a4.1,4.1,0,0,0,.21-.81c0-.21-.91.05-.91.05s.32-.75-.11-1.13a1.12,1.12,0,0,0-1.07-.11l-.21-.81-.7-.43c-.16-.11-.75-.59-.75-.59s-.65,3,0,3.92,1.34,2.57,2.78,3.11S154.92,100.46,154.92,100.46Z"/><path class="cls-9" d="M123,85.33a7.86,7.86,0,0,1-2.62.64c-1.18,0-2.41-1-3.22-1a12.93,12.93,0,0,0-2.47.48l-4.5,1.34h6.41a33.35,33.35,0,0,1,3.89.43c1.12.27,2.79,1.18,3.54,1.34s3.75,1.4,3.75,1.4a50.24,50.24,0,0,0,5.2.45,13.86,13.86,0,0,1,3,.46s4,2.09,5.31,1.93-1.39-1.07-1.39-1.07-2.36-.16-2.41-.48.32-.83.32-.83-3.65-1.09-3.32-1.52a69.16,69.16,0,0,1,6-5.21c.59-.27.37-.32.37-.81s1.29-1.39,1.82-1.66a3.3,3.3,0,0,0,1-.81s1.77-1,1.87-1.34a10,10,0,0,1,.49-1l-4.51,1.13,1.72-1.13,1.18-1-2.73.59-2.3.91s2.36-1.39,2.52-1.5L143.46,76s.75-.64.59-.64h-1.23s-4,3.33-4.35,3.16,5.31-4.29,5.31-4.29l-.27-.64s-5.3,4.34-6.27,4.67-3.59,2-4.51,2.41A27.19,27.19,0,0,0,129,83.5a2.7,2.7,0,0,1-.94.32s-1.74-1-2.06-1.29-1-1.77-1.5-2.41-2.46-.7-2.46-.7l.75-.54h-2.09a4.09,4.09,0,0,0,.21-.81c0-.21-.91.05-.91.05s.32-.75-.11-1.13a1.12,1.12,0,0,0-1.07-.11l-.21-.81-.7-.43c-.16-.11-.75-.59-.75-.59s-.65,3,0,3.92,1.34,2.58,2.79,3.11S123,85.33,123,85.33Z"/><path class="cls-9" d="M91.39,68.54a7.87,7.87,0,0,1-2.63.64c-1.18,0-2.41-1-3.22-1a12.9,12.9,0,0,0-2.46.48L78.57,70H85a34.16,34.16,0,0,1,3.89.43c1.13.27,2.79,1.18,3.54,1.34s3.75,1.4,3.75,1.4a50.28,50.28,0,0,0,5.2.45,13.9,13.9,0,0,1,3,.46s4,2.09,5.31,1.93S108.28,75,108.28,75s-2.36-.16-2.41-.48.32-.83.32-.83-3.65-1.09-3.32-1.52a69,69,0,0,1,6-5.21c.59-.27.37-.32.37-.81s1.28-1.39,1.83-1.66a3.39,3.39,0,0,0,1-.8s1.77-1,1.87-1.34a9.5,9.5,0,0,1,.48-1l-4.5,1.13,1.72-1.13,1.18-1-2.74.59-2.3.91,2.52-1.5,1.61-1.13s.75-.65.59-.65h-1.24s-4,3.33-4.34,3.17,5.31-4.29,5.31-4.29l-.27-.64s-5.31,4.35-6.27,4.67-3.59,2-4.51,2.41a27.44,27.44,0,0,0-3.7,2.84,2.65,2.65,0,0,1-.93.32s-1.74-1-2.06-1.29-1-1.77-1.5-2.41-2.47-.7-2.47-.7l.75-.54H89.08a4.07,4.07,0,0,0,.21-.8c0-.21-.91.05-.91.05s.32-.75-.11-1.13a1.12,1.12,0,0,0-1.07-.11L87,59.31l-.7-.43c-.16-.11-.75-.59-.75-.59s-.64,3,0,3.92,1.34,2.57,2.79,3.11S91.39,68.54,91.39,68.54Z"/><path class="cls-9" d="M123,43.14a7.84,7.84,0,0,1-2.62.65c-1.18,0-2.41-1-3.22-1a12.93,12.93,0,0,0-2.47.48l-4.5,1.34h6.41a33.9,33.9,0,0,1,3.89.43c1.12.27,2.79,1.18,3.54,1.34s3.75,1.39,3.75,1.39a50.19,50.19,0,0,0,5.2.45,13.78,13.78,0,0,1,3,.46s4,2.09,5.31,1.93-1.39-1.07-1.39-1.07-2.36-.16-2.41-.48.32-.83.32-.83-3.65-1.09-3.32-1.52a68.94,68.94,0,0,1,6-5.21c.59-.27.37-.32.37-.81s1.29-1.39,1.82-1.67a3.31,3.31,0,0,0,1-.8s1.77-1,1.87-1.34a10,10,0,0,1,.49-1L141.48,37l1.72-1.13,1.18-1-2.73.59-2.3.91s2.36-1.4,2.52-1.5l1.61-1.13s.75-.64.59-.64h-1.23s-4,3.32-4.35,3.16S143.78,32,143.78,32l-.27-.64s-5.3,4.35-6.27,4.67-3.59,2-4.51,2.41a26.84,26.84,0,0,0-3.7,2.84,2.69,2.69,0,0,1-.94.32s-1.74-1-2.06-1.29-1-1.77-1.5-2.41-2.46-.7-2.46-.7l.75-.54h-2.09a4,4,0,0,0,.21-.8c0-.21-.91.05-.91.05s.32-.75-.11-1.13a1.13,1.13,0,0,0-1.07-.11l-.21-.8-.7-.43c-.16-.11-.75-.59-.75-.59s-.65,3,0,3.92,1.34,2.58,2.79,3.11S123,43.14,123,43.14Z"/><path class="cls-9" d="M147.89,21.39a7.86,7.86,0,0,1-2.63.64c-1.18,0-2.41-1-3.22-1a12.84,12.84,0,0,0-2.47.48l-4.51,1.34h6.41a33.24,33.24,0,0,1,3.89.43c1.13.27,2.79,1.18,3.54,1.34s3.75,1.4,3.75,1.4a50.38,50.38,0,0,0,5.21.45,13.85,13.85,0,0,1,3,.46s4,2.09,5.31,1.93-1.39-1.08-1.39-1.08-2.36-.16-2.41-.48.32-.84.32-.84S159,25.42,159.36,25a69.94,69.94,0,0,1,6-5.21c.59-.27.38-.32.38-.8s1.28-1.4,1.83-1.66a3.35,3.35,0,0,0,1-.81s1.77-1,1.88-1.34a9.7,9.7,0,0,1,.48-1l-4.51,1.13L168,14.14l1.18-1-2.73.59-2.3.91s2.36-1.4,2.52-1.5L168.31,12s.75-.64.59-.64h-1.23s-4,3.33-4.35,3.17,5.31-4.29,5.31-4.29l-.27-.64s-5.31,4.34-6.28,4.67-3.59,2-4.5,2.41a27.23,27.23,0,0,0-3.7,2.84,2.72,2.72,0,0,1-.94.32s-1.74-1-2.06-1.29-1-1.77-1.5-2.42-2.46-.7-2.46-.7l.75-.54h-2.09a4.08,4.08,0,0,0,.21-.81c0-.21-.91.05-.91.05s.33-.75-.11-1.13A1.12,1.12,0,0,0,143.7,13l-.21-.81s-.54-.32-.7-.43-.75-.59-.75-.59-.65,3,0,3.92,1.33,2.58,2.78,3.11S147.89,21.39,147.89,21.39Z"/><path class="cls-9" d="M183.65,11.75a7.89,7.89,0,0,1-2.63.64c-1.18,0-2.41-1-3.22-1a12.93,12.93,0,0,0-2.47.48l-4.5,1.34h6.4a33.82,33.82,0,0,1,3.89.43c1.13.27,2.79,1.18,3.54,1.34s3.76,1.39,3.76,1.39a50.63,50.63,0,0,0,5.2.45,13.82,13.82,0,0,1,3,.46s4,2.09,5.31,1.93-1.4-1.07-1.4-1.07-2.36-.16-2.41-.48.32-.83.32-.83-3.65-1.09-3.32-1.52a69,69,0,0,1,6-5.21c.59-.27.37-.32.37-.81s1.28-1.39,1.82-1.66a3.39,3.39,0,0,0,1-.8s1.77-1,1.87-1.34a10.42,10.42,0,0,1,.48-1l-4.5,1.13,1.72-1.13,1.18-1-2.73.59L200,5l2.52-1.5,1.61-1.13s.75-.65.59-.65h-1.24s-4,3.33-4.34,3.17S204.4.64,204.4.64L204.13,0s-5.31,4.34-6.27,4.67-3.59,2-4.5,2.41a27.07,27.07,0,0,0-3.7,2.84,2.64,2.64,0,0,1-.94.32S187,9.23,186.65,9s-1-1.77-1.5-2.41-2.46-.7-2.46-.7l.75-.54h-2.09a4,4,0,0,0,.21-.8c0-.21-.91.05-.91.05s.32-.75-.11-1.13a1.12,1.12,0,0,0-1.07-.11l-.22-.81-.7-.43c-.16-.11-.75-.59-.75-.59s-.64,3,0,3.92,1.34,2.58,2.79,3.11S183.65,11.75,183.65,11.75Z"/><path class="cls-9" d="M183.65,112a7.88,7.88,0,0,1-2.63.65c-1.18,0-2.41-1-3.22-1a12.89,12.89,0,0,0-2.47.48l-4.5,1.34h6.4a33.94,33.94,0,0,1,3.89.43c1.13.27,2.79,1.18,3.54,1.34s3.76,1.4,3.76,1.4a50.23,50.23,0,0,0,5.2.45,13.8,13.8,0,0,1,3,.46s4,2.09,5.31,1.93-1.4-1.08-1.4-1.08-2.36-.16-2.41-.48.32-.83.32-.83-3.65-1.09-3.32-1.52a69.48,69.48,0,0,1,6-5.21c.59-.27.37-.32.37-.81s1.28-1.39,1.82-1.66a3.39,3.39,0,0,0,1-.8s1.77-1,1.87-1.34a10.21,10.21,0,0,1,.48-1l-4.5,1.13,1.72-1.13,1.18-1-2.73.59-2.3.91s2.36-1.39,2.52-1.5l1.61-1.13s.75-.64.59-.64h-1.24s-4,3.32-4.34,3.16,5.31-4.29,5.31-4.29l-.27-.64s-5.31,4.34-6.27,4.67-3.59,2-4.5,2.41a27.06,27.06,0,0,0-3.7,2.84,2.67,2.67,0,0,1-.94.32s-1.74-1-2.06-1.29-1-1.77-1.5-2.41-2.46-.7-2.46-.7l.75-.54h-2.09a4,4,0,0,0,.21-.8c0-.21-.91.05-.91.05s.32-.75-.11-1.13a1.12,1.12,0,0,0-1.07-.11l-.22-.8-.7-.43c-.16-.11-.75-.59-.75-.59s-.64,3,0,3.92,1.34,2.58,2.79,3.11S183.65,112,183.65,112Z"/><path class="cls-9" d="M215.74,121.61a7.9,7.9,0,0,1-2.63.64c-1.18,0-2.41-1-3.22-1a12.85,12.85,0,0,0-2.46.48l-4.5,1.34h6.4a33.84,33.84,0,0,1,3.89.43c1.13.27,2.79,1.18,3.54,1.34s3.75,1.39,3.75,1.39a49.88,49.88,0,0,0,5.2.45,13.88,13.88,0,0,1,3,.46s4,2.09,5.31,1.93-1.4-1.07-1.4-1.07-2.36-.16-2.41-.48.32-.84.32-.84-3.65-1.09-3.33-1.52a69.43,69.43,0,0,1,6-5.21c.59-.27.37-.32.37-.8s1.29-1.4,1.82-1.66a3.3,3.3,0,0,0,1-.81s1.77-1,1.88-1.34a9.89,9.89,0,0,1,.48-1l-4.5,1.13,1.72-1.13,1.17-1-2.73.59-2.31.91s2.36-1.4,2.52-1.5l1.61-1.13s.75-.65.59-.65h-1.24s-4,3.33-4.34,3.17,5.31-4.29,5.31-4.29l-.27-.65s-5.31,4.35-6.27,4.67-3.59,2-4.5,2.41a27.2,27.2,0,0,0-3.7,2.84,2.64,2.64,0,0,1-.94.32s-1.74-1-2.06-1.29-1-1.77-1.5-2.41-2.47-.7-2.47-.7l.75-.54h-2.09a4.12,4.12,0,0,0,.21-.81c0-.22-.91.05-.91.05s.32-.75-.11-1.13a1.12,1.12,0,0,0-1.07-.11l-.22-.8-.69-.43c-.16-.11-.75-.59-.75-.59s-.64,3,0,3.92,1.34,2.57,2.79,3.11S215.74,121.61,215.74,121.61Z"/><g class="cls-10"><path class="cls-11" d="M388.34,503.5S338.72,192.6,282.25,201.43s-79.4,168.92-98.81,193.94-42.34-10.89-67,0S77.58,493,67,503.5Z"/><path class="cls-12" d="M356.65,349.86s-41.2-44.62-52.5-68.18-15.62,15.53-29.74,15.42-15.08-22.5-36.26,0-47.24,83.38-45.95,79.74l16.33-52.05C221.47,283.54,234,209,282.25,201.43,310.57,197,337.17,273,356.65,349.86Z"/><path class="cls-13" d="M313.1,503.5s37.47-185.16,71-185.7S468,489,479.84,503.5Z"/><path class="cls-12" d="M378.77,361.79c9.7,7.06,10.71-3.53,17.71,0s3.75,14.65,20.23,20.75,12-4.1,12-4.1h0c-15.22-33.67-31.26-60.84-44.61-60.62-5.61.09-11.34,5.38-17,14.1C367.09,331.92,369.06,354.72,378.77,361.79Z"/></g><path class="cls-14" d="M141.19,355.62l3.23,130.49h16.8s-3.48-113.54,16.47-111.75c21.64,1.94,41.67,111.11,41.67,111.11l13.89-.32L211,355.62Z"/><path class="cls-15" d="M131.48,189.54h72.59s-1-38.45-36.29-38.65S131.48,189.54,131.48,189.54Z"/><path class="cls-14" d="M142.73,283l-14.93-1.56s-30.87,51.78,16,69.7l1.36-12.43S113.6,323.5,142.73,283Z"/><path class="cls-14" d="M206.46,283l14.93-1.56s30.87,51.78-16,69.7l-1.36-12.43S235.6,323.5,206.46,283Z"/><path class="cls-15" d="M224.52,283c-10.53-39.24-41.34-42.32-41.34-42.32l-35.53-2.59-3.88,113,66.54.65-12.92-64.6C212.33,293.59,224.52,283,224.52,283Z"/><path class="cls-15" d="M148.12,241.3s-19,15.48-23.78,38.66c0,0,14.38,6.59,30.09,8.05Z"/><ellipse class="cls-16" cx="129.23" cy="221.9" rx="8.72" ry="11.63" transform="translate(-117.13 149.45) rotate(-43.39)"/><ellipse class="cls-16" cx="213.98" cy="221.9" rx="11.63" ry="8.72" transform="translate(-94.27 224.92) rotate(-46.6)"/><path class="cls-14" d="M132.56,225c-3.24-9.68-1.9-21.9,3.06-28.92,8.26-11.69,27-17.69,40.81-17.75,10.3,0,28,10.07,33.11,20.12,21.18,41.76-48.78,61.28-72.19,35.09A24.3,24.3,0,0,1,132.56,225Z"/><circle class="cls-17" cx="152.11" cy="226.29" r="9.38"/><path class="cls-18" d="M130.53,219.64S113.41,187,165.09,155.37c0,0,7.11-7.11,9-12.92,0,0,37.79,18.09,39.08,69.12,0,0-2.26-24.55-40.37-22C126.39,192.75,130.53,219.64,130.53,219.64Z"/><polygon class="cls-16" points="171.55 205.75 165.73 225.13 181.88 224.49 171.55 205.75"/><path class="cls-19" d="M173.4,231c-5,2.59-13.81,3.31-15.31-3.65-.39-1.83-3.2-1.06-2.8.77,1.93,8.95,13,8.83,19.58,5.39C176.53,232.63,175.06,230.12,173.4,231Z"/><ellipse class="cls-19" cx="158.63" cy="212.21" rx="2.89" ry="6.13"/><ellipse class="cls-19" cx="186.4" cy="212.21" rx="2.89" ry="6.13"/><circle class="cls-17" cx="192.16" cy="226.29" r="9.38"/><rect class="cls-20" x="141.19" y="348.52" width="69.77" height="7.11"/><path class="cls-21" d="M221.48,416.77h-19c-7.12-22.3-15.82-41.6-24.81-42.41-8.45-.75-12.7,19.18-14.8,42.41H142.7l-1.52-61.15h69.76Z"/><path class="cls-21" d="M233.24,485.14l-13.89.33s0-.22-.12-.65h14Z"/><path class="cls-15" d="M161.86,497.1l-49.74-.65a2.84,2.84,0,0,1-.11-.32,9.81,9.81,0,0,1-.32-1.3c-.81-4.46-.09-16.13,32.73-8.71h16.79l.52,8.71.07,1.3Z"/><rect class="cls-22" x="111.47" y="496.12" width="51.03" height="3.88"/><path class="cls-15" d="M267.91,494.83a2.66,2.66,0,0,1-.11.33l-49.74.64.06-1,.58-10h16.8C272.44,476.48,268.71,492.32,267.91,494.83Z"/><rect class="cls-22" x="217.41" y="494.83" width="51.03" height="3.88"/></svg>