<svg id="Capa_1" data-name="Capa 1" xmlns="http://www.w3.org/2000/svg" xmlns:xlink="http://www.w3.org/1999/xlink" viewBox="0 0 500 500"><defs><style>.cls-1{fill:url(#Degradado_sin_nombre_51);}.cls-2{fill:#e05049;}.cls-3{fill:#bf3a31;}.cls-4{fill:#e97066;}.cls-5{fill:#f4cbaa;}.cls-6{fill:#e99755;}.cls-7{fill:#fbeadd;}.cls-8{fill:#00b300;}.cls-9{font-size:32.11px;fill:#fff;font-family:OpenSans, Open Sans;}</style><linearGradient id="Degradado_sin_nombre_51" x1="-2017.59" y1="687.78" x2="-1716.61" y2="386.8" gradientTransform="matrix(-0.96, 0.27, 0.27, 0.96, -1677.6, 232.88)" gradientUnits="userSpaceOnUse"><stop offset="0" stop-color="#00b300"/><stop offset="0.13" stop-color="#29cd2b"/><stop offset="0.29" stop-color="#53e857"/><stop offset="0.41" stop-color="#6df973"/><stop offset="0.49" stop-color="#77ff7d"/><stop offset="0.64" stop-color="#77ff87"/><stop offset="0.9" stop-color="#77ffa1"/><stop offset="1" stop-color="#77ffac"/></linearGradient></defs><title>11</title><path class="cls-1" d="M19.66,335.71c20.82,72.12,145.78,128.27,273,93.14s237.07-115.4,200-249.78S199.7-14.8,154,104.68C106.86,228-19,201.77,19.66,335.71Z"/><path class="cls-2" d="M285.09,116.55A81.88,81.88,0,1,1,203.2,34.67,81.88,81.88,0,0,1,285.09,116.55Z"/><path class="cls-3" d="M265.1,117.52a57,57,0,1,1-57-57A57,57,0,0,1,265.1,117.52Z"/><path class="cls-4" d="M260.36,112.79a57,57,0,1,1-57-57A57,57,0,0,1,260.36,112.79Z"/><path class="cls-5" d="M220.3,212.67A17.35,17.35,0,0,1,203,230h0a17.35,17.35,0,0,1-17.35-17.34V140.81A17.35,17.35,0,0,1,203,123.46h0a17.35,17.35,0,0,1,17.34,17.34Z"/><path class="cls-6" d="M207.14,298.33c0,7.54-7.77,13.66-17.34,13.66h0c-9.58,0-17.35-70.28-17.35-70.28,0-7.54,7.76-13.66,17.35-13.66h0c9.58,0,17.34,6.12,17.34,13.66Z"/><rect class="cls-5" x="202.89" y="304.18" width="97.01" height="99.55"/><path class="cls-5" d="M299.85,202a17.27,17.27,0,0,0-15.12,9,17.23,17.23,0,0,0-32.3-6.69,17.23,17.23,0,0,0-32.3-6.7,17.3,17.3,0,0,0-34.52,1.64V299.85a65.79,65.79,0,0,0,131.59,0V219.36A17.35,17.35,0,0,0,299.85,202Z"/><path class="cls-7" d="M299.85,208.36a17.54,17.54,0,0,0-15.12,8.28c-.84-8.08-8.16-14.43-17.18-14.43a17.53,17.53,0,0,0-15,8.07V358.69c35.77-.59,64.6-27.39,64.6-60.42v-74C317.19,215.5,309.42,208.36,299.85,208.36Z"/><rect class="cls-7" x="252.59" y="276.05" width="41.21" height="127.68"/><rect class="cls-8" y="399.79" width="499.42" height="65.55" rx="32.77" ry="32.77"/><text class="cls-9" transform="translate(48.03 445.5)">CONOCE CADA TIPO AQUÍ</text></svg>