<svg id="Capa_1" data-name="Capa 1" xmlns="http://www.w3.org/2000/svg" xmlns:xlink="http://www.w3.org/1999/xlink" viewBox="0 0 500 500"><defs><style>.cls-1,.cls-9{fill:none;}.cls-2{fill:url(#Degradado_sin_nombre_51);}.cls-3{fill:#86c142;}.cls-4,.cls-6{fill:#f78c63;}.cls-5{fill:#fcc995;}.cls-6{opacity:0.3;}.cls-7{fill:#aa4f0c;}.cls-8{fill:#3a211a;}.cls-9{stroke:#3a211a;stroke-linecap:round;stroke-miterlimit:10;stroke-width:11.47px;}.cls-10{clip-path:url(#clip-path);}.cls-11{fill:#f6bc9f;}.cls-12{fill:#fff;}</style><linearGradient id="Degradado_sin_nombre_51" x1="-4259.74" y1="1004.46" x2="-3951.11" y2="695.84" gradientTransform="matrix(-0.96, 0.27, 0.27, 0.96, -3924.45, 537.28)" gradientUnits="userSpaceOnUse"><stop offset="0" stop-color="#00b300"/><stop offset="0.13" stop-color="#29cd2b"/><stop offset="0.29" stop-color="#53e857"/><stop offset="0.41" stop-color="#6df973"/><stop offset="0.49" stop-color="#77ff7d"/><stop offset="0.64" stop-color="#77ff87"/><stop offset="0.9" stop-color="#77ffa1"/><stop offset="1" stop-color="#77ffac"/></linearGradient><clipPath id="clip-path"><path class="cls-1" d="M7.46,348.2c21.35,73.95,149.48,131.53,280,95.51S530.54,325.37,492.5,187.58,192.07-11.21,145.23,111.31C96.87,237.76-32.19,210.86,7.46,348.2Z"/></clipPath></defs><title>13</title><path class="cls-2" d="M7.46,348.2c21.35,73.95,149.48,131.53,280,95.51S530.54,325.37,492.5,187.58,192.07-11.21,145.23,111.31C96.87,237.76-32.19,210.86,7.46,348.2Z"/><path class="cls-3" d="M109.15,241.86H334S331,122.73,221.6,122.1,109.15,241.86,109.15,241.86Z"/><ellipse class="cls-4" cx="102.2" cy="342.14" rx="27.02" ry="36.03" transform="translate(-207.12 163.74) rotate(-43.39)"/><ellipse class="cls-4" cx="364.78" cy="342.14" rx="36.03" ry="27.02" transform="translate(-134.45 372.11) rotate(-46.6)"/><path class="cls-5" d="M112.49,351.75c-10-30-5.89-67.85,9.49-89.6,25.6-36.22,83.51-54.82,126.46-55,31.93-.14,86.78,31.21,102.57,62.35,65.61,129.4-151.13,189.86-223.69,108.72A75.3,75.3,0,0,1,112.49,351.75Z"/><circle class="cls-6" cx="173.08" cy="355.72" r="29.05"/><path class="cls-7" d="M106.2,335.14S53.16,234.06,213.28,136c0,0,22-22,28-40,0,0,117.09,56,121.09,214.16,0,0-7-76.06-125.09-68.05C93.39,251.82,106.2,335.14,106.2,335.14Z"/><polygon class="cls-4" points="233.3 292.11 215.28 352.15 265.33 350.15 233.3 292.11"/><path class="cls-8" d="M239,370.28c-15.36,8-42.78,10.25-47.43-11.32-1.22-5.68-9.9-3.27-8.69,2.39,6,27.73,40.22,27.36,60.66,16.7C248.73,375.37,244.18,367.6,239,370.28Z"/><circle class="cls-6" cx="297.17" cy="355.72" r="29.06"/><path class="cls-9" d="M265.33,308s1.33-19.86,16.61-15.21S298.13,308,298.13,308"/><ellipse class="cls-8" cx="190.79" cy="300.06" rx="11.34" ry="24.1"/><g class="cls-10"><path class="cls-4" d="M458.08,310.8a10,10,0,0,1-7.33-16.85c4.87-5.15,11.08-27.82,14-45.86a10,10,0,0,1,19.72,3.23c-1.19,7.27-7.72,44.16-19.24,56.35A10,10,0,0,1,458.08,310.8Z"/><path class="cls-4" d="M454.89,310.32a10.29,10.29,0,0,1-1.52-.1,10,10,0,0,1-8.45-11.33c6.15-42.32-6.19-71.38-6.32-71.67a10,10,0,0,1,18.29-8.06c.61,1.37,14.83,34.26,7.81,82.6A10,10,0,0,1,454.89,310.32Z"/><path class="cls-11" d="M384.21,288a51.63,51.63,0,0,0,18.11,44.12"/><path class="cls-5" d="M402.39,342.08a10,10,0,0,1-6.55-2.38,61.59,61.59,0,0,1-21.52-53.19,10,10,0,0,1,19.78,2.87,41.46,41.46,0,0,0,14.7,35.11,10,10,0,0,1-6.41,17.6Z"/><path class="cls-5" d="M464.41,319.65c10.14-32.86-.92-56-12.06-69.71-11.82-14.51-26.7-22-30-23.24a10,10,0,0,0-7,18.71,63.46,63.46,0,0,1,14.84,10.11,41.19,41.19,0,0,0-5.74-.49,9.92,9.92,0,0,0-1.54,0c-16.5.42-30.72,9.91-31.49,10.44A10,10,0,0,0,402.56,282c3.16-2.11,11-6.18,18.89-6.92,7.11,4,11.64,9,13.48,14.83s.87,11.62-.34,15.7c-4.29,9.32-10.52,16.79-19.52,16.85A24.91,24.91,0,0,1,402.95,319a10,10,0,0,0-14,13.75L402.22,353l-.1,42.23a10,10,0,0,0,10.06,10l40.22-.28a10,10,0,0,0,9.92-10.27l-1.62-57.5Z"/></g><path class="cls-12" d="M324.52,221.08h0c0-21.75-17.63-55-39.38-55h0c21.75,0,39.38-33.26,39.38-55h0c0,21.75,17.63,55,39.38,55h0C342.15,166.08,324.52,199.33,324.52,221.08Z"/><path class="cls-12" d="M388.66,149.33h0c0-10.77-8.73-27.23-19.49-27.23h0c10.77,0,19.49-16.46,19.49-27.23h0c0,10.77,8.73,27.23,19.49,27.23h0C397.39,122.1,388.66,138.56,388.66,149.33Z"/></svg>